<svg width="331" height="191" viewBox="0 0 331 191" fill="none" xmlns="http://www.w3.org/2000/svg">
<path d="M51.5358 40.8688C51.5358 34.0379 57.0732 28.5005 63.904 28.5005H294.572C301.403 28.5005 306.941 34.038 306.941 40.8688V90.9603H63.904C57.0732 90.9603 51.5358 85.4228 51.5358 78.592V40.8688Z" fill="#0D6EFD"/>
<path d="M64.2204 50.9436V47.7989H64.8002C64.9993 47.6173 65.1867 47.3611 65.3624 47.0302C65.541 46.6964 65.6918 46.2514 65.8148 45.695C65.9407 45.1358 66.0241 44.4257 66.0651 43.5648L66.2584 39.77H71.5992V47.7989H72.6358V50.9261H71.5992V48.7651H65.257V50.9436H64.2204ZM66.1002 47.7989H70.5627V40.7363H67.2422L67.1017 43.5648C67.0665 44.2207 67.005 44.8151 66.9172 45.348C66.8293 45.878 66.7166 46.348 66.579 46.7579C66.4414 47.1649 66.2818 47.5119 66.1002 47.7989ZM76.8819 48.9057C76.2728 48.9057 75.7384 48.7607 75.2787 48.4709C74.8219 48.181 74.4647 47.7754 74.207 47.2542C73.9523 46.733 73.8249 46.124 73.8249 45.4271C73.8249 44.7244 73.9523 44.1109 74.207 43.5868C74.4647 43.0627 74.8219 42.6557 75.2787 42.3658C75.7384 42.0759 76.2728 41.931 76.8819 41.931C77.4909 41.931 78.0238 42.0759 78.4806 42.3658C78.9403 42.6557 79.2975 43.0627 79.5523 43.5868C79.81 44.1109 79.9388 44.7244 79.9388 45.4271C79.9388 46.124 79.81 46.733 79.5523 47.2542C79.2975 47.7754 78.9403 48.181 78.4806 48.4709C78.0238 48.7607 77.4909 48.9057 76.8819 48.9057ZM76.8819 47.9746C77.3445 47.9746 77.7252 47.856 78.0238 47.6188C78.3225 47.3816 78.5436 47.0698 78.687 46.6833C78.8305 46.2968 78.9022 45.878 78.9022 45.4271C78.9022 44.9762 78.8305 44.556 78.687 44.1666C78.5436 43.7771 78.3225 43.4624 78.0238 43.2223C77.7252 42.9821 77.3445 42.8621 76.8819 42.8621C76.4192 42.8621 76.0386 42.9821 75.7399 43.2223C75.4412 43.4624 75.2202 43.7771 75.0767 44.1666C74.9332 44.556 74.8615 44.9762 74.8615 45.4271C74.8615 45.878 74.9332 46.2968 75.0767 46.6833C75.2202 47.0698 75.4412 47.3816 75.7399 47.6188C76.0386 47.856 76.4192 47.9746 76.8819 47.9746ZM86.5281 39.4889L87.0552 40.1214C86.8502 40.3205 86.613 40.4596 86.3436 40.5387C86.0743 40.6177 85.7697 40.666 85.4301 40.6836C85.0904 40.7012 84.7127 40.7187 84.2969 40.7363C83.8284 40.7539 83.4404 40.8681 83.133 41.0789C82.8255 41.2897 82.5884 41.5942 82.4215 41.9925C82.2546 42.3907 82.1477 42.8797 82.1008 43.4594H82.1887C82.4171 43.0378 82.7333 42.7274 83.1374 42.5283C83.5415 42.3292 83.9748 42.2296 84.4374 42.2296C84.9645 42.2296 85.4389 42.3526 85.8605 42.5986C86.2821 42.8445 86.616 43.2091 86.8619 43.6922C87.1079 44.1753 87.2309 44.7712 87.2309 45.4798C87.2309 46.1855 87.1049 46.7945 86.8531 47.3069C86.6042 47.8194 86.2543 48.2147 85.8034 48.4928C85.3554 48.7681 84.8298 48.9057 84.2266 48.9057C83.6234 48.9057 83.0949 48.7637 82.6411 48.4796C82.1872 48.1927 81.8344 47.7681 81.5826 47.2059C81.3307 46.6408 81.2048 45.9425 81.2048 45.1109V44.3906C81.2048 42.8884 81.4596 41.7494 81.9691 40.9735C82.4815 40.1975 83.2516 39.7964 84.2793 39.77C84.6424 39.7583 84.966 39.7554 85.25 39.7612C85.534 39.7671 85.7814 39.7539 85.9923 39.7217C86.2031 39.6895 86.3817 39.6119 86.5281 39.4889ZM84.2266 47.9746C84.6336 47.9746 84.9835 47.8721 85.2763 47.6671C85.5721 47.4621 85.799 47.1737 85.9571 46.8018C86.1152 46.4271 86.1943 45.9864 86.1943 45.4798C86.1943 44.9879 86.1138 44.5692 85.9527 44.2237C85.7946 43.8781 85.5677 43.6146 85.272 43.4331C84.9762 43.2515 84.6219 43.1608 84.2091 43.1608C83.9075 43.1608 83.6366 43.212 83.3965 43.3145C83.1564 43.417 82.9514 43.5678 82.7816 43.7669C82.6118 43.966 82.48 44.209 82.3863 44.496C82.2955 44.7829 82.2472 45.1109 82.2414 45.4798C82.2414 46.2353 82.4185 46.8399 82.7728 47.2938C83.1271 47.7476 83.6117 47.9746 84.2266 47.9746ZM88.8164 51.295V42.0188H89.8178V43.0905H89.9408C90.0169 42.9734 90.1223 42.824 90.257 42.6425C90.3947 42.458 90.5908 42.294 90.8456 42.1506C91.1033 42.0042 91.4517 41.931 91.8909 41.931C92.459 41.931 92.9597 42.073 93.393 42.357C93.8264 42.641 94.1646 43.0436 94.4076 43.5648C94.6506 44.086 94.7722 44.7009 94.7722 45.4095C94.7722 46.124 94.6506 46.7433 94.4076 47.2674C94.1646 47.7886 93.8278 48.1927 93.3974 48.4796C92.967 48.7637 92.4707 48.9057 91.9085 48.9057C91.4751 48.9057 91.1281 48.8339 90.8675 48.6905C90.6069 48.5441 90.4064 48.3786 90.2658 48.1942C90.1253 48.0068 90.0169 47.8516 89.9408 47.7286H89.853V51.295H88.8164ZM89.8354 45.392C89.8354 45.9015 89.9101 46.3509 90.0594 46.7404C90.2087 47.1269 90.4269 47.4299 90.7138 47.6495C91.0008 47.8662 91.3521 47.9746 91.7679 47.9746C92.2013 47.9746 92.5629 47.8604 92.8528 47.632C93.1456 47.4006 93.3652 47.0903 93.5116 46.7008C93.6609 46.3085 93.7356 45.8722 93.7356 45.392C93.7356 44.9176 93.6624 44.4901 93.516 44.1095C93.3725 43.7259 93.1544 43.4228 92.8616 43.2003C92.5717 42.9748 92.2071 42.8621 91.7679 42.8621C91.3463 42.8621 90.992 42.969 90.705 43.1827C90.4181 43.3935 90.2014 43.6893 90.055 44.0699C89.9086 44.4477 89.8354 44.8883 89.8354 45.392ZM97.2493 44.4608H99.1819C99.9725 44.4608 100.577 44.6614 100.996 45.0626C101.415 45.4637 101.624 45.9717 101.624 46.5866C101.624 46.9907 101.53 47.3582 101.343 47.6891C101.155 48.017 100.88 48.2791 100.517 48.4753C100.154 48.6685 99.7089 48.7651 99.1819 48.7651H96.3533V42.0188H97.3899V47.7989H99.1819C99.5918 47.7989 99.9285 47.6905 100.192 47.4738C100.456 47.2572 100.587 46.979 100.587 46.6393C100.587 46.2821 100.456 45.9908 100.192 45.7653C99.9285 45.5398 99.5918 45.4271 99.1819 45.4271H97.2493V44.4608ZM102.696 48.7651V42.0188H103.732V48.7651H102.696ZM106.666 47.2367L109.916 42.0188H111.111V48.7651H110.074V43.5473L106.842 48.7651H105.63V42.0188H106.666V47.2367ZM109.231 39.77H110.197C110.197 40.2444 110.033 40.6324 109.705 40.9339C109.378 41.2355 108.932 41.3863 108.37 41.3863C107.817 41.3863 107.376 41.2355 107.048 40.9339C106.723 40.6324 106.561 40.2444 106.561 39.77H107.527C107.527 39.9984 107.59 40.199 107.716 40.3717C107.845 40.5445 108.063 40.6309 108.37 40.6309C108.678 40.6309 108.897 40.5445 109.029 40.3717C109.164 40.199 109.231 39.9984 109.231 39.77ZM115.768 50.6977V47.7989H116.33C116.468 47.6554 116.586 47.5002 116.686 47.3333C116.785 47.1664 116.872 46.9687 116.945 46.7404C117.021 46.509 117.085 46.2279 117.138 45.8971C117.191 45.5633 117.238 45.1607 117.279 44.6892L117.507 42.0188H121.794V47.7989H122.83V50.6977H121.794V48.7651H116.804V50.6977H115.768ZM117.507 47.7989H120.757V42.9851H118.473L118.298 44.6892C118.224 45.3949 118.134 46.0113 118.025 46.5383C117.917 47.0654 117.744 47.4856 117.507 47.7989ZM127.035 48.9057C126.385 48.9057 125.824 48.7622 125.352 48.4753C124.884 48.1854 124.522 47.7813 124.268 47.263C124.016 46.7418 123.89 46.1357 123.89 45.4447C123.89 44.7536 124.016 44.1446 124.268 43.6175C124.522 43.0876 124.877 42.6747 125.331 42.379C125.787 42.0803 126.32 41.931 126.929 41.931C127.281 41.931 127.628 41.9895 127.97 42.1066C128.313 42.2238 128.625 42.4141 128.906 42.6776C129.187 42.9382 129.411 43.2837 129.578 43.7142C129.745 44.1446 129.828 44.6746 129.828 45.3041V45.7433H124.628V44.8473H128.774C128.774 44.4667 128.698 44.127 128.546 43.8284C128.396 43.5297 128.182 43.294 127.904 43.1212C127.629 42.9485 127.304 42.8621 126.929 42.8621C126.516 42.8621 126.159 42.9646 125.858 43.1695C125.559 43.3716 125.329 43.6351 125.168 43.9601C125.007 44.2851 124.926 44.6336 124.926 45.0055V45.6028C124.926 46.1123 125.014 46.5442 125.19 46.8985C125.369 47.2498 125.616 47.5178 125.932 47.7022C126.248 47.8838 126.616 47.9746 127.035 47.9746C127.307 47.9746 127.553 47.9365 127.773 47.8604C127.995 47.7813 128.187 47.6642 128.348 47.509C128.509 47.3509 128.633 47.1547 128.721 46.9204L129.723 47.2015C129.617 47.5412 129.44 47.8399 129.191 48.0975C128.942 48.3523 128.635 48.5514 128.269 48.6949C127.903 48.8354 127.491 48.9057 127.035 48.9057ZM135.92 44.9176V45.8839H132.195V44.9176H135.92ZM132.441 42.0188V48.7651H131.405V42.0188H132.441ZM136.711 42.0188V48.7651H135.674V42.0188H136.711ZM139.5 44.4608H141.432C142.223 44.4608 142.827 44.6614 143.246 45.0626C143.665 45.4637 143.874 45.9717 143.874 46.5866C143.874 46.9907 143.78 47.3582 143.593 47.6891C143.406 48.017 143.13 48.2791 142.767 48.4753C142.404 48.6685 141.959 48.7651 141.432 48.7651H138.604V42.0188H139.64V47.7989H141.432C141.842 47.7989 142.179 47.6905 142.442 47.4738C142.706 47.2572 142.838 46.979 142.838 46.6393C142.838 46.2821 142.706 45.9908 142.442 45.7653C142.179 45.5398 141.842 45.4271 141.432 45.4271H139.5V44.4608ZM146.822 39.77L146.735 46.2353H145.716L145.628 39.77H146.822ZM146.225 48.8354C146.008 48.8354 145.822 48.7578 145.667 48.6026C145.512 48.4474 145.434 48.2615 145.434 48.0448C145.434 47.8281 145.512 47.6422 145.667 47.487C145.822 47.3318 146.008 47.2542 146.225 47.2542C146.442 47.2542 146.628 47.3318 146.783 47.487C146.938 47.6422 147.016 47.8281 147.016 48.0448C147.016 48.1883 146.979 48.3201 146.906 48.4401C146.836 48.5602 146.74 48.6568 146.62 48.73C146.503 48.8003 146.371 48.8354 146.225 48.8354ZM159.242 39.77V48.7651H158.153V40.7363H153.62V48.7651H152.531V39.77H159.242ZM164.04 48.9057C163.431 48.9057 162.896 48.7607 162.436 48.4709C161.98 48.181 161.622 47.7754 161.365 47.2542C161.11 46.733 160.983 46.124 160.983 45.4271C160.983 44.7244 161.11 44.1109 161.365 43.5868C161.622 43.0627 161.98 42.6557 162.436 42.3658C162.896 42.0759 163.431 41.931 164.04 41.931C164.649 41.931 165.182 42.0759 165.638 42.3658C166.098 42.6557 166.455 43.0627 166.71 43.5868C166.968 44.1109 167.096 44.7244 167.096 45.4271C167.096 46.124 166.968 46.733 166.71 47.2542C166.455 47.7754 166.098 48.181 165.638 48.4709C165.182 48.7607 164.649 48.9057 164.04 48.9057ZM164.04 47.9746C164.502 47.9746 164.883 47.856 165.182 47.6188C165.48 47.3816 165.701 47.0698 165.845 46.6833C165.988 46.2968 166.06 45.878 166.06 45.4271C166.06 44.9762 165.988 44.556 165.845 44.1666C165.701 43.7771 165.48 43.4624 165.182 43.2223C164.883 42.9821 164.502 42.8621 164.04 42.8621C163.577 42.8621 163.196 42.9821 162.898 43.2223C162.599 43.4624 162.378 43.7771 162.234 44.1666C162.091 44.556 162.019 44.9762 162.019 45.4271C162.019 45.878 162.091 46.2968 162.234 46.6833C162.378 47.0698 162.599 47.3816 162.898 47.6188C163.196 47.856 163.577 47.9746 164.04 47.9746ZM167.958 50.6977V47.7989H168.521C168.658 47.6554 168.777 47.5002 168.876 47.3333C168.976 47.1664 169.062 46.9687 169.136 46.7404C169.212 46.509 169.276 46.2279 169.329 45.8971C169.382 45.5633 169.428 45.1607 169.469 44.6892L169.698 42.0188H173.984V47.7989H175.021V50.6977H173.984V48.7651H168.995V50.6977H167.958ZM169.698 47.7989H172.948V42.9851H170.664L170.488 44.6892C170.415 45.3949 170.324 46.0113 170.216 46.5383C170.108 47.0654 169.935 47.4856 169.698 47.7989ZM179.138 48.9057C178.505 48.9057 177.96 48.7564 177.504 48.4577C177.047 48.159 176.696 47.7476 176.45 47.2235C176.204 46.6994 176.081 46.1006 176.081 45.4271C176.081 44.7419 176.207 44.1373 176.458 43.6132C176.713 43.0861 177.067 42.6747 177.521 42.379C177.978 42.0803 178.511 41.931 179.12 41.931C179.594 41.931 180.022 42.0188 180.402 42.1945C180.783 42.3702 181.095 42.6161 181.338 42.9324C181.581 43.2486 181.732 43.6175 181.79 44.0392H180.754C180.675 43.7317 180.499 43.4594 180.227 43.2223C179.957 42.9821 179.594 42.8621 179.138 42.8621C178.733 42.8621 178.379 42.9675 178.075 43.1783C177.773 43.3862 177.537 43.6805 177.368 44.0612C177.201 44.4389 177.117 44.8825 177.117 45.392C177.117 45.9132 177.199 46.367 177.363 46.7535C177.53 47.14 177.764 47.4402 178.066 47.6539C178.37 47.8677 178.728 47.9746 179.138 47.9746C179.407 47.9746 179.651 47.9277 179.871 47.834C180.091 47.7403 180.277 47.6056 180.429 47.4299C180.581 47.2542 180.689 47.0434 180.754 46.7975H181.79C181.732 47.1957 181.587 47.5544 181.356 47.8735C181.127 48.1898 180.824 48.4416 180.446 48.629C180.072 48.8135 179.635 48.9057 179.138 48.9057ZM183.306 48.7651V42.0188H184.342V44.9528H185.027L187.452 42.0188H188.787L186.064 45.269L188.822 48.7651H187.487L185.273 45.919H184.342V48.7651H183.306ZM191.934 48.9233C191.507 48.9233 191.119 48.8427 190.77 48.6817C190.422 48.5177 190.145 48.282 189.94 47.9746C189.735 47.6642 189.633 47.2894 189.633 46.8502C189.633 46.4637 189.709 46.1503 189.861 45.9102C190.013 45.6672 190.217 45.4769 190.471 45.3393C190.726 45.2016 191.007 45.0992 191.315 45.0318C191.625 44.9615 191.937 44.9059 192.25 44.8649C192.66 44.8122 192.993 44.7727 193.247 44.7463C193.505 44.717 193.692 44.6687 193.81 44.6014C193.93 44.534 193.99 44.4169 193.99 44.25V44.2149C193.99 43.7815 193.871 43.4448 193.634 43.2047C193.4 42.9646 193.044 42.8445 192.567 42.8445C192.072 42.8445 191.684 42.9529 191.403 43.1695C191.122 43.3862 190.924 43.6175 190.81 43.8635L189.826 43.5121C190.002 43.1022 190.236 42.783 190.529 42.5546C190.824 42.3233 191.146 42.1623 191.495 42.0715C191.846 41.9778 192.192 41.931 192.531 41.931C192.748 41.931 192.997 41.9573 193.278 42.01C193.562 42.0598 193.836 42.1637 194.099 42.3219C194.366 42.48 194.587 42.7186 194.763 43.0378C194.938 43.3569 195.026 43.7844 195.026 44.3203V48.7651H193.99V47.8516H193.937C193.867 47.998 193.749 48.1546 193.586 48.3215C193.422 48.4884 193.203 48.6304 192.931 48.7476C192.659 48.8647 192.326 48.9233 191.934 48.9233ZM192.092 47.9921C192.502 47.9921 192.848 47.9116 193.129 47.7506C193.413 47.5895 193.627 47.3816 193.77 47.1269C193.916 46.8721 193.99 46.6042 193.99 46.3231V45.3744C193.946 45.4271 193.849 45.4754 193.7 45.5193C193.553 45.5603 193.383 45.5969 193.19 45.6291C193 45.6584 192.814 45.6848 192.632 45.7082C192.454 45.7287 192.309 45.7463 192.198 45.7609C191.928 45.796 191.676 45.8531 191.442 45.9322C191.211 46.0083 191.023 46.124 190.88 46.2792C190.739 46.4314 190.669 46.6393 190.669 46.9029C190.669 47.263 190.802 47.5353 191.069 47.7198C191.338 47.9013 191.679 47.9921 192.092 47.9921ZM196.496 48.7651L199.237 45.3393L196.532 42.0188H197.761L200.01 44.9001H200.572V42.0188H201.609V44.9001H202.153L204.402 42.0188H205.632L202.944 45.3393L205.667 48.7651H204.42L202.136 45.8663H201.609V48.7651H200.572V45.8663H200.045L197.744 48.7651H196.496ZM208.185 47.2367L211.435 42.0188H212.63V48.7651H211.593V43.5473L208.361 48.7651H207.148V42.0188H208.185V47.2367ZM213.61 42.9851V42.0188H219.092V42.9851H216.878V48.7651H215.842V42.9851H213.61ZM223.082 48.9057C222.432 48.9057 221.871 48.7622 221.4 48.4753C220.931 48.1854 220.57 47.7813 220.315 47.263C220.063 46.7418 219.937 46.1357 219.937 45.4447C219.937 44.7536 220.063 44.1446 220.315 43.6175C220.57 43.0876 220.924 42.6747 221.378 42.379C221.835 42.0803 222.368 41.931 222.977 41.931C223.328 41.931 223.675 41.9895 224.018 42.1066C224.36 42.2238 224.672 42.4141 224.953 42.6776C225.234 42.9382 225.458 43.2837 225.625 43.7142C225.792 44.1446 225.875 44.6746 225.875 45.3041V45.7433H220.675V44.8473H224.821C224.821 44.4667 224.745 44.127 224.593 43.8284C224.444 43.5297 224.23 43.294 223.952 43.1212C223.676 42.9485 223.351 42.8621 222.977 42.8621C222.564 42.8621 222.207 42.9646 221.905 43.1695C221.606 43.3716 221.376 43.6351 221.215 43.9601C221.054 44.2851 220.974 44.6336 220.974 45.0055V45.6028C220.974 46.1123 221.062 46.5442 221.237 46.8985C221.416 47.2498 221.663 47.5178 221.98 47.7022C222.296 47.8838 222.663 47.9746 223.082 47.9746C223.354 47.9746 223.6 47.9365 223.82 47.8604C224.042 47.7813 224.234 47.6642 224.395 47.509C224.556 47.3509 224.681 47.1547 224.769 46.9204L225.77 47.2015C225.665 47.5412 225.487 47.8399 225.239 48.0975C224.99 48.3523 224.682 48.5514 224.316 48.6949C223.95 48.8354 223.539 48.9057 223.082 48.9057ZM228.998 47.5353L228.928 48.0097C228.878 48.3435 228.802 48.7007 228.7 49.0814C228.6 49.462 228.496 49.8207 228.388 50.1574C228.279 50.4942 228.19 50.7621 228.12 50.9612H227.329C227.367 50.7738 227.417 50.5264 227.479 50.2189C227.54 49.9115 227.602 49.5674 227.663 49.1868C227.727 48.8091 227.78 48.4225 227.821 48.0273L227.874 47.5353H228.998ZM64.8529 63.7651V57.0188H70.1586V63.7651H69.122V57.9851H65.8894V63.7651H64.8529ZM74.7923 63.9057C74.1833 63.9057 73.6489 63.7607 73.1892 63.4709C72.7324 63.181 72.3752 62.7754 72.1175 62.2542C71.8627 61.733 71.7354 61.124 71.7354 60.4271C71.7354 59.7244 71.8627 59.1109 72.1175 58.5868C72.3752 58.0627 72.7324 57.6557 73.1892 57.3658C73.6489 57.0759 74.1833 56.931 74.7923 56.931C75.4013 56.931 75.9343 57.0759 76.391 57.3658C76.8508 57.6557 77.208 58.0627 77.4627 58.5868C77.7204 59.1109 77.8492 59.7244 77.8492 60.4271C77.8492 61.124 77.7204 61.733 77.4627 62.2542C77.208 62.7754 76.8508 63.181 76.391 63.4709C75.9343 63.7607 75.4013 63.9057 74.7923 63.9057ZM74.7923 62.9746C75.2549 62.9746 75.6356 62.856 75.9343 62.6188C76.2329 62.3816 76.454 62.0698 76.5975 61.6833C76.7409 61.2968 76.8127 60.878 76.8127 60.4271C76.8127 59.9762 76.7409 59.556 76.5975 59.1666C76.454 58.7771 76.2329 58.4624 75.9343 58.2223C75.6356 57.9821 75.2549 57.8621 74.7923 57.8621C74.3297 57.8621 73.949 57.9821 73.6503 58.2223C73.3517 58.4624 73.1306 58.7771 72.9871 59.1666C72.8437 59.556 72.7719 59.9762 72.7719 60.4271C72.7719 60.878 72.8437 61.2968 72.9871 61.6833C73.1306 62.0698 73.3517 62.3816 73.6503 62.6188C73.949 62.856 74.3297 62.9746 74.7923 62.9746ZM78.7321 63.7651L81.4727 60.3393L78.7672 57.0188H79.997L82.2458 59.9001H82.808V57.0188H83.8445V59.9001H84.3891L86.6379 57.0188H87.8677L85.1797 60.3393L87.9028 63.7651H86.6555L84.3716 60.8663H83.8445V63.7651H82.808V60.8663H82.2809L79.9794 63.7651H78.7321ZM91.3693 63.9233C90.9418 63.9233 90.5539 63.8427 90.2054 63.6817C89.857 63.5177 89.5803 63.282 89.3753 62.9746C89.1703 62.6642 89.0679 62.2894 89.0679 61.8502C89.0679 61.4637 89.144 61.1503 89.2963 60.9102C89.4485 60.6672 89.652 60.4769 89.9068 60.3393C90.1615 60.2016 90.4426 60.0992 90.7501 60.0318C91.0604 59.9615 91.3723 59.9059 91.6856 59.8649C92.0955 59.8122 92.4279 59.7727 92.6826 59.7463C92.9403 59.717 93.1277 59.6687 93.2448 59.6014C93.3648 59.534 93.4249 59.4169 93.4249 59.25V59.2149C93.4249 58.7815 93.3063 58.4448 93.0691 58.2047C92.8349 57.9646 92.4791 57.8445 92.0018 57.8445C91.507 57.8445 91.119 57.9529 90.8379 58.1695C90.5568 58.3862 90.3592 58.6175 90.245 58.8635L89.2611 58.5121C89.4368 58.1022 89.6711 57.783 89.9639 57.5546C90.2596 57.3233 90.5817 57.1623 90.9301 57.0715C91.2815 56.9778 91.627 56.931 91.9667 56.931C92.1834 56.931 92.4322 56.9573 92.7133 57.01C92.9974 57.0598 93.2711 57.1637 93.5347 57.3219C93.8011 57.48 94.0222 57.7186 94.1979 58.0378C94.3736 58.3569 94.4614 58.7844 94.4614 59.3203V63.7651H93.4249V62.8516H93.3722C93.3019 62.998 93.1848 63.1546 93.0208 63.3215C92.8568 63.4884 92.6387 63.6304 92.3664 63.7476C92.0941 63.8647 91.7617 63.9233 91.3693 63.9233ZM91.5275 62.9921C91.9374 62.9921 92.2829 62.9116 92.564 62.7506C92.848 62.5895 93.0618 62.3816 93.2053 62.1269C93.3517 61.8721 93.4249 61.6042 93.4249 61.3231V60.3744C93.381 60.4271 93.2843 60.4754 93.135 60.5193C92.9886 60.5603 92.8188 60.5969 92.6255 60.6291C92.4352 60.6584 92.2492 60.6848 92.0677 60.7082C91.8891 60.7287 91.7441 60.7463 91.6329 60.7609C91.3635 60.796 91.1117 60.8531 90.8774 60.9322C90.6461 61.0083 90.4587 61.124 90.3152 61.2792C90.1747 61.4314 90.1044 61.6393 90.1044 61.9029C90.1044 62.263 90.2376 62.5353 90.5041 62.7198C90.7735 62.9013 91.1146 62.9921 91.5275 62.9921ZM95.756 63.7651V62.7989H96.002C96.204 62.7989 96.3724 62.7593 96.5071 62.6803C96.6417 62.5983 96.7501 62.4563 96.8321 62.2542C96.917 62.0493 96.9814 61.7652 97.0253 61.4022C97.0722 61.0362 97.1059 60.5706 97.1263 60.0055L97.2493 57.0188H101.747V63.7651H100.71V57.9851H98.2332L98.1278 60.392C98.1043 60.9454 98.0546 61.4329 97.9784 61.8546C97.9052 62.2733 97.7925 62.6246 97.6402 62.9087C97.4909 63.1927 97.2918 63.4064 97.0429 63.5499C96.794 63.6934 96.4822 63.7651 96.1074 63.7651H95.756ZM104.075 66.295C103.899 66.295 103.742 66.2804 103.605 66.2511C103.467 66.2247 103.372 66.1984 103.319 66.172L103.583 65.2585C103.835 65.3229 104.057 65.3463 104.25 65.3287C104.444 65.3112 104.615 65.2248 104.764 65.0696C104.917 64.9173 105.056 64.6699 105.182 64.3273L105.375 63.8003L102.88 57.0188H104.004L105.867 62.3948H105.937L107.799 57.0188H108.924L106.06 64.749C105.931 65.0974 105.772 65.3858 105.581 65.6142C105.391 65.8455 105.17 66.0168 104.918 66.1281C104.669 66.2394 104.388 66.295 104.075 66.295ZM111.328 62.2367L114.579 57.0188H115.773V63.7651H114.737V58.5473L111.504 63.7651H110.292V57.0188H111.328V62.2367ZM113.893 54.77H114.86C114.86 55.2444 114.696 55.6324 114.368 55.9339C114.04 56.2355 113.595 56.3863 113.032 56.3863C112.479 56.3863 112.038 56.2355 111.71 55.9339C111.385 55.6324 111.223 55.2444 111.223 54.77H112.189C112.189 54.9984 112.252 55.199 112.378 55.3717C112.507 55.5445 112.725 55.6309 113.032 55.6309C113.34 55.6309 113.56 55.5445 113.691 55.3717C113.826 55.199 113.893 54.9984 113.893 54.77ZM120.412 63.9057C119.78 63.9057 119.235 63.7564 118.779 63.4577C118.322 63.159 117.97 62.7476 117.724 62.2235C117.478 61.6994 117.355 61.1006 117.355 60.4271C117.355 59.7419 117.481 59.1373 117.733 58.6132C117.988 58.0861 118.342 57.6747 118.796 57.379C119.253 57.0803 119.786 56.931 120.395 56.931C120.869 56.931 121.297 57.0188 121.677 57.1945C122.058 57.3702 122.37 57.6161 122.613 57.9324C122.856 58.2486 123.007 58.6175 123.065 59.0392H122.029C121.95 58.7317 121.774 58.4594 121.502 58.2223C121.232 57.9821 120.869 57.8621 120.412 57.8621C120.008 57.8621 119.654 57.9675 119.349 58.1783C119.048 58.3862 118.812 58.6805 118.642 59.0612C118.475 59.4389 118.392 59.8825 118.392 60.392C118.392 60.9132 118.474 61.367 118.638 61.7535C118.805 62.14 119.039 62.4402 119.341 62.6539C119.645 62.8677 120.002 62.9746 120.412 62.9746C120.682 62.9746 120.926 62.9277 121.146 62.834C121.365 62.7403 121.551 62.6056 121.704 62.4299C121.856 62.2542 121.964 62.0434 122.029 61.7975H123.065C123.007 62.1957 122.862 62.5544 122.63 62.8735C122.402 63.1898 122.099 63.4416 121.721 63.629C121.346 63.8135 120.91 63.9057 120.412 63.9057ZM124.049 57.9851V57.0188H129.53V57.9851H127.317V63.7651H126.28V57.9851H124.049ZM132.677 63.9233C132.25 63.9233 131.862 63.8427 131.514 63.6817C131.165 63.5177 130.888 63.282 130.683 62.9746C130.478 62.6642 130.376 62.2894 130.376 61.8502C130.376 61.4637 130.452 61.1503 130.604 60.9102C130.757 60.6672 130.96 60.4769 131.215 60.3393C131.47 60.2016 131.751 60.0992 132.058 60.0318C132.369 59.9615 132.68 59.9059 132.994 59.8649C133.404 59.8122 133.736 59.7727 133.991 59.7463C134.248 59.717 134.436 59.6687 134.553 59.6014C134.673 59.534 134.733 59.4169 134.733 59.25V59.2149C134.733 58.7815 134.614 58.4448 134.377 58.2047C134.143 57.9646 133.787 57.8445 133.31 57.8445C132.815 57.8445 132.427 57.9529 132.146 58.1695C131.865 58.3862 131.667 58.6175 131.553 58.8635L130.569 58.5121C130.745 58.1022 130.979 57.783 131.272 57.5546C131.568 57.3233 131.89 57.1623 132.238 57.0715C132.59 56.9778 132.935 56.931 133.275 56.931C133.491 56.931 133.74 56.9573 134.021 57.01C134.305 57.0598 134.579 57.1637 134.843 57.3219C135.109 57.48 135.33 57.7186 135.506 58.0378C135.682 58.3569 135.77 58.7844 135.77 59.3203V63.7651H134.733V62.8516H134.68C134.61 62.998 134.493 63.1546 134.329 63.3215C134.165 63.4884 133.947 63.6304 133.674 63.7476C133.402 63.8647 133.07 63.9233 132.677 63.9233ZM132.836 62.9921C133.246 62.9921 133.591 62.9116 133.872 62.7506C134.156 62.5895 134.37 62.3816 134.513 62.1269C134.66 61.8721 134.733 61.6042 134.733 61.3231V60.3744C134.689 60.4271 134.592 60.4754 134.443 60.5193C134.297 60.5603 134.127 60.5969 133.934 60.6291C133.743 60.6584 133.557 60.6848 133.376 60.7082C133.197 60.7287 133.052 60.7463 132.941 60.7609C132.672 60.796 132.42 60.8531 132.186 60.9322C131.954 61.0083 131.767 61.124 131.623 61.2792C131.483 61.4314 131.413 61.6393 131.413 61.9029C131.413 62.263 131.546 62.5353 131.812 62.7198C132.082 62.9013 132.423 62.9921 132.836 62.9921ZM139.207 62.5353L139.137 63.0097C139.087 63.3435 139.011 63.7007 138.909 64.0814C138.809 64.462 138.705 64.8207 138.597 65.1574C138.489 65.4942 138.399 65.7621 138.329 65.9612H137.538C137.577 65.7738 137.626 65.5264 137.688 65.2189C137.749 64.9115 137.811 64.5674 137.872 64.1868C137.937 63.8091 137.989 63.4225 138.03 63.0273L138.083 62.5353H139.207ZM144.607 63.7651V57.0188H147.365C148.091 57.0188 148.668 57.1828 149.095 57.5107C149.523 57.8387 149.737 58.272 149.737 58.8108C149.737 59.2207 149.615 59.5384 149.372 59.7639C149.129 59.9864 148.817 60.1372 148.436 60.2163C148.685 60.2514 148.927 60.3393 149.161 60.4798C149.398 60.6204 149.595 60.8136 149.75 61.0596C149.905 61.3026 149.983 61.6013 149.983 61.9556C149.983 62.3011 149.895 62.61 149.719 62.8823C149.543 63.1546 149.291 63.3698 148.964 63.528C148.636 63.6861 148.243 63.7651 147.786 63.7651H144.607ZM145.59 62.8164H147.786C148.144 62.8164 148.423 62.7315 148.625 62.5617C148.827 62.3919 148.928 62.1605 148.928 61.8677C148.928 61.5193 148.827 61.2455 148.625 61.0464C148.423 60.8444 148.144 60.7433 147.786 60.7433H145.59V62.8164ZM145.59 59.8473H147.365C147.643 59.8473 147.882 59.8093 148.081 59.7331C148.28 59.6541 148.432 59.5428 148.537 59.3993C148.646 59.2529 148.7 59.0802 148.7 58.8811C148.7 58.597 148.581 58.3745 148.344 58.2135C148.107 58.0495 147.781 57.9675 147.365 57.9675H145.59V59.8473ZM155.03 63.7651V57.0188H156.067V59.9528H156.752L159.176 57.0188H160.512L157.788 60.269L160.547 63.7651H159.211L156.998 60.919H156.067V63.7651H155.03ZM163.659 63.9233C163.231 63.9233 162.843 63.8427 162.495 63.6817C162.146 63.5177 161.869 63.282 161.665 62.9746C161.46 62.6642 161.357 62.2894 161.357 61.8502C161.357 61.4637 161.433 61.1503 161.585 60.9102C161.738 60.6672 161.941 60.4769 162.196 60.3393C162.451 60.2016 162.732 60.0992 163.039 60.0318C163.35 59.9615 163.661 59.9059 163.975 59.8649C164.385 59.8122 164.717 59.7727 164.972 59.7463C165.229 59.717 165.417 59.6687 165.534 59.6014C165.654 59.534 165.714 59.4169 165.714 59.25V59.2149C165.714 58.7815 165.595 58.4448 165.358 58.2047C165.124 57.9646 164.768 57.8445 164.291 57.8445C163.796 57.8445 163.408 57.9529 163.127 58.1695C162.846 58.3862 162.648 58.6175 162.534 58.8635L161.55 58.5121C161.726 58.1022 161.96 57.783 162.253 57.5546C162.549 57.3233 162.871 57.1623 163.219 57.0715C163.571 56.9778 163.916 56.931 164.256 56.931C164.473 56.931 164.721 56.9573 165.003 57.01C165.287 57.0598 165.56 57.1637 165.824 57.3219C166.09 57.48 166.311 57.7186 166.487 58.0378C166.663 58.3569 166.751 58.7844 166.751 59.3203V63.7651H165.714V62.8516H165.661C165.591 62.998 165.474 63.1546 165.31 63.3215C165.146 63.4884 164.928 63.6304 164.656 63.7476C164.383 63.8647 164.051 63.9233 163.659 63.9233ZM163.817 62.9921C164.227 62.9921 164.572 62.9116 164.853 62.7506C165.137 62.5895 165.351 62.3816 165.494 62.1269C165.641 61.8721 165.714 61.6042 165.714 61.3231V60.3744C165.67 60.4271 165.574 60.4754 165.424 60.5193C165.278 60.5603 165.108 60.5969 164.915 60.6291C164.724 60.6584 164.538 60.6848 164.357 60.7082C164.178 60.7287 164.033 60.7463 163.922 60.7609C163.653 60.796 163.401 60.8531 163.167 60.9322C162.935 61.0083 162.748 61.124 162.604 61.2792C162.464 61.4314 162.394 61.6393 162.394 61.9029C162.394 62.263 162.527 62.5353 162.793 62.7198C163.063 62.9013 163.404 62.9921 163.817 62.9921ZM168.643 63.7651V57.0188H169.679V59.9528H170.364L172.789 57.0188H174.124L171.401 60.269L174.159 63.7651H172.824L170.61 60.919H169.679V63.7651H168.643ZM177.749 63.9057C177.139 63.9057 176.605 63.7607 176.145 63.4709C175.689 63.181 175.331 62.7754 175.074 62.2542C174.819 61.733 174.692 61.124 174.692 60.4271C174.692 59.7244 174.819 59.1109 175.074 58.5868C175.331 58.0627 175.689 57.6557 176.145 57.3658C176.605 57.0759 177.139 56.931 177.749 56.931C178.358 56.931 178.89 57.0759 179.347 57.3658C179.807 57.6557 180.164 58.0627 180.419 58.5868C180.677 59.1109 180.805 59.7244 180.805 60.4271C180.805 61.124 180.677 61.733 180.419 62.2542C180.164 62.7754 179.807 63.181 179.347 63.4709C178.89 63.7607 178.358 63.9057 177.749 63.9057ZM177.749 62.9746C178.211 62.9746 178.592 62.856 178.89 62.6188C179.189 62.3816 179.41 62.0698 179.554 61.6833C179.697 61.2968 179.769 60.878 179.769 60.4271C179.769 59.9762 179.697 59.556 179.554 59.1666C179.41 58.7771 179.189 58.4624 178.89 58.2223C178.592 57.9821 178.211 57.8621 177.749 57.8621C177.286 57.8621 176.905 57.9821 176.607 58.2223C176.308 58.4624 176.087 58.7771 175.943 59.1666C175.8 59.556 175.728 59.9762 175.728 60.4271C175.728 60.878 175.8 61.2968 175.943 61.6833C176.087 62.0698 176.308 62.3816 176.607 62.6188C176.905 62.856 177.286 62.9746 177.749 62.9746ZM185.216 63.9057C184.566 63.9057 184.006 63.7622 183.534 63.4753C183.066 63.1854 182.704 62.7813 182.449 62.263C182.197 61.7418 182.072 61.1357 182.072 60.4447C182.072 59.7536 182.197 59.1446 182.449 58.6175C182.704 58.0876 183.058 57.6747 183.512 57.379C183.969 57.0803 184.502 56.931 185.111 56.931C185.462 56.931 185.809 56.9895 186.152 57.1066C186.494 57.2238 186.806 57.4141 187.087 57.6776C187.368 57.9382 187.592 58.2837 187.759 58.7142C187.926 59.1446 188.01 59.6746 188.01 60.3041V60.7433H182.809V59.8473H186.956C186.956 59.4667 186.879 59.127 186.727 58.8284C186.578 58.5297 186.364 58.294 186.086 58.1212C185.811 57.9485 185.486 57.8621 185.111 57.8621C184.698 57.8621 184.341 57.9646 184.039 58.1695C183.741 58.3716 183.511 58.6351 183.35 58.9601C183.189 59.2851 183.108 59.6336 183.108 60.0055V60.6028C183.108 61.1123 183.196 61.5442 183.372 61.8985C183.55 62.2498 183.798 62.5178 184.114 62.7022C184.43 62.8838 184.798 62.9746 185.216 62.9746C185.489 62.9746 185.735 62.9365 185.954 62.8604C186.177 62.7813 186.368 62.6642 186.53 62.509C186.691 62.3509 186.815 62.1547 186.903 61.9204L187.904 62.2015C187.799 62.5412 187.622 62.8399 187.373 63.0975C187.124 63.3523 186.816 63.5514 186.45 63.6949C186.084 63.8354 185.673 63.9057 185.216 63.9057ZM193.065 63.7651V57.0188H195.823C196.549 57.0188 197.126 57.1828 197.554 57.5107C197.981 57.8387 198.195 58.272 198.195 58.8108C198.195 59.2207 198.074 59.5384 197.831 59.7639C197.587 59.9864 197.276 60.1372 196.895 60.2163C197.144 60.2514 197.385 60.3393 197.62 60.4798C197.857 60.6204 198.053 60.8136 198.208 61.0596C198.363 61.3026 198.441 61.6013 198.441 61.9556C198.441 62.3011 198.353 62.61 198.177 62.8823C198.002 63.1546 197.75 63.3698 197.422 63.528C197.094 63.6861 196.702 63.7651 196.245 63.7651H193.065ZM194.049 62.8164H196.245C196.602 62.8164 196.882 62.7315 197.084 62.5617C197.286 62.3919 197.387 62.1605 197.387 61.8677C197.387 61.5193 197.286 61.2455 197.084 61.0464C196.882 60.8444 196.602 60.7433 196.245 60.7433H194.049V62.8164ZM194.049 59.8473H195.823C196.101 59.8473 196.34 59.8093 196.539 59.7331C196.738 59.6541 196.891 59.5428 196.996 59.3993C197.104 59.2529 197.159 59.0802 197.159 58.8811C197.159 58.597 197.04 58.3745 196.803 58.2135C196.566 58.0495 196.239 57.9675 195.823 57.9675H194.049V59.8473ZM200.01 66.295V57.0188H201.012V58.0905H201.135C201.211 57.9734 201.316 57.824 201.451 57.6425C201.588 57.458 201.785 57.294 202.039 57.1506C202.297 57.0042 202.645 56.931 203.085 56.931C203.653 56.931 204.153 57.073 204.587 57.357C205.02 57.641 205.358 58.0436 205.601 58.5648C205.844 59.086 205.966 59.7009 205.966 60.4095C205.966 61.124 205.844 61.7433 205.601 62.2674C205.358 62.7886 205.022 63.1927 204.591 63.4796C204.161 63.7637 203.664 63.9057 203.102 63.9057C202.669 63.9057 202.322 63.8339 202.061 63.6905C201.801 63.5441 201.6 63.3786 201.46 63.1942C201.319 63.0068 201.211 62.8516 201.135 62.7286H201.047V66.295H200.01ZM201.029 60.392C201.029 60.9015 201.104 61.3509 201.253 61.7404C201.402 62.1269 201.621 62.4299 201.908 62.6495C202.194 62.8662 202.546 62.9746 202.962 62.9746C203.395 62.9746 203.757 62.8604 204.046 62.632C204.339 62.4006 204.559 62.0903 204.705 61.7008C204.855 61.3085 204.929 60.8722 204.929 60.392C204.929 59.9176 204.856 59.4901 204.71 59.1095C204.566 58.7259 204.348 58.4228 204.055 58.2003C203.765 57.9748 203.401 57.8621 202.962 57.8621C202.54 57.8621 202.186 57.969 201.899 58.1827C201.612 58.3935 201.395 58.6893 201.249 59.0699C201.102 59.4477 201.029 59.8883 201.029 60.392ZM210.376 63.9057C209.726 63.9057 209.165 63.7622 208.693 63.4753C208.225 63.1854 207.863 62.7813 207.609 62.263C207.357 61.7418 207.231 61.1357 207.231 60.4447C207.231 59.7536 207.357 59.1446 207.609 58.6175C207.863 58.0876 208.218 57.6747 208.671 57.379C209.128 57.0803 209.661 56.931 210.27 56.931C210.622 56.931 210.969 56.9895 211.311 57.1066C211.654 57.2238 211.966 57.4141 212.247 57.6776C212.528 57.9382 212.752 58.2837 212.919 58.7142C213.086 59.1446 213.169 59.6746 213.169 60.3041V60.7433H207.969V59.8473H212.115C212.115 59.4667 212.039 59.127 211.886 58.8284C211.737 58.5297 211.523 58.294 211.245 58.1212C210.97 57.9485 210.645 57.8621 210.27 57.8621C209.857 57.8621 209.5 57.9646 209.198 58.1695C208.9 58.3716 208.67 58.6351 208.509 58.9601C208.348 59.2851 208.267 59.6336 208.267 60.0055V60.6028C208.267 61.1123 208.355 61.5442 208.531 61.8985C208.71 62.2498 208.957 62.5178 209.273 62.7022C209.589 62.8838 209.957 62.9746 210.376 62.9746C210.648 62.9746 210.894 62.9365 211.113 62.8604C211.336 62.7813 211.528 62.6642 211.689 62.509C211.85 62.3509 211.974 62.1547 212.062 61.9204L213.064 62.2015C212.958 62.5412 212.781 62.8399 212.532 63.0975C212.283 63.3523 211.976 63.5514 211.61 63.6949C211.244 63.8354 210.832 63.9057 210.376 63.9057ZM218.435 62.3597L220.789 57.0188H221.773L218.857 63.7651H218.014L215.15 57.0188H216.116L218.435 62.3597ZM215.782 57.0188V63.7651H214.746V57.0188H215.782ZM221.088 63.7651V57.0188H222.125V63.7651H221.088ZM228.08 63.7651V57.9675H226.288C225.884 57.9675 225.567 58.0612 225.335 58.2486C225.104 58.436 224.988 58.6937 224.988 59.0216C224.988 59.3437 225.092 59.597 225.3 59.7815C225.511 59.9659 225.799 60.0582 226.165 60.0582H228.344V61.0244H226.165C225.709 61.0244 225.315 60.9439 224.984 60.7829C224.653 60.6218 224.398 60.392 224.22 60.0933C224.041 59.7917 223.952 59.4345 223.952 59.0216C223.952 58.6058 224.045 58.2486 224.233 57.9499C224.42 57.6513 224.688 57.4214 225.037 57.2604C225.388 57.0993 225.805 57.0188 226.288 57.0188H229.064V63.7651H228.08ZM223.583 63.7651L225.498 60.4095H226.622L224.707 63.7651H223.583ZM234.446 63.7651V57.0188H237.204C237.93 57.0188 238.507 57.1828 238.934 57.5107C239.362 57.8387 239.576 58.272 239.576 58.8108C239.576 59.2207 239.454 59.5384 239.211 59.7639C238.968 59.9864 238.656 60.1372 238.276 60.2163C238.524 60.2514 238.766 60.3393 239 60.4798C239.237 60.6204 239.434 60.8136 239.589 61.0596C239.744 61.3026 239.822 61.6013 239.822 61.9556C239.822 62.3011 239.734 62.61 239.558 62.8823C239.382 63.1546 239.131 63.3698 238.803 63.528C238.475 63.6861 238.082 63.7651 237.626 63.7651H234.446ZM235.429 62.8164H237.626C237.983 62.8164 238.262 62.7315 238.464 62.5617C238.666 62.3919 238.767 62.1605 238.767 61.8677C238.767 61.5193 238.666 61.2455 238.464 61.0464C238.262 60.8444 237.983 60.7433 237.626 60.7433H235.429V62.8164ZM235.429 59.8473H237.204C237.482 59.8473 237.721 59.8093 237.92 59.7331C238.119 59.6541 238.271 59.5428 238.377 59.3993C238.485 59.2529 238.539 59.0802 238.539 58.8811C238.539 58.597 238.421 58.3745 238.183 58.2135C237.946 58.0495 237.62 57.9675 237.204 57.9675H235.429V59.8473ZM242.287 59.4608H244.219C245.01 59.4608 245.614 59.6614 246.033 60.0626C246.452 60.4637 246.661 60.9717 246.661 61.5866C246.661 61.9907 246.568 62.3582 246.38 62.6891C246.193 63.017 245.918 63.2791 245.554 63.4753C245.191 63.6685 244.746 63.7651 244.219 63.7651H241.391V57.0188H242.427V62.7989H244.219C244.629 62.7989 244.966 62.6905 245.229 62.4738C245.493 62.2572 245.625 61.979 245.625 61.6393C245.625 61.2821 245.493 60.9908 245.229 60.7653C244.966 60.5398 244.629 60.4271 244.219 60.4271H242.287V59.4608ZM247.733 63.7651V57.0188H248.77V63.7651H247.733ZM64.8529 81.295V72.0188H65.8543V73.0905H65.9773C66.0534 72.9734 66.1588 72.824 66.2935 72.6425C66.4311 72.458 66.6273 72.294 66.882 72.1506C67.1397 72.0042 67.4882 71.931 67.9274 71.931C68.4954 71.931 68.9961 72.073 69.4295 72.357C69.8628 72.641 70.201 73.0436 70.4441 73.5648C70.6871 74.086 70.8086 74.7009 70.8086 75.4095C70.8086 76.124 70.6871 76.7433 70.4441 77.2674C70.201 77.7886 69.8643 78.1927 69.4339 78.4796C69.0035 78.7637 68.5071 78.9057 67.9449 78.9057C67.5116 78.9057 67.1646 78.8339 66.904 78.6905C66.6434 78.5441 66.4428 78.3786 66.3023 78.1942C66.1617 78.0068 66.0534 77.8516 65.9773 77.7286H65.8894V81.295H64.8529ZM65.8719 75.392C65.8719 75.9015 65.9465 76.3509 66.0959 76.7404C66.2452 77.1269 66.4633 77.4299 66.7503 77.6495C67.0372 77.8662 67.3886 77.9746 67.8044 77.9746C68.2378 77.9746 68.5994 77.8604 68.8893 77.632C69.1821 77.4006 69.4017 77.0903 69.5481 76.7008C69.6974 76.3085 69.7721 75.8722 69.7721 75.392C69.7721 74.9176 69.6989 74.4901 69.5525 74.1095C69.409 73.7259 69.1909 73.4228 68.898 73.2003C68.6082 72.9748 68.2436 72.8621 67.8044 72.8621C67.3828 72.8621 67.0285 72.969 66.7415 73.1827C66.4545 73.3935 66.2379 73.6893 66.0915 74.0699C65.9451 74.4477 65.8719 74.8883 65.8719 75.392ZM74.375 78.9233C73.9475 78.9233 73.5596 78.8427 73.2111 78.6817C72.8627 78.5177 72.586 78.282 72.381 77.9746C72.176 77.6642 72.0736 77.2894 72.0736 76.8502C72.0736 76.4637 72.1497 76.1503 72.302 75.9102C72.4542 75.6672 72.6577 75.4769 72.9125 75.3393C73.1672 75.2016 73.4483 75.0992 73.7558 75.0318C74.0661 74.9615 74.378 74.9059 74.6913 74.8649C75.1012 74.8122 75.4336 74.7727 75.6883 74.7463C75.946 74.717 76.1334 74.6687 76.2505 74.6014C76.3705 74.534 76.4306 74.4169 76.4306 74.25V74.2149C76.4306 73.7815 76.312 73.4448 76.0748 73.2047C75.8406 72.9646 75.4848 72.8445 75.0075 72.8445C74.5127 72.8445 74.1247 72.9529 73.8436 73.1695C73.5625 73.3862 73.3649 73.6175 73.2507 73.8635L72.2668 73.5121C72.4425 73.1022 72.6767 72.783 72.9696 72.5546C73.2653 72.3233 73.5874 72.1623 73.9358 72.0715C74.2872 71.9778 74.6327 71.931 74.9724 71.931C75.1891 71.931 75.4379 71.9573 75.719 72.01C76.0031 72.0598 76.2768 72.1637 76.5404 72.3219C76.8068 72.48 77.0279 72.7186 77.2036 73.0378C77.3793 73.3569 77.4671 73.7844 77.4671 74.3203V78.7651H76.4306V77.8516H76.3779C76.3076 77.998 76.1905 78.1546 76.0265 78.3215C75.8625 78.4884 75.6444 78.6304 75.3721 78.7476C75.0997 78.8647 74.7674 78.9233 74.375 78.9233ZM74.5332 77.9921C74.9431 77.9921 75.2886 77.9116 75.5697 77.7506C75.8537 77.5895 76.0675 77.3816 76.211 77.1269C76.3574 76.8721 76.4306 76.6042 76.4306 76.3231V75.3744C76.3866 75.4271 76.29 75.4754 76.1407 75.5193C75.9943 75.5603 75.8245 75.5969 75.6312 75.6291C75.4409 75.6584 75.2549 75.6848 75.0734 75.7082C74.8948 75.7287 74.7498 75.7463 74.6386 75.7609C74.3692 75.796 74.1174 75.8531 73.8831 75.9322C73.6518 76.0083 73.4644 76.124 73.3209 76.2792C73.1804 76.4314 73.1101 76.6393 73.1101 76.9029C73.1101 77.263 73.2433 77.5353 73.5098 77.7198C73.7792 77.9013 74.1203 77.9921 74.5332 77.9921ZM84.3661 69.4889L84.8931 70.1214C84.6882 70.3205 84.451 70.4596 84.1816 70.5387C83.9122 70.6177 83.6077 70.666 83.268 70.6836C82.9284 70.7012 82.5507 70.7187 82.1349 70.7363C81.6664 70.7539 81.2784 70.8681 80.9709 71.0789C80.6635 71.2897 80.4263 71.5942 80.2594 71.9925C80.0925 72.3907 79.9856 72.8797 79.9388 73.4594H80.0266C80.255 73.0378 80.5713 72.7274 80.9753 72.5283C81.3794 72.3292 81.8128 72.2296 82.2754 72.2296C82.8025 72.2296 83.2768 72.3526 83.6985 72.5986C84.1201 72.8445 84.4539 73.2091 84.6999 73.6922C84.9458 74.1753 85.0688 74.7712 85.0688 75.4798C85.0688 76.1855 84.9429 76.7945 84.6911 77.3069C84.4422 77.8194 84.0923 78.2147 83.6414 78.4928C83.1934 78.7681 82.6678 78.9057 82.0646 78.9057C81.4614 78.9057 80.9329 78.7637 80.479 78.4796C80.0252 78.1927 79.6723 77.7681 79.4205 77.2059C79.1687 76.6408 79.0428 75.9425 79.0428 75.1109V74.3906C79.0428 72.8884 79.2975 71.7494 79.807 70.9735C80.3194 70.1975 81.0895 69.7964 82.1173 69.77C82.4804 69.7583 82.8039 69.7554 83.088 69.7612C83.372 69.7671 83.6194 69.7539 83.8302 69.7217C84.0411 69.6895 84.2197 69.6119 84.3661 69.4889ZM82.0646 77.9746C82.4716 77.9746 82.8215 77.8721 83.1143 77.6671C83.4101 77.4621 83.637 77.1737 83.7951 76.8018C83.9532 76.4271 84.0323 75.9864 84.0323 75.4798C84.0323 74.9879 83.9517 74.5692 83.7907 74.2237C83.6326 73.8781 83.4057 73.6146 83.1099 73.4331C82.8142 73.2515 82.4599 73.1608 82.047 73.1608C81.7454 73.1608 81.4746 73.212 81.2345 73.3145C80.9944 73.417 80.7894 73.5678 80.6196 73.7669C80.4497 73.966 80.318 74.209 80.2243 74.496C80.1335 74.7829 80.0852 75.1109 80.0793 75.4798C80.0793 76.2353 80.2565 76.8399 80.6108 77.2938C80.9651 77.7476 81.4497 77.9746 82.0646 77.9746ZM89.3951 78.9057C88.786 78.9057 88.2517 78.7607 87.7919 78.4709C87.3352 78.181 86.9779 77.7754 86.7203 77.2542C86.4655 76.733 86.3381 76.124 86.3381 75.4271C86.3381 74.7244 86.4655 74.1109 86.7203 73.5868C86.9779 73.0627 87.3352 72.6557 87.7919 72.3658C88.2517 72.0759 88.786 71.931 89.3951 71.931C90.0041 71.931 90.537 72.0759 90.9938 72.3658C91.4535 72.6557 91.8108 73.0627 92.0655 73.5868C92.3232 74.1109 92.452 74.7244 92.452 75.4271C92.452 76.124 92.3232 76.733 92.0655 77.2542C91.8108 77.7754 91.4535 78.181 90.9938 78.4709C90.537 78.7607 90.0041 78.9057 89.3951 78.9057ZM89.3951 77.9746C89.8577 77.9746 90.2384 77.856 90.537 77.6188C90.8357 77.3816 91.0568 77.0698 91.2002 76.6833C91.3437 76.2968 91.4155 75.878 91.4155 75.4271C91.4155 74.9762 91.3437 74.556 91.2002 74.1666C91.0568 73.7771 90.8357 73.4624 90.537 73.2223C90.2384 72.9821 89.8577 72.8621 89.3951 72.8621C88.9324 72.8621 88.5518 72.9821 88.2531 73.2223C87.9545 73.4624 87.7334 73.7771 87.5899 74.1666C87.4464 74.556 87.3747 74.9762 87.3747 75.4271C87.3747 75.878 87.4464 76.2968 87.5899 76.6833C87.7334 77.0698 87.9545 77.3816 88.2531 77.6188C88.5518 77.856 88.9324 77.9746 89.3951 77.9746ZM93.1526 72.9851V72.0188H98.634V72.9851H96.4203V78.7651H95.3838V72.9851H93.1526ZM101.781 78.9233C101.353 78.9233 100.965 78.8427 100.617 78.6817C100.269 78.5177 99.9919 78.282 99.7869 77.9746C99.5819 77.6642 99.4794 77.2894 99.4794 76.8502C99.4794 76.4637 99.5556 76.1503 99.7078 75.9102C99.8601 75.6672 100.064 75.4769 100.318 75.3393C100.573 75.2016 100.854 75.0992 101.162 75.0318C101.472 74.9615 101.784 74.9059 102.097 74.8649C102.507 74.8122 102.839 74.7727 103.094 74.7463C103.352 74.717 103.539 74.6687 103.656 74.6014C103.776 74.534 103.836 74.4169 103.836 74.25V74.2149C103.836 73.7815 103.718 73.4448 103.481 73.2047C103.246 72.9646 102.891 72.8445 102.413 72.8445C101.919 72.8445 101.531 72.9529 101.249 73.1695C100.968 73.3862 100.771 73.6175 100.657 73.8635L99.6727 73.5121C99.8484 73.1022 100.083 72.783 100.375 72.5546C100.671 72.3233 100.993 72.1623 101.342 72.0715C101.693 71.9778 102.039 71.931 102.378 71.931C102.595 71.931 102.844 71.9573 103.125 72.01C103.409 72.0598 103.683 72.1637 103.946 72.3219C104.213 72.48 104.434 72.7186 104.609 73.0378C104.785 73.3569 104.873 73.7844 104.873 74.3203V78.7651H103.836V77.8516H103.784C103.713 77.998 103.596 78.1546 103.432 78.3215C103.268 78.4884 103.05 78.6304 102.778 78.7476C102.506 78.8647 102.173 78.9233 101.781 78.9233ZM101.939 77.9921C102.349 77.9921 102.694 77.9116 102.976 77.7506C103.26 77.5895 103.473 77.3816 103.617 77.1269C103.763 76.8721 103.836 76.6042 103.836 76.3231V75.3744C103.793 75.4271 103.696 75.4754 103.547 75.5193C103.4 75.5603 103.23 75.5969 103.037 75.6291C102.847 75.6584 102.661 75.6848 102.479 75.7082C102.301 75.7287 102.156 75.7463 102.044 75.7609C101.775 75.796 101.523 75.8531 101.289 75.9322C101.058 76.0083 100.87 76.124 100.727 76.2792C100.586 76.4314 100.516 76.6393 100.516 76.9029C100.516 77.263 100.649 77.5353 100.916 77.7198C101.185 77.9013 101.526 77.9921 101.939 77.9921ZM109.593 78.9057C108.943 78.9057 108.383 78.7622 107.911 78.4753C107.443 78.1854 107.081 77.7813 106.826 77.263C106.575 76.7418 106.449 76.1357 106.449 75.4447C106.449 74.7536 106.575 74.1446 106.826 73.6175C107.081 73.0876 107.435 72.6747 107.889 72.379C108.346 72.0803 108.879 71.931 109.488 71.931C109.839 71.931 110.186 71.9895 110.529 72.1066C110.872 72.2238 111.183 72.4141 111.465 72.6776C111.746 72.9382 111.97 73.2837 112.136 73.7142C112.303 74.1446 112.387 74.6746 112.387 75.3041V75.7433H107.187V74.8473H111.333C111.333 74.4667 111.257 74.127 111.104 73.8284C110.955 73.5297 110.741 73.294 110.463 73.1212C110.188 72.9485 109.863 72.8621 109.488 72.8621C109.075 72.8621 108.718 72.9646 108.416 73.1695C108.118 73.3716 107.888 73.6351 107.727 73.9601C107.566 74.2851 107.485 74.6336 107.485 75.0055V75.6028C107.485 76.1123 107.573 76.5442 107.749 76.8985C107.927 77.2498 108.175 77.5178 108.491 77.7022C108.807 77.8838 109.175 77.9746 109.593 77.9746C109.866 77.9746 110.112 77.9365 110.331 77.8604C110.554 77.7813 110.746 77.6642 110.907 77.509C111.068 77.3509 111.192 77.1547 111.28 76.9204L112.281 77.2015C112.176 77.5412 111.999 77.8399 111.75 78.0975C111.501 78.3523 111.194 78.5514 110.828 78.6949C110.462 78.8354 110.05 78.9057 109.593 78.9057ZM113.336 72.9851V72.0188H118.817V72.9851H116.603V78.7651H115.567V72.9851H113.336ZM122.807 78.9057C122.157 78.9057 121.596 78.7622 121.125 78.4753C120.657 78.1854 120.295 77.7813 120.04 77.263C119.788 76.7418 119.662 76.1357 119.662 75.4447C119.662 74.7536 119.788 74.1446 120.04 73.6175C120.295 73.0876 120.649 72.6747 121.103 72.379C121.56 72.0803 122.093 71.931 122.702 71.931C123.053 71.931 123.4 71.9895 123.743 72.1066C124.085 72.2238 124.397 72.4141 124.678 72.6776C124.959 72.9382 125.183 73.2837 125.35 73.7142C125.517 74.1446 125.601 74.6746 125.601 75.3041V75.7433H120.4V74.8473H124.547C124.547 74.4667 124.47 74.127 124.318 73.8284C124.169 73.5297 123.955 73.294 123.677 73.1212C123.402 72.9485 123.077 72.8621 122.702 72.8621C122.289 72.8621 121.932 72.9646 121.63 73.1695C121.331 73.3716 121.102 73.6351 120.941 73.9601C120.78 74.2851 120.699 74.6336 120.699 75.0055V75.6028C120.699 76.1123 120.787 76.5442 120.963 76.8985C121.141 77.2498 121.389 77.5178 121.705 77.7022C122.021 77.8838 122.388 77.9746 122.807 77.9746C123.08 77.9746 123.325 77.9365 123.545 77.8604C123.768 77.7813 123.959 77.6642 124.12 77.509C124.282 77.3509 124.406 77.1547 124.494 76.9204L125.495 77.2015C125.39 77.5412 125.213 77.8399 124.964 78.0975C124.715 78.3523 124.407 78.5514 124.041 78.6949C123.675 78.8354 123.264 78.9057 122.807 78.9057ZM128.53 76.2353V76.1826C128.536 75.6233 128.595 75.1782 128.706 74.8473C128.817 74.5165 128.975 74.2485 129.18 74.0436C129.385 73.8386 129.631 73.6498 129.918 73.477C130.091 73.3716 130.246 73.2471 130.384 73.1037C130.521 72.9573 130.63 72.7889 130.709 72.5986C130.791 72.4082 130.832 72.1974 130.832 71.9661C130.832 71.6791 130.764 71.4303 130.63 71.2194C130.495 71.0086 130.315 70.8461 130.089 70.7319C129.864 70.6177 129.614 70.5606 129.338 70.5606C129.098 70.5606 128.867 70.6104 128.644 70.7099C128.422 70.8095 128.236 70.9662 128.087 71.1799C127.937 71.3937 127.851 71.6733 127.827 72.0188H126.721C126.744 71.521 126.873 71.095 127.107 70.7407C127.344 70.3864 127.656 70.1155 128.043 69.9281C128.432 69.7407 128.864 69.647 129.338 69.647C129.854 69.647 130.302 69.7495 130.682 69.9545C131.066 70.1595 131.362 70.4406 131.57 70.7978C131.78 71.155 131.886 71.562 131.886 72.0188C131.886 72.3409 131.836 72.6322 131.736 72.8928C131.64 73.1534 131.499 73.3862 131.315 73.5912C131.133 73.7962 130.914 73.9777 130.656 74.1358C130.398 74.2969 130.192 74.4667 130.037 74.6453C129.881 74.821 129.769 75.0304 129.698 75.2734C129.628 75.5164 129.59 75.8195 129.584 76.1826V76.2353H128.53ZM129.092 78.8354C128.876 78.8354 128.69 78.7578 128.535 78.6026C128.379 78.4474 128.302 78.2615 128.302 78.0448C128.302 77.8281 128.379 77.6422 128.535 77.487C128.69 77.3318 128.876 77.2542 129.092 77.2542C129.309 77.2542 129.495 77.3318 129.65 77.487C129.805 77.6422 129.883 77.8281 129.883 78.0448C129.883 78.1883 129.846 78.3201 129.773 78.4401C129.703 78.5602 129.608 78.6568 129.488 78.73C129.371 78.8003 129.239 78.8354 129.092 78.8354Z" fill="white"/>
<path d="M0.825806 124.973C0.825806 118.142 6.36327 112.605 13.1941 112.605H231.494C238.325 112.605 243.862 118.142 243.862 124.973V150.328C243.862 157.159 238.325 162.696 231.494 162.696H0.825806V124.973Z" fill="#DDDDDD"/>
<path d="M16.5464 134.807C15.9667 134.807 15.4499 134.708 14.996 134.508C14.5451 134.309 14.1864 134.033 13.9199 133.678C13.6564 133.321 13.5129 132.907 13.4895 132.435H14.5963C14.6197 132.725 14.7193 132.976 14.895 133.186C15.0707 133.394 15.3005 133.555 15.5845 133.669C15.8686 133.784 16.1833 133.841 16.5289 133.841C16.9154 133.841 17.258 133.773 17.5566 133.639C17.8553 133.504 18.0895 133.317 18.2594 133.077C18.4292 132.836 18.5141 132.558 18.5141 132.242C18.5141 131.911 18.4321 131.62 18.2681 131.368C18.1042 131.113 17.8641 130.914 17.5478 130.771C17.2316 130.627 16.8451 130.555 16.3883 130.555H15.668V129.589H16.3883C16.7455 129.589 17.0588 129.525 17.3282 129.396C17.6005 129.267 17.8128 129.086 17.9651 128.851C18.1203 128.617 18.1979 128.342 18.1979 128.026C18.1979 127.721 18.1305 127.456 17.9958 127.231C17.8611 127.005 17.6708 126.829 17.4249 126.704C17.1818 126.578 16.8949 126.515 16.564 126.515C16.2536 126.515 15.9608 126.572 15.6856 126.686C15.4133 126.797 15.1907 126.96 15.018 127.174C14.8452 127.384 14.7515 127.639 14.7369 127.938H13.6827C13.7003 127.466 13.8423 127.053 14.1088 126.699C14.3752 126.342 14.7237 126.064 15.1541 125.865C15.5875 125.666 16.0633 125.566 16.5816 125.566C17.1379 125.566 17.6152 125.679 18.0134 125.904C18.4116 126.127 18.7176 126.421 18.9314 126.787C19.1451 127.153 19.252 127.548 19.252 127.973C19.252 128.479 19.1188 128.911 18.8523 129.269C18.5888 129.626 18.2301 129.873 17.7762 130.011V130.081C18.3443 130.175 18.7879 130.416 19.107 130.806C19.4262 131.192 19.5858 131.671 19.5858 132.242C19.5858 132.731 19.4526 133.17 19.1861 133.56C18.9226 133.946 18.5624 134.251 18.1056 134.473C17.6489 134.696 17.1291 134.807 16.5464 134.807ZM20.6794 136.617V133.718H21.2416C21.3792 133.574 21.4978 133.419 21.5974 133.252C21.6969 133.085 21.7833 132.888 21.8565 132.659C21.9327 132.428 21.9971 132.147 22.0498 131.816C22.1025 131.482 22.1493 131.08 22.1903 130.608L22.4187 127.938H26.7055V133.718H27.742V136.617H26.7055V134.684H21.716V136.617H20.6794ZM22.4187 133.718H25.6689V128.904H23.385L23.2093 130.608C23.1361 131.314 23.0453 131.93 22.937 132.457C22.8287 132.984 22.6559 133.405 22.4187 133.718ZM29.1178 137.214V127.938H30.1192V129.009H30.2422C30.3184 128.892 30.4238 128.743 30.5585 128.561C30.6961 128.377 30.8923 128.213 31.147 128.07C31.4047 127.923 31.7531 127.85 32.1923 127.85C32.7604 127.85 33.2611 127.992 33.6945 128.276C34.1278 128.56 34.466 128.963 34.709 129.484C34.9521 130.005 35.0736 130.62 35.0736 131.328C35.0736 132.043 34.9521 132.662 34.709 133.186C34.466 133.708 34.1293 134.112 33.6988 134.399C33.2684 134.683 32.7721 134.825 32.2099 134.825C31.7766 134.825 31.4296 134.753 31.169 134.609C30.9084 134.463 30.7078 134.298 30.5672 134.113C30.4267 133.926 30.3184 133.771 30.2422 133.648H30.1544V137.214H29.1178ZM30.1368 131.311C30.1368 131.82 30.2115 132.27 30.3608 132.659C30.5101 133.046 30.7283 133.349 31.0152 133.568C31.3022 133.785 31.6536 133.893 32.0694 133.893C32.5027 133.893 32.8643 133.779 33.1542 133.551C33.447 133.32 33.6666 133.009 33.813 132.62C33.9624 132.227 34.037 131.791 34.037 131.311C34.037 130.837 33.9638 130.409 33.8174 130.028C33.674 129.645 33.4558 129.342 33.163 129.119C32.8731 128.894 32.5086 128.781 32.0694 128.781C31.6477 128.781 31.2934 128.888 31.0065 129.102C30.7195 129.312 30.5028 129.608 30.3564 129.989C30.21 130.367 30.1368 130.807 30.1368 131.311ZM38.64 134.842C38.2125 134.842 37.8245 134.762 37.4761 134.601C37.1276 134.437 36.8509 134.201 36.646 133.893C36.441 133.583 36.3385 133.208 36.3385 132.769C36.3385 132.383 36.4147 132.069 36.5669 131.829C36.7192 131.586 36.9227 131.396 37.1774 131.258C37.4322 131.121 37.7133 131.018 38.0207 130.951C38.3311 130.88 38.6429 130.825 38.9562 130.784C39.3662 130.731 39.6985 130.692 39.9533 130.665C40.2109 130.636 40.3983 130.588 40.5155 130.52C40.6355 130.453 40.6955 130.336 40.6955 130.169V130.134C40.6955 129.7 40.5769 129.364 40.3398 129.124C40.1055 128.884 39.7498 128.763 39.2725 128.763C38.7776 128.763 38.3897 128.872 38.1086 129.088C37.8275 129.305 37.6298 129.536 37.5156 129.782L36.5318 129.431C36.7075 129.021 36.9417 128.702 37.2345 128.474C37.5303 128.242 37.8523 128.081 38.2008 127.99C38.5522 127.897 38.8977 127.85 39.2373 127.85C39.454 127.85 39.7029 127.876 39.984 127.929C40.268 127.979 40.5418 128.083 40.8053 128.241C41.0718 128.399 41.2929 128.638 41.4685 128.957C41.6442 129.276 41.7321 129.703 41.7321 130.239V134.684H40.6955V133.771H40.6428C40.5725 133.917 40.4554 134.074 40.2915 134.24C40.1275 134.407 39.9093 134.549 39.637 134.667C39.3647 134.784 39.0324 134.842 38.64 134.842ZM38.7981 133.911C39.2081 133.911 39.5536 133.831 39.8347 133.669C40.1187 133.508 40.3324 133.301 40.4759 133.046C40.6223 132.791 40.6955 132.523 40.6955 132.242V131.293C40.6516 131.346 40.555 131.394 40.4056 131.438C40.2592 131.479 40.0894 131.516 39.8962 131.548C39.7058 131.577 39.5199 131.604 39.3384 131.627C39.1597 131.648 39.0148 131.665 38.9035 131.68C38.6342 131.715 38.3823 131.772 38.1481 131.851C37.9168 131.927 37.7294 132.043 37.5859 132.198C37.4453 132.35 37.3751 132.558 37.3751 132.822C37.3751 133.182 37.5083 133.454 37.7748 133.639C38.0441 133.82 38.3853 133.911 38.7981 133.911ZM43.624 134.684V127.938H46.3823C47.1084 127.938 47.6853 128.102 48.1128 128.43C48.5403 128.758 48.754 129.191 48.754 129.73C48.754 130.14 48.6325 130.457 48.3895 130.683C48.1464 130.905 47.8346 131.056 47.4539 131.135C47.7028 131.17 47.9444 131.258 48.1786 131.399C48.4158 131.539 48.612 131.733 48.7672 131.979C48.9224 132.222 49 132.52 49 132.875C49 133.22 48.9121 133.529 48.7364 133.801C48.5608 134.074 48.3089 134.289 47.981 134.447C47.6531 134.605 47.2607 134.684 46.8039 134.684H43.624ZM44.6078 133.735H46.8039C47.1611 133.735 47.4408 133.65 47.6428 133.481C47.8448 133.311 47.9459 133.079 47.9459 132.787C47.9459 132.438 47.8448 132.164 47.6428 131.965C47.4408 131.763 47.1611 131.662 46.8039 131.662H44.6078V133.735ZM44.6078 130.766H46.3823C46.6604 130.766 46.8991 130.728 47.0982 130.652C47.2973 130.573 47.4495 130.462 47.555 130.318C47.6633 130.172 47.7175 129.999 47.7175 129.8C47.7175 129.516 47.5989 129.293 47.3617 129.132C47.1245 128.968 46.798 128.886 46.3823 128.886H44.6078V130.766ZM53.3098 134.825C52.6773 134.825 52.1327 134.675 51.6759 134.377C51.2191 134.078 50.8677 133.667 50.6218 133.142C50.3758 132.618 50.2528 132.02 50.2528 131.346C50.2528 130.661 50.3787 130.056 50.6306 129.532C50.8853 129.005 51.2396 128.594 51.6935 128.298C52.1502 127.999 52.6832 127.85 53.2922 127.85C53.7665 127.85 54.1941 127.938 54.5747 128.113C54.9554 128.289 55.2672 128.535 55.5102 128.851C55.7533 129.168 55.9041 129.536 55.9626 129.958H54.9261C54.847 129.651 54.6713 129.378 54.399 129.141C54.1296 128.901 53.7665 128.781 53.3098 128.781C52.9057 128.781 52.5514 128.886 52.2469 129.097C51.9453 129.305 51.7096 129.599 51.5397 129.98C51.3728 130.358 51.2894 130.801 51.2894 131.311C51.2894 131.832 51.3714 132.286 51.5353 132.672C51.7022 133.059 51.9365 133.359 52.2381 133.573C52.5426 133.787 52.8998 133.893 53.3098 133.893C53.5792 133.893 53.8236 133.847 54.0433 133.753C54.2629 133.659 54.4488 133.525 54.6011 133.349C54.7533 133.173 54.8617 132.962 54.9261 132.716H55.9626C55.9041 133.115 55.7591 133.473 55.5278 133.792C55.2994 134.109 54.9963 134.361 54.6186 134.548C54.2438 134.732 53.8075 134.825 53.3098 134.825ZM56.9465 128.904V127.938H62.4279V128.904H60.2142V134.684H59.1777V128.904H56.9465ZM63.9399 134.684V127.938H66.6981C67.4243 127.938 68.0011 128.102 68.4286 128.43C68.8561 128.758 69.0699 129.191 69.0699 129.73C69.0699 130.14 68.9484 130.457 68.7053 130.683C68.4623 130.905 68.1505 131.056 67.7698 131.135C68.0187 131.17 68.2603 131.258 68.4945 131.399C68.7317 131.539 68.9279 131.733 69.0831 131.979C69.2382 132.222 69.3158 132.52 69.3158 132.875C69.3158 133.22 69.228 133.529 69.0523 133.801C68.8766 134.074 68.6248 134.289 68.2969 134.447C67.9689 134.605 67.5765 134.684 67.1198 134.684H63.9399ZM64.9237 133.735H67.1198C67.477 133.735 67.7566 133.65 67.9587 133.481C68.1607 133.311 68.2617 133.079 68.2617 132.787C68.2617 132.438 68.1607 132.164 67.9587 131.965C67.7566 131.763 67.477 131.662 67.1198 131.662H64.9237V133.735ZM64.9237 130.766H66.6981C66.9763 130.766 67.2149 130.728 67.414 130.652C67.6131 130.573 67.7654 130.462 67.8708 130.318C67.9792 130.172 68.0333 129.999 68.0333 129.8C68.0333 129.516 67.9147 129.293 67.6776 129.132C67.4404 128.968 67.1139 128.886 66.6981 128.886H64.9237V130.766ZM71.5525 137.214C71.3768 137.214 71.2202 137.199 71.0826 137.17C70.945 137.144 70.8498 137.117 70.7971 137.091L71.0606 136.177C71.3124 136.242 71.535 136.265 71.7282 136.248C71.9215 136.23 72.0928 136.144 72.2421 135.989C72.3944 135.836 72.5334 135.589 72.6594 135.246L72.8526 134.719L70.3579 127.938H71.4823L73.3445 133.314H73.4148L75.2771 127.938H76.4015L73.5378 135.668C73.4089 136.016 73.2494 136.305 73.059 136.533C72.8687 136.764 72.6476 136.936 72.3958 137.047C72.1469 137.158 71.8658 137.214 71.5525 137.214ZM78.8062 133.156L82.0563 127.938H83.251V134.684H82.2145V129.466L78.9818 134.684H77.7696V127.938H78.8062V133.156ZM81.3712 125.689H82.3374C82.3374 126.163 82.1735 126.551 81.8455 126.853C81.5176 127.154 81.0725 127.305 80.5103 127.305C79.9569 127.305 79.5162 127.154 79.1883 126.853C78.8633 126.551 78.7007 126.163 78.7007 125.689H79.667C79.667 125.917 79.73 126.118 79.8559 126.291C79.9847 126.463 80.2029 126.55 80.5103 126.55C80.8178 126.55 81.0374 126.463 81.1691 126.291C81.3038 126.118 81.3712 125.917 81.3712 125.689ZM84.2316 128.904V127.938H89.713V128.904H87.4993V134.684H86.4628V128.904H84.2316ZM93.7032 134.825C93.0532 134.825 92.4924 134.681 92.021 134.394C91.5525 134.104 91.1909 133.7 90.9362 133.182C90.6843 132.661 90.5584 132.055 90.5584 131.364C90.5584 130.673 90.6843 130.064 90.9362 129.536C91.1909 129.007 91.5452 128.594 91.9991 128.298C92.4558 127.999 92.9888 127.85 93.5978 127.85C93.9492 127.85 94.2962 127.908 94.6387 128.026C94.9813 128.143 95.2932 128.333 95.5743 128.597C95.8554 128.857 96.0794 129.203 96.2463 129.633C96.4132 130.064 96.4966 130.594 96.4966 131.223V131.662H91.2963V130.766H95.4425C95.4425 130.386 95.3664 130.046 95.2141 129.747C95.0648 129.449 94.851 129.213 94.5729 129.04C94.2976 128.867 93.9726 128.781 93.5978 128.781C93.1849 128.781 92.8277 128.884 92.5261 129.088C92.2275 129.291 91.9976 129.554 91.8366 129.879C91.6755 130.204 91.595 130.553 91.595 130.924V131.522C91.595 132.031 91.6828 132.463 91.8585 132.817C92.0371 133.169 92.2846 133.437 92.6008 133.621C92.917 133.803 93.2845 133.893 93.7032 133.893C93.9755 133.893 94.2215 133.855 94.4411 133.779C94.6636 133.7 94.8554 133.583 95.0165 133.428C95.1775 133.27 95.302 133.074 95.3898 132.839L96.3912 133.12C96.2858 133.46 96.1086 133.759 95.8598 134.016C95.6109 134.271 95.3034 134.47 94.9374 134.614C94.5714 134.754 94.16 134.825 93.7032 134.825ZM99.6194 133.454L99.5492 133.929C99.4994 134.262 99.4233 134.62 99.3208 135C99.2212 135.381 99.1173 135.74 99.0089 136.076C98.9006 136.413 98.8113 136.681 98.741 136.88H97.9504C97.9885 136.693 98.0383 136.445 98.0998 136.138C98.1612 135.83 98.2227 135.486 98.2842 135.106C98.3486 134.728 98.4013 134.341 98.4423 133.946L98.495 133.454H99.6194ZM108.708 133.279L111.062 127.938H112.046L109.13 134.684H108.286L105.423 127.938H106.389L108.708 133.279ZM106.055 127.938V134.684H105.018V127.938H106.055ZM111.361 134.684V127.938H112.397V134.684H111.361ZM115.191 130.38H117.123C117.914 130.38 118.518 130.58 118.937 130.982C119.356 131.383 119.565 131.891 119.565 132.506C119.565 132.91 119.472 133.277 119.284 133.608C119.097 133.936 118.822 134.198 118.458 134.394C118.095 134.587 117.65 134.684 117.123 134.684H114.295V127.938H115.331V133.718H117.123C117.533 133.718 117.87 133.609 118.133 133.393C118.397 133.176 118.529 132.898 118.529 132.558C118.529 132.201 118.397 131.91 118.133 131.684C117.87 131.459 117.533 131.346 117.123 131.346H115.191V130.38ZM120.637 134.684V127.938H121.673V134.684H120.637ZM127.049 137.214V127.938H128.051V129.009H128.174C128.25 128.892 128.355 128.743 128.49 128.561C128.628 128.377 128.824 128.213 129.079 128.07C129.336 127.923 129.685 127.85 130.124 127.85C130.692 127.85 131.193 127.992 131.626 128.276C132.059 128.56 132.398 128.963 132.641 129.484C132.884 130.005 133.005 130.62 133.005 131.328C133.005 132.043 132.884 132.662 132.641 133.186C132.398 133.708 132.061 134.112 131.63 134.399C131.2 134.683 130.704 134.825 130.142 134.825C129.708 134.825 129.361 134.753 129.101 134.609C128.84 134.463 128.639 134.298 128.499 134.113C128.358 133.926 128.25 133.771 128.174 133.648H128.086V137.214H127.049ZM128.068 131.311C128.068 131.82 128.143 132.27 128.292 132.659C128.442 133.046 128.66 133.349 128.947 133.568C129.234 133.785 129.585 133.893 130.001 133.893C130.434 133.893 130.796 133.779 131.086 133.551C131.379 133.32 131.598 133.009 131.745 132.62C131.894 132.227 131.969 131.791 131.969 131.311C131.969 130.837 131.895 130.409 131.749 130.028C131.606 129.645 131.387 129.342 131.095 129.119C130.805 128.894 130.44 128.781 130.001 128.781C129.579 128.781 129.225 128.888 128.938 129.102C128.651 129.312 128.434 129.608 128.288 129.989C128.142 130.367 128.068 130.807 128.068 131.311ZM136.572 134.842C136.144 134.842 135.756 134.762 135.408 134.601C135.059 134.437 134.783 134.201 134.578 133.893C134.373 133.583 134.27 133.208 134.27 132.769C134.27 132.383 134.346 132.069 134.499 131.829C134.651 131.586 134.854 131.396 135.109 131.258C135.364 131.121 135.645 131.018 135.952 130.951C136.263 130.88 136.575 130.825 136.888 130.784C137.298 130.731 137.63 130.692 137.885 130.665C138.143 130.636 138.33 130.588 138.447 130.52C138.567 130.453 138.627 130.336 138.627 130.169V130.134C138.627 129.7 138.509 129.364 138.271 129.124C138.037 128.884 137.681 128.763 137.204 128.763C136.709 128.763 136.321 128.872 136.04 129.088C135.759 129.305 135.561 129.536 135.447 129.782L134.463 129.431C134.639 129.021 134.873 128.702 135.166 128.474C135.462 128.242 135.784 128.081 136.132 127.99C136.484 127.897 136.829 127.85 137.169 127.85C137.386 127.85 137.635 127.876 137.916 127.929C138.2 127.979 138.473 128.083 138.737 128.241C139.003 128.399 139.224 128.638 139.4 128.957C139.576 129.276 139.664 129.703 139.664 130.239V134.684H138.627V133.771H138.574C138.504 133.917 138.387 134.074 138.223 134.24C138.059 134.407 137.841 134.549 137.569 134.667C137.296 134.784 136.964 134.842 136.572 134.842ZM136.73 133.911C137.14 133.911 137.485 133.831 137.766 133.669C138.05 133.508 138.264 133.301 138.408 133.046C138.554 132.791 138.627 132.523 138.627 132.242V131.293C138.583 131.346 138.487 131.394 138.337 131.438C138.191 131.479 138.021 131.516 137.828 131.548C137.637 131.577 137.452 131.604 137.27 131.627C137.091 131.648 136.946 131.665 136.835 131.68C136.566 131.715 136.314 131.772 136.08 131.851C135.848 131.927 135.661 132.043 135.518 132.198C135.377 132.35 135.307 132.558 135.307 132.822C135.307 133.182 135.44 133.454 135.706 133.639C135.976 133.82 136.317 133.911 136.73 133.911ZM146.563 125.408L147.09 126.04C146.885 126.239 146.648 126.379 146.378 126.458C146.109 126.537 145.804 126.585 145.465 126.603C145.125 126.62 144.747 126.638 144.331 126.655C143.863 126.673 143.475 126.787 143.168 126.998C142.86 127.209 142.623 127.513 142.456 127.911C142.289 128.31 142.182 128.799 142.135 129.378H142.223C142.452 128.957 142.768 128.646 143.172 128.447C143.576 128.248 144.009 128.149 144.472 128.149C144.999 128.149 145.473 128.272 145.895 128.518C146.317 128.763 146.651 129.128 146.896 129.611C147.142 130.094 147.265 130.69 147.265 131.399C147.265 132.104 147.14 132.713 146.888 133.226C146.639 133.738 146.289 134.134 145.838 134.412C145.39 134.687 144.864 134.825 144.261 134.825C143.658 134.825 143.129 134.683 142.676 134.399C142.222 134.112 141.869 133.687 141.617 133.125C141.365 132.56 141.239 131.861 141.239 131.03V130.31C141.239 128.807 141.494 127.668 142.004 126.892C142.516 126.116 143.286 125.715 144.314 125.689C144.677 125.677 145.001 125.674 145.285 125.68C145.569 125.686 145.816 125.673 146.027 125.641C146.238 125.608 146.416 125.531 146.563 125.408ZM144.261 133.893C144.668 133.893 145.018 133.791 145.311 133.586C145.607 133.381 145.834 133.093 145.992 132.721C146.15 132.346 146.229 131.905 146.229 131.399C146.229 130.907 146.148 130.488 145.987 130.143C145.829 129.797 145.602 129.534 145.307 129.352C145.011 129.17 144.656 129.08 144.244 129.08C143.942 129.08 143.671 129.131 143.431 129.233C143.191 129.336 142.986 129.487 142.816 129.686C142.646 129.885 142.515 130.128 142.421 130.415C142.33 130.702 142.282 131.03 142.276 131.399C142.276 132.154 142.453 132.759 142.807 133.213C143.162 133.667 143.646 133.893 144.261 133.893ZM151.592 134.825C150.983 134.825 150.448 134.68 149.989 134.39C149.532 134.1 149.175 133.694 148.917 133.173C148.662 132.652 148.535 132.043 148.535 131.346C148.535 130.643 148.662 130.03 148.917 129.506C149.175 128.982 149.532 128.575 149.989 128.285C150.448 127.995 150.983 127.85 151.592 127.85C152.201 127.85 152.734 127.995 153.19 128.285C153.65 128.575 154.007 128.982 154.262 129.506C154.52 130.03 154.649 130.643 154.649 131.346C154.649 132.043 154.52 132.652 154.262 133.173C154.007 133.694 153.65 134.1 153.19 134.39C152.734 134.68 152.201 134.825 151.592 134.825ZM151.592 133.893C152.054 133.893 152.435 133.775 152.734 133.538C153.032 133.301 153.253 132.989 153.397 132.602C153.54 132.216 153.612 131.797 153.612 131.346C153.612 130.895 153.54 130.475 153.397 130.086C153.253 129.696 153.032 129.381 152.734 129.141C152.435 128.901 152.054 128.781 151.592 128.781C151.129 128.781 150.748 128.901 150.45 129.141C150.151 129.381 149.93 129.696 149.786 130.086C149.643 130.475 149.571 130.895 149.571 131.346C149.571 131.797 149.643 132.216 149.786 132.602C149.93 132.989 150.151 133.301 150.45 133.538C150.748 133.775 151.129 133.893 151.592 133.893ZM155.349 128.904V127.938H160.831V128.904H158.617V134.684H157.58V128.904H155.349ZM163.978 134.842C163.55 134.842 163.162 134.762 162.814 134.601C162.465 134.437 162.188 134.201 161.983 133.893C161.779 133.583 161.676 133.208 161.676 132.769C161.676 132.383 161.752 132.069 161.904 131.829C162.057 131.586 162.26 131.396 162.515 131.258C162.77 131.121 163.051 131.018 163.358 130.951C163.669 130.88 163.98 130.825 164.294 130.784C164.704 130.731 165.036 130.692 165.291 130.665C165.548 130.636 165.736 130.588 165.853 130.52C165.973 130.453 166.033 130.336 166.033 130.169V130.134C166.033 129.7 165.914 129.364 165.677 129.124C165.443 128.884 165.087 128.763 164.61 128.763C164.115 128.763 163.727 128.872 163.446 129.088C163.165 129.305 162.967 129.536 162.853 129.782L161.869 129.431C162.045 129.021 162.279 128.702 162.572 128.474C162.868 128.242 163.19 128.081 163.538 127.99C163.89 127.897 164.235 127.85 164.575 127.85C164.792 127.85 165.04 127.876 165.322 127.929C165.606 127.979 165.879 128.083 166.143 128.241C166.409 128.399 166.63 128.638 166.806 128.957C166.982 129.276 167.07 129.703 167.07 130.239V134.684H166.033V133.771H165.98C165.91 133.917 165.793 134.074 165.629 134.24C165.465 134.407 165.247 134.549 164.975 134.667C164.702 134.784 164.37 134.842 163.978 134.842ZM164.136 133.911C164.546 133.911 164.891 133.831 165.172 133.669C165.456 133.508 165.67 133.301 165.813 133.046C165.96 132.791 166.033 132.523 166.033 132.242V131.293C165.989 131.346 165.892 131.394 165.743 131.438C165.597 131.479 165.427 131.516 165.234 131.548C165.043 131.577 164.857 131.604 164.676 131.627C164.497 131.648 164.352 131.665 164.241 131.68C163.972 131.715 163.72 131.772 163.486 131.851C163.254 131.927 163.067 132.043 162.923 132.198C162.783 132.35 162.713 132.558 162.713 132.822C162.713 133.182 162.846 133.454 163.112 133.639C163.382 133.82 163.723 133.911 164.136 133.911ZM171.79 134.825C171.14 134.825 170.579 134.681 170.108 134.394C169.639 134.104 169.278 133.7 169.023 133.182C168.771 132.661 168.645 132.055 168.645 131.364C168.645 130.673 168.771 130.064 169.023 129.536C169.278 129.007 169.632 128.594 170.086 128.298C170.543 127.999 171.076 127.85 171.685 127.85C172.036 127.85 172.383 127.908 172.726 128.026C173.068 128.143 173.38 128.333 173.661 128.597C173.942 128.857 174.166 129.203 174.333 129.633C174.5 130.064 174.583 130.594 174.583 131.223V131.662H169.383V130.766H173.529C173.529 130.386 173.453 130.046 173.301 129.747C173.152 129.449 172.938 129.213 172.66 129.04C172.384 128.867 172.059 128.781 171.685 128.781C171.272 128.781 170.915 128.884 170.613 129.088C170.314 129.291 170.084 129.554 169.923 129.879C169.762 130.204 169.682 130.553 169.682 130.924V131.522C169.682 132.031 169.77 132.463 169.945 132.817C170.124 133.169 170.371 133.437 170.688 133.621C171.004 133.803 171.371 133.893 171.79 133.893C172.062 133.893 172.308 133.855 172.528 133.779C172.75 133.7 172.942 133.583 173.103 133.428C173.264 133.27 173.389 133.074 173.477 132.839L174.478 133.12C174.373 133.46 174.195 133.759 173.947 134.016C173.698 134.271 173.39 134.47 173.024 134.614C172.658 134.754 172.247 134.825 171.79 134.825ZM179.85 133.279L182.204 127.938H183.188L180.271 134.684H179.428L176.564 127.938H177.531L179.85 133.279ZM177.197 127.938V134.684H176.16V127.938H177.197ZM182.502 134.684V127.938H183.539V134.684H182.502ZM16.3532 149.825C15.7031 149.825 15.1424 149.681 14.671 149.394C14.2025 149.104 13.8409 148.7 13.5861 148.182C13.3343 147.661 13.2084 147.055 13.2084 146.364C13.2084 145.673 13.3343 145.064 13.5861 144.536C13.8409 144.007 14.1952 143.594 14.649 143.298C15.1058 142.999 15.6387 142.85 16.2478 142.85C16.5991 142.85 16.9461 142.908 17.2887 143.026C17.6313 143.143 17.9431 143.333 18.2242 143.597C18.5053 143.857 18.7293 144.203 18.8962 144.633C19.0631 145.064 19.1466 145.594 19.1466 146.223V146.662H13.9463V145.766H18.0925C18.0925 145.386 18.0163 145.046 17.8641 144.747C17.7147 144.449 17.501 144.213 17.2228 144.04C16.9476 143.867 16.6226 143.781 16.2478 143.781C15.8349 143.781 15.4777 143.884 15.1761 144.088C14.8774 144.291 14.6476 144.554 14.4865 144.879C14.3255 145.204 14.2449 145.553 14.2449 145.924V146.522C14.2449 147.031 14.3328 147.463 14.5085 147.817C14.6871 148.169 14.9345 148.437 15.2507 148.621C15.567 148.803 15.9345 148.893 16.3532 148.893C16.6255 148.893 16.8714 148.855 17.0911 148.779C17.3136 148.7 17.5054 148.583 17.6664 148.428C17.8275 148.27 17.9519 148.074 18.0398 147.839L19.0412 148.12C18.9358 148.46 18.7586 148.759 18.5097 149.016C18.2608 149.271 17.9534 149.47 17.5874 149.614C17.2214 149.754 16.81 149.825 16.3532 149.825ZM20.1205 149.684L22.8612 146.258L20.1557 142.938H21.3855L23.6342 145.819H24.1964V142.938H25.233V145.819H25.7776L28.0264 142.938H29.2562L26.5682 146.258L29.2913 149.684H28.044L25.76 146.785H25.233V149.684H24.1964V146.785H23.6694L21.3679 149.684H20.1205ZM33.3233 149.825C32.6733 149.825 32.1125 149.681 31.6411 149.394C31.1726 149.104 30.811 148.7 30.5563 148.182C30.3045 147.661 30.1785 147.055 30.1785 146.364C30.1785 145.673 30.3045 145.064 30.5563 144.536C30.811 144.007 31.1653 143.594 31.6192 143.298C32.0759 142.999 32.6089 142.85 33.2179 142.85C33.5693 142.85 33.9163 142.908 34.2588 143.026C34.6014 143.143 34.9133 143.333 35.1944 143.597C35.4755 143.857 35.6995 144.203 35.8664 144.633C36.0333 145.064 36.1167 145.594 36.1167 146.223V146.662H30.9164V145.766H35.0626C35.0626 145.386 34.9865 145.046 34.8342 144.747C34.6849 144.449 34.4711 144.213 34.193 144.04C33.9177 143.867 33.5927 143.781 33.2179 143.781C32.805 143.781 32.4478 143.884 32.1462 144.088C31.8476 144.291 31.6177 144.554 31.4567 144.879C31.2956 145.204 31.2151 145.553 31.2151 145.924V146.522C31.2151 147.031 31.3029 147.463 31.4786 147.817C31.6572 148.169 31.9047 148.437 32.2209 148.621C32.5371 148.803 32.9046 148.893 33.3233 148.893C33.5956 148.893 33.8416 148.855 34.0612 148.779C34.2837 148.7 34.4755 148.583 34.6366 148.428C34.7976 148.27 34.9221 148.074 35.0099 147.839L36.0113 148.12C35.9059 148.46 35.7287 148.759 35.4799 149.016C35.231 149.271 34.9235 149.47 34.5575 149.614C34.1915 149.754 33.7801 149.825 33.3233 149.825ZM36.9732 151.617V148.718H37.5354C37.673 148.574 37.7916 148.419 37.8911 148.252C37.9907 148.085 38.0771 147.888 38.1503 147.659C38.2264 147.428 38.2908 147.147 38.3435 146.816C38.3962 146.482 38.4431 146.08 38.4841 145.608L38.7125 142.938H42.9992V148.718H44.0358V151.617H42.9992V149.684H38.0097V151.617H36.9732ZM38.7125 148.718H41.9627V143.904H39.6787L39.5031 145.608C39.4299 146.314 39.3391 146.93 39.2308 147.457C39.1224 147.984 38.9497 148.405 38.7125 148.718ZM49.9267 145.837V146.803H46.2022V145.837H49.9267ZM46.4481 142.938V149.684H45.4116V142.938H46.4481ZM50.7173 142.938V149.684H49.6808V142.938H50.7173ZM55.4389 149.825C54.7888 149.825 54.2281 149.681 53.7567 149.394C53.2882 149.104 52.9266 148.7 52.6718 148.182C52.42 147.661 52.2941 147.055 52.2941 146.364C52.2941 145.673 52.42 145.064 52.6718 144.536C52.9266 144.007 53.2809 143.594 53.7347 143.298C54.1915 142.999 54.7244 142.85 55.3334 142.85C55.6848 142.85 56.0318 142.908 56.3744 143.026C56.717 143.143 57.0288 143.333 57.3099 143.597C57.591 143.857 57.815 144.203 57.9819 144.633C58.1488 145.064 58.2323 145.594 58.2323 146.223V146.662H53.032V145.766H57.1781C57.1781 145.386 57.102 145.046 56.9498 144.747C56.8004 144.449 56.5867 144.213 56.3085 144.04C56.0333 143.867 55.7082 143.781 55.3334 143.781C54.9206 143.781 54.5634 143.884 54.2618 144.088C53.9631 144.291 53.7332 144.554 53.5722 144.879C53.4112 145.204 53.3306 145.553 53.3306 145.924V146.522C53.3306 147.031 53.4185 147.463 53.5942 147.817C53.7728 148.169 54.0202 148.437 54.3364 148.621C54.6527 148.803 55.0201 148.893 55.4389 148.893C55.7112 148.893 55.9571 148.855 56.1767 148.779C56.3993 148.7 56.5911 148.583 56.7521 148.428C56.9132 148.27 57.0376 148.074 57.1254 147.839L58.1268 148.12C58.0214 148.46 57.8443 148.759 57.5954 149.016C57.3465 149.271 57.0391 149.47 56.673 149.614C56.307 149.754 55.8956 149.825 55.4389 149.825ZM59.809 149.684V142.938H62.5673C63.2935 142.938 63.8703 143.102 64.2978 143.43C64.7253 143.758 64.9391 144.191 64.9391 144.73C64.9391 145.14 64.8175 145.457 64.5745 145.683C64.3315 145.905 64.0196 146.056 63.639 146.135C63.8879 146.17 64.1294 146.258 64.3637 146.399C64.6009 146.539 64.7971 146.733 64.9522 146.979C65.1074 147.222 65.185 147.52 65.185 147.875C65.185 148.22 65.0972 148.529 64.9215 148.801C64.7458 149.074 64.494 149.289 64.166 149.447C63.8381 149.605 63.4457 149.684 62.989 149.684H59.809ZM60.7929 148.735H62.989C63.3462 148.735 63.6258 148.65 63.8279 148.481C64.0299 148.311 64.1309 148.079 64.1309 147.787C64.1309 147.438 64.0299 147.164 63.8279 146.965C63.6258 146.763 63.3462 146.662 62.989 146.662H60.7929V148.735ZM60.7929 145.766H62.5673C62.8455 145.766 63.0841 145.728 63.2832 145.652C63.4823 145.573 63.6346 145.462 63.74 145.318C63.8483 145.172 63.9025 144.999 63.9025 144.8C63.9025 144.516 63.7839 144.293 63.5468 144.132C63.3096 143.968 62.9831 143.886 62.5673 143.886H60.7929V145.766ZM71.2692 145.837V146.803H67.5447V145.837H71.2692ZM67.7907 142.938V149.684H66.7541V142.938H67.7907ZM72.0598 142.938V149.684H71.0233V142.938H72.0598ZM76.6935 149.825C76.0845 149.825 75.5501 149.68 75.0904 149.39C74.6336 149.1 74.2764 148.694 74.0187 148.173C73.764 147.652 73.6366 147.043 73.6366 146.346C73.6366 145.643 73.764 145.03 74.0187 144.506C74.2764 143.982 74.6336 143.575 75.0904 143.285C75.5501 142.995 76.0845 142.85 76.6935 142.85C77.3026 142.85 77.8355 142.995 78.2923 143.285C78.752 143.575 79.1092 143.982 79.364 144.506C79.6216 145.03 79.7505 145.643 79.7505 146.346C79.7505 147.043 79.6216 147.652 79.364 148.173C79.1092 148.694 78.752 149.1 78.2923 149.39C77.8355 149.68 77.3026 149.825 76.6935 149.825ZM76.6935 148.893C77.1562 148.893 77.5368 148.775 77.8355 148.538C78.1342 148.301 78.3552 147.989 78.4987 147.602C78.6422 147.216 78.7139 146.797 78.7139 146.346C78.7139 145.895 78.6422 145.475 78.4987 145.086C78.3552 144.696 78.1342 144.381 77.8355 144.141C77.5368 143.901 77.1562 143.781 76.6935 143.781C76.2309 143.781 75.8502 143.901 75.5516 144.141C75.2529 144.381 75.0318 144.696 74.8884 145.086C74.7449 145.475 74.6732 145.895 74.6732 146.346C74.6732 146.797 74.7449 147.216 74.8884 147.602C75.0318 147.989 75.2529 148.301 75.5516 148.538C75.8502 148.775 76.2309 148.893 76.6935 148.893ZM87.552 149.825C86.9195 149.825 86.3749 149.675 85.9181 149.377C85.4614 149.078 85.11 148.667 84.864 148.142C84.6181 147.618 84.4951 147.02 84.4951 146.346C84.4951 145.661 84.621 145.056 84.8728 144.532C85.1276 144.005 85.4819 143.594 85.9357 143.298C86.3925 142.999 86.9254 142.85 87.5344 142.85C88.0088 142.85 88.4363 142.938 88.817 143.113C89.1976 143.289 89.5095 143.535 89.7525 143.851C89.9955 144.168 90.1463 144.536 90.2049 144.958H89.1683C89.0893 144.651 88.9136 144.378 88.6413 144.141C88.3719 143.901 88.0088 143.781 87.552 143.781C87.1479 143.781 86.7936 143.886 86.4891 144.097C86.1875 144.305 85.9518 144.599 85.782 144.98C85.6151 145.358 85.5316 145.801 85.5316 146.311C85.5316 146.832 85.6136 147.286 85.7776 147.672C85.9445 148.059 86.1787 148.359 86.4803 148.573C86.7849 148.787 87.1421 148.893 87.552 148.893C87.8214 148.893 88.0659 148.847 88.2855 148.753C88.5051 148.659 88.691 148.525 88.8433 148.349C88.9956 148.173 89.1039 147.962 89.1683 147.716H90.2049C90.1463 148.115 90.0014 148.473 89.7701 148.792C89.5417 149.109 89.2386 149.361 88.8609 149.548C88.4861 149.732 88.0498 149.825 87.552 149.825ZM98.0449 140.566C98.4138 140.569 98.7827 140.639 99.1517 140.777C99.5206 140.914 99.8573 141.143 100.162 141.462C100.466 141.778 100.711 142.21 100.895 142.758C101.08 143.305 101.172 143.992 101.172 144.818C101.172 145.617 101.096 146.327 100.944 146.948C100.794 147.566 100.578 148.087 100.294 148.511C100.013 148.936 99.6699 149.258 99.2659 149.478C98.8647 149.697 98.4109 149.807 97.9043 149.807C97.4007 149.807 96.9512 149.708 96.5559 149.508C96.1635 149.306 95.8415 149.027 95.5896 148.669C95.3408 148.309 95.1812 147.892 95.1109 147.418H96.1826C96.2792 147.831 96.471 148.172 96.758 148.441C97.0478 148.708 97.43 148.841 97.9043 148.841C98.5983 148.841 99.1458 148.538 99.547 147.932C99.951 147.326 100.153 146.469 100.153 145.362H100.083C99.9188 145.608 99.7241 145.82 99.4987 145.999C99.2732 146.178 99.0228 146.315 98.7476 146.412C98.4724 146.509 98.1795 146.557 97.8692 146.557C97.3538 146.557 96.8809 146.43 96.4505 146.175C96.023 145.917 95.6804 145.564 95.4227 145.116C95.168 144.665 95.0406 144.15 95.0406 143.57C95.0406 143.02 95.1636 142.516 95.4096 142.059C95.6585 141.6 96.0069 141.234 96.4549 140.961C96.9058 140.689 97.4358 140.557 98.0449 140.566ZM98.0449 141.532C97.6759 141.532 97.3436 141.624 97.0478 141.809C96.755 141.991 96.5222 142.236 96.3495 142.547C96.1797 142.854 96.0947 143.195 96.0947 143.57C96.0947 143.945 96.1767 144.286 96.3407 144.594C96.5076 144.898 96.7345 145.141 97.0215 145.323C97.3114 145.501 97.6408 145.591 98.0097 145.591C98.2879 145.591 98.547 145.536 98.7871 145.428C99.0272 145.317 99.2366 145.166 99.4152 144.976C99.5967 144.782 99.7388 144.564 99.8412 144.321C99.9437 144.075 99.995 143.819 99.995 143.553C99.995 143.201 99.91 142.872 99.7402 142.564C99.5733 142.257 99.342 142.008 99.0463 141.818C98.7534 141.627 98.4196 141.532 98.0449 141.532ZM103.672 148.533C103.456 148.533 103.27 148.456 103.114 148.301C102.959 148.145 102.882 147.959 102.882 147.743C102.882 147.526 102.959 147.34 103.114 147.185C103.27 147.03 103.456 146.952 103.672 146.952C103.889 146.952 104.075 147.03 104.23 147.185C104.385 147.34 104.463 147.526 104.463 147.743C104.463 147.886 104.426 148.018 104.353 148.138C104.283 148.258 104.188 148.355 104.068 148.428C103.95 148.498 103.819 148.533 103.672 148.533ZM103.672 143.983C103.456 143.983 103.27 143.905 103.114 143.75C102.959 143.595 102.882 143.409 102.882 143.192C102.882 142.976 102.959 142.79 103.114 142.635C103.27 142.48 103.456 142.402 103.672 142.402C103.889 142.402 104.075 142.48 104.23 142.635C104.385 142.79 104.463 142.976 104.463 143.192C104.463 143.336 104.426 143.468 104.353 143.588C104.283 143.708 104.188 143.804 104.068 143.878C103.95 143.948 103.819 143.983 103.672 143.983ZM109.239 149.807C108.578 149.807 108.014 149.627 107.548 149.267C107.083 148.904 106.727 148.378 106.481 147.69C106.235 146.999 106.112 146.165 106.112 145.187C106.112 144.214 106.235 143.384 106.481 142.696C106.73 142.005 107.087 141.478 107.553 141.115C108.021 140.749 108.583 140.566 109.239 140.566C109.895 140.566 110.456 140.749 110.922 141.115C111.39 141.478 111.747 142.005 111.993 142.696C112.242 143.384 112.367 144.214 112.367 145.187C112.367 146.165 112.244 146.999 111.998 147.69C111.752 148.378 111.396 148.904 110.93 149.267C110.465 149.627 109.901 149.807 109.239 149.807ZM109.239 148.841C109.895 148.841 110.405 148.525 110.768 147.892C111.131 147.26 111.312 146.358 111.312 145.187C111.312 144.408 111.229 143.744 111.062 143.197C110.898 142.649 110.661 142.232 110.351 141.945C110.043 141.658 109.673 141.515 109.239 141.515C108.589 141.515 108.081 141.835 107.715 142.477C107.349 143.115 107.166 144.018 107.166 145.187C107.166 145.965 107.248 146.627 107.412 147.172C107.576 147.716 107.812 148.131 108.119 148.415C108.43 148.699 108.803 148.841 109.239 148.841ZM116.969 149.807C116.308 149.807 115.744 149.627 115.279 149.267C114.813 148.904 114.457 148.378 114.211 147.69C113.965 146.999 113.842 146.165 113.842 145.187C113.842 144.214 113.965 143.384 114.211 142.696C114.46 142.005 114.817 141.478 115.283 141.115C115.751 140.749 116.314 140.566 116.969 140.566C117.625 140.566 118.186 140.749 118.652 141.115C119.12 141.478 119.477 142.005 119.723 142.696C119.972 143.384 120.097 144.214 120.097 145.187C120.097 146.165 119.974 146.999 119.728 147.69C119.482 148.378 119.126 148.904 118.66 149.267C118.195 149.627 117.631 149.807 116.969 149.807ZM116.969 148.841C117.625 148.841 118.135 148.525 118.498 147.892C118.861 147.26 119.043 146.358 119.043 145.187C119.043 144.408 118.959 143.744 118.792 143.197C118.628 142.649 118.391 142.232 118.081 141.945C117.773 141.658 117.403 141.515 116.969 141.515C116.319 141.515 115.811 141.835 115.445 142.477C115.079 143.115 114.896 144.018 114.896 145.187C114.896 145.965 114.978 146.627 115.142 147.172C115.306 147.716 115.542 148.131 115.849 148.415C116.16 148.699 116.533 148.841 116.969 148.841ZM124.542 151.617V148.718H125.104C125.241 148.574 125.36 148.419 125.46 148.252C125.559 148.085 125.645 147.888 125.719 147.659C125.795 147.428 125.859 147.147 125.912 146.816C125.965 146.482 126.011 146.08 126.052 145.608L126.281 142.938H130.568V148.718H131.604V151.617H130.568V149.684H125.578V151.617H124.542ZM126.281 148.718H129.531V143.904H127.247L127.071 145.608C126.998 146.314 126.907 146.93 126.799 147.457C126.691 147.984 126.518 148.405 126.281 148.718ZM135.721 149.825C135.112 149.825 134.577 149.68 134.118 149.39C133.661 149.1 133.304 148.694 133.046 148.173C132.791 147.652 132.664 147.043 132.664 146.346C132.664 145.643 132.791 145.03 133.046 144.506C133.304 143.982 133.661 143.575 134.118 143.285C134.577 142.995 135.112 142.85 135.721 142.85C136.33 142.85 136.863 142.995 137.319 143.285C137.779 143.575 138.136 143.982 138.391 144.506C138.649 145.03 138.778 145.643 138.778 146.346C138.778 147.043 138.649 147.652 138.391 148.173C138.136 148.694 137.779 149.1 137.319 149.39C136.863 149.68 136.33 149.825 135.721 149.825ZM135.721 148.893C136.183 148.893 136.564 148.775 136.863 148.538C137.161 148.301 137.382 147.989 137.526 147.602C137.669 147.216 137.741 146.797 137.741 146.346C137.741 145.895 137.669 145.475 137.526 145.086C137.382 144.696 137.161 144.381 136.863 144.141C136.564 143.901 136.183 143.781 135.721 143.781C135.258 143.781 134.877 143.901 134.579 144.141C134.28 144.381 134.059 144.696 133.915 145.086C133.772 145.475 133.7 145.895 133.7 146.346C133.7 146.797 133.772 147.216 133.915 147.602C134.059 147.989 134.28 148.301 134.579 148.538C134.877 148.775 135.258 148.893 135.721 148.893ZM143.821 149.684V148.893L146.79 145.643C147.138 145.263 147.425 144.932 147.651 144.651C147.876 144.367 148.043 144.1 148.152 143.851C148.263 143.599 148.318 143.336 148.318 143.061C148.318 142.744 148.242 142.471 148.09 142.239C147.941 142.008 147.736 141.829 147.475 141.704C147.215 141.578 146.922 141.515 146.597 141.515C146.251 141.515 145.95 141.586 145.692 141.73C145.437 141.87 145.24 142.068 145.099 142.323C144.961 142.578 144.893 142.876 144.893 143.219H143.856C143.856 142.692 143.978 142.229 144.221 141.831C144.464 141.433 144.794 141.122 145.213 140.9C145.635 140.677 146.108 140.566 146.632 140.566C147.159 140.566 147.626 140.677 148.033 140.9C148.44 141.122 148.759 141.422 148.99 141.8C149.222 142.178 149.337 142.598 149.337 143.061C149.337 143.392 149.277 143.715 149.157 144.031C149.04 144.345 148.835 144.695 148.542 145.081C148.253 145.465 147.85 145.933 147.335 146.487L145.314 148.648V148.718H149.496V149.684H143.821ZM154.472 140.689V149.684H153.383V141.831H153.33L151.134 143.289V142.182L153.383 140.689H154.472ZM157.832 148.533C157.615 148.533 157.429 148.456 157.274 148.301C157.119 148.145 157.041 147.959 157.041 147.743C157.041 147.526 157.119 147.34 157.274 147.185C157.429 147.03 157.615 146.952 157.832 146.952C158.048 146.952 158.234 147.03 158.39 147.185C158.545 147.34 158.622 147.526 158.622 147.743C158.622 147.886 158.586 148.018 158.513 148.138C158.442 148.258 158.347 148.355 158.227 148.428C158.11 148.498 157.978 148.533 157.832 148.533ZM157.832 143.983C157.615 143.983 157.429 143.905 157.274 143.75C157.119 143.595 157.041 143.409 157.041 143.192C157.041 142.976 157.119 142.79 157.274 142.635C157.429 142.48 157.615 142.402 157.832 142.402C158.048 142.402 158.234 142.48 158.39 142.635C158.545 142.79 158.622 142.976 158.622 143.192C158.622 143.336 158.586 143.468 158.513 143.588C158.442 143.708 158.347 143.804 158.227 143.878C158.11 143.948 157.978 143.983 157.832 143.983ZM163.399 149.807C162.737 149.807 162.173 149.627 161.708 149.267C161.242 148.904 160.887 148.378 160.641 147.69C160.395 146.999 160.272 146.165 160.272 145.187C160.272 144.214 160.395 143.384 160.641 142.696C160.889 142.005 161.247 141.478 161.712 141.115C162.181 140.749 162.743 140.566 163.399 140.566C164.055 140.566 164.615 140.749 165.081 141.115C165.55 141.478 165.907 142.005 166.153 142.696C166.402 143.384 166.526 144.214 166.526 145.187C166.526 146.165 166.403 146.999 166.157 147.69C165.911 148.378 165.555 148.904 165.09 149.267C164.624 149.627 164.061 149.807 163.399 149.807ZM163.399 148.841C164.055 148.841 164.564 148.525 164.927 147.892C165.29 147.26 165.472 146.358 165.472 145.187C165.472 144.408 165.388 143.744 165.222 143.197C165.058 142.649 164.82 142.232 164.51 141.945C164.203 141.658 163.832 141.515 163.399 141.515C162.749 141.515 162.241 141.835 161.875 142.477C161.509 143.115 161.326 144.018 161.326 145.187C161.326 145.965 161.408 146.627 161.572 147.172C161.736 147.716 161.971 148.131 162.279 148.415C162.589 148.699 162.963 148.841 163.399 148.841ZM171.129 149.807C170.467 149.807 169.904 149.627 169.438 149.267C168.972 148.904 168.617 148.378 168.371 147.69C168.125 146.999 168.002 146.165 168.002 145.187C168.002 144.214 168.125 143.384 168.371 142.696C168.62 142.005 168.977 141.478 169.442 141.115C169.911 140.749 170.473 140.566 171.129 140.566C171.785 140.566 172.346 140.749 172.811 141.115C173.28 141.478 173.637 142.005 173.883 142.696C174.132 143.384 174.256 144.214 174.256 145.187C174.256 146.165 174.133 146.999 173.887 147.69C173.641 148.378 173.286 148.904 172.82 149.267C172.354 149.627 171.791 149.807 171.129 149.807ZM171.129 148.841C171.785 148.841 172.294 148.525 172.657 147.892C173.021 147.26 173.202 146.358 173.202 145.187C173.202 144.408 173.119 143.744 172.952 143.197C172.788 142.649 172.551 142.232 172.24 141.945C171.933 141.658 171.562 141.515 171.129 141.515C170.479 141.515 169.971 141.835 169.605 142.477C169.239 143.115 169.056 144.018 169.056 145.187C169.056 145.965 169.138 146.627 169.302 147.172C169.466 147.716 169.702 148.131 170.009 148.415C170.319 148.699 170.693 148.841 171.129 148.841Z" fill="#212121"/>
<path d="M6.46708 104.695C6.46708 105.312 6.35573 105.845 6.13305 106.294C5.91037 106.743 5.6049 107.09 5.21663 107.333C4.82837 107.577 4.38491 107.699 3.88625 107.699C3.3876 107.699 2.94414 107.577 2.55587 107.333C2.16761 107.09 1.86213 106.743 1.63945 106.294C1.41677 105.845 1.30543 105.312 1.30543 104.695C1.30543 104.079 1.41677 103.546 1.63945 103.097C1.86213 102.647 2.16761 102.301 2.55587 102.057C2.94414 101.814 3.3876 101.692 3.88625 101.692C4.38491 101.692 4.82837 101.814 5.21663 102.057C5.6049 102.301 5.91037 102.647 6.13305 103.097C6.35573 103.546 6.46708 104.079 6.46708 104.695ZM5.7819 104.695C5.7819 104.189 5.69721 103.762 5.52782 103.413C5.36033 103.065 5.13289 102.801 4.8455 102.623C4.56001 102.444 4.24026 102.354 3.88625 102.354C3.53224 102.354 3.21155 102.444 2.92415 102.623C2.63866 102.801 2.41122 103.065 2.24183 103.413C2.07435 103.762 1.9906 104.189 1.9906 104.695C1.9906 105.202 2.07435 105.629 2.24183 105.977C2.41122 106.325 2.63866 106.589 2.92415 106.768C3.21155 106.947 3.53224 107.036 3.88625 107.036C4.24026 107.036 4.56001 106.947 4.8455 106.768C5.13289 106.589 5.36033 106.325 5.52782 105.977C5.69721 105.629 5.7819 105.202 5.7819 104.695ZM7.56621 107.619V103.234H11.0149V107.619H10.3412V103.862H8.23996V107.619H7.56621ZM14.0839 107.71C13.6614 107.71 13.2969 107.617 12.9905 107.43C12.686 107.242 12.4509 106.979 12.2853 106.642C12.1217 106.303 12.0398 105.91 12.0398 105.46C12.0398 105.011 12.1217 104.615 12.2853 104.273C12.4509 103.928 12.6812 103.66 12.9762 103.468C13.2731 103.274 13.6195 103.176 14.0154 103.176C14.2438 103.176 14.4693 103.215 14.692 103.291C14.9147 103.367 15.1174 103.49 15.3001 103.662C15.4828 103.831 15.6284 104.056 15.7369 104.336C15.8454 104.615 15.8996 104.96 15.8996 105.369V105.654H12.5194V105.072H15.2145C15.2145 104.825 15.165 104.604 15.066 104.41C14.9689 104.216 14.83 104.062 14.6492 103.95C14.4703 103.838 14.259 103.782 14.0154 103.782C13.7471 103.782 13.5149 103.848 13.3188 103.982C13.1247 104.113 12.9753 104.284 12.8706 104.495C12.7659 104.707 12.7136 104.933 12.7136 105.175V105.563C12.7136 105.894 12.7707 106.175 12.8849 106.405C13.001 106.634 13.1618 106.808 13.3674 106.928C13.5729 107.046 13.8118 107.105 14.0839 107.105C14.2609 107.105 14.4208 107.08 14.5636 107.031C14.7082 106.979 14.8329 106.903 14.9375 106.802C15.0422 106.699 15.1231 106.572 15.1802 106.42L15.8311 106.602C15.7626 106.823 15.6475 107.017 15.4857 107.185C15.3239 107.35 15.1241 107.48 14.8862 107.573C14.6482 107.664 14.3808 107.71 14.0839 107.71ZM16.9246 109.263V103.234H17.5755V103.93H17.6554C17.7049 103.854 17.7734 103.757 17.861 103.639C17.9504 103.519 18.0779 103.412 18.2435 103.319C18.411 103.224 18.6375 103.176 18.923 103.176C19.2922 103.176 19.6177 103.269 19.8993 103.453C20.181 103.638 20.4009 103.9 20.5588 104.238C20.7168 104.577 20.7958 104.977 20.7958 105.438C20.7958 105.902 20.7168 106.304 20.5588 106.645C20.4009 106.984 20.182 107.247 19.9022 107.433C19.6224 107.618 19.2998 107.71 18.9344 107.71C18.6527 107.71 18.4272 107.663 18.2578 107.57C18.0884 107.475 17.958 107.367 17.8667 107.248C17.7753 107.126 17.7049 107.025 17.6554 106.945H17.5983V109.263H16.9246ZM17.5869 105.426C17.5869 105.757 17.6354 106.049 17.7325 106.303C17.8296 106.554 17.9713 106.751 18.1579 106.894C18.3444 107.034 18.5728 107.105 18.843 107.105C19.1247 107.105 19.3598 107.031 19.5482 106.882C19.7385 106.732 19.8813 106.53 19.9764 106.277C20.0735 106.022 20.122 105.738 20.122 105.426C20.122 105.118 20.0745 104.84 19.9793 104.592C19.886 104.343 19.7442 104.146 19.5539 104.002C19.3655 103.855 19.1285 103.782 18.843 103.782C18.569 103.782 18.3387 103.851 18.1522 103.99C17.9656 104.127 17.8248 104.319 17.7296 104.567C17.6345 104.812 17.5869 105.099 17.5869 105.426ZM23.114 107.721C22.8361 107.721 22.5839 107.669 22.3574 107.564C22.1309 107.458 21.9511 107.305 21.8178 107.105C21.6846 106.903 21.618 106.659 21.618 106.374C21.618 106.123 21.6675 105.919 21.7664 105.763C21.8654 105.605 21.9977 105.481 22.1633 105.392C22.3289 105.302 22.5116 105.236 22.7114 105.192C22.9132 105.146 23.1159 105.11 23.3195 105.084C23.586 105.049 23.802 105.024 23.9676 105.006C24.1351 104.987 24.2569 104.956 24.333 104.912C24.411 104.868 24.45 104.792 24.45 104.684V104.661C24.45 104.379 24.373 104.16 24.2188 104.004C24.0665 103.848 23.8353 103.77 23.5251 103.77C23.2034 103.77 22.9512 103.841 22.7685 103.982C22.5858 104.122 22.4573 104.273 22.3831 104.433L21.7436 104.204C21.8578 103.938 22.0101 103.73 22.2004 103.582C22.3926 103.431 22.602 103.327 22.8285 103.268C23.0569 103.207 23.2814 103.176 23.5022 103.176C23.6431 103.176 23.8048 103.194 23.9876 103.228C24.1722 103.26 24.3501 103.328 24.5214 103.431C24.6946 103.533 24.8383 103.688 24.9525 103.896C25.0667 104.103 25.1238 104.381 25.1238 104.73V107.619H24.45V107.025H24.4158C24.3701 107.12 24.294 107.222 24.1874 107.33C24.0808 107.439 23.939 107.531 23.762 107.607C23.585 107.683 23.369 107.721 23.114 107.721ZM23.2167 107.116C23.4832 107.116 23.7078 107.064 23.8905 106.959C24.0751 106.854 24.214 106.719 24.3073 106.554C24.4025 106.388 24.45 106.214 24.45 106.031V105.415C24.4215 105.449 24.3587 105.48 24.2616 105.509C24.1665 105.536 24.0561 105.559 23.9305 105.58C23.8067 105.599 23.6859 105.616 23.5679 105.632C23.4518 105.645 23.3576 105.656 23.2853 105.666C23.1102 105.689 22.9465 105.726 22.7942 105.777C22.6439 105.827 22.522 105.902 22.4288 106.003C22.3374 106.102 22.2917 106.237 22.2917 106.408C22.2917 106.642 22.3783 106.819 22.5515 106.939C22.7266 107.057 22.9484 107.116 23.2167 107.116ZM25.7569 103.862V103.234H29.3198V103.862H27.8809V107.619H27.2072V103.862H25.7569ZM31.8564 107.71C31.4605 107.71 31.1131 107.616 30.8143 107.427C30.5174 107.239 30.2852 106.975 30.1177 106.637C29.9521 106.298 29.8694 105.902 29.8694 105.449C29.8694 104.992 29.9521 104.593 30.1177 104.253C30.2852 103.912 30.5174 103.647 30.8143 103.459C31.1131 103.271 31.4605 103.176 31.8564 103.176C32.2522 103.176 32.5986 103.271 32.8955 103.459C33.1944 103.647 33.4265 103.912 33.5921 104.253C33.7596 104.593 33.8434 104.992 33.8434 105.449C33.8434 105.902 33.7596 106.298 33.5921 106.637C33.4265 106.975 33.1944 107.239 32.8955 107.427C32.5986 107.616 32.2522 107.71 31.8564 107.71ZM31.8564 107.105C32.1571 107.105 32.4045 107.028 32.5986 106.874C32.7928 106.719 32.9365 106.517 33.0297 106.265C33.123 106.014 33.1696 105.742 33.1696 105.449C33.1696 105.156 33.123 104.883 33.0297 104.63C32.9365 104.376 32.7928 104.172 32.5986 104.016C32.4045 103.86 32.1571 103.782 31.8564 103.782C31.5556 103.782 31.3082 103.86 31.1141 104.016C30.92 104.172 30.7763 104.376 30.683 104.63C30.5897 104.883 30.5431 105.156 30.5431 105.449C30.5431 105.742 30.5897 106.014 30.683 106.265C30.7763 106.517 30.92 106.719 31.1141 106.874C31.3082 107.028 31.5556 107.105 31.8564 107.105ZM34.8718 109.263V103.234H35.5228V103.93H35.6027C35.6522 103.854 35.7207 103.757 35.8082 103.639C35.8977 103.519 36.0252 103.412 36.1908 103.319C36.3583 103.224 36.5848 103.176 36.8703 103.176C37.2395 103.176 37.565 103.269 37.8466 103.453C38.1283 103.638 38.3481 103.9 38.5061 104.238C38.6641 104.577 38.7431 104.977 38.7431 105.438C38.7431 105.902 38.6641 106.304 38.5061 106.645C38.3481 106.984 38.1293 107.247 37.8495 107.433C37.5697 107.618 37.2471 107.71 36.8817 107.71C36.6 107.71 36.3745 107.663 36.2051 107.57C36.0357 107.475 35.9053 107.367 35.814 107.248C35.7226 107.126 35.6522 107.025 35.6027 106.945H35.5456V109.263H34.8718ZM35.5342 105.426C35.5342 105.757 35.5827 106.049 35.6798 106.303C35.7768 106.554 35.9186 106.751 36.1052 106.894C36.2917 107.034 36.5201 107.105 36.7903 107.105C37.072 107.105 37.3071 107.031 37.4955 106.882C37.6858 106.732 37.8286 106.53 37.9237 106.277C38.0208 106.022 38.0693 105.738 38.0693 105.426C38.0693 105.118 38.0217 104.84 37.9266 104.592C37.8333 104.343 37.6915 104.146 37.5012 104.002C37.3128 103.855 37.0758 103.782 36.7903 103.782C36.5163 103.782 36.286 103.851 36.0994 103.99C35.9129 104.127 35.7721 104.319 35.6769 104.567C35.5818 104.812 35.5342 105.099 35.5342 105.426Z" fill="#7A7A7A"/>
</svg>
