<svg width="120" height="120" viewBox="0 0 120 120" fill="none" xmlns="http://www.w3.org/2000/svg">
<path d="M59.905 65.2748C63.0973 65.2748 65.6851 62.687 65.6851 59.4949C65.6851 56.3026 63.0973 53.7148 59.905 53.7148C56.7128 53.7148 54.125 56.3026 54.125 59.4949C54.125 62.687 56.7128 65.2748 59.905 65.2748Z" fill="#0D6EFD"/>
<path d="M59.905 65.2748C63.0973 65.2748 65.6851 62.687 65.6851 59.4949C65.6851 56.3026 63.0973 53.7148 59.905 53.7148C56.7128 53.7148 54.125 56.3026 54.125 59.4949C54.125 62.687 56.7128 65.2748 59.905 65.2748Z" fill="url(#paint0_linear_996_261)"/>
<path d="M42.1238 65.2748C45.316 65.2748 47.9038 62.687 47.9038 59.4949C47.9038 56.3026 45.316 53.7148 42.1238 53.7148C38.9315 53.7148 36.3438 56.3026 36.3438 59.4949C36.3438 62.687 38.9315 65.2748 42.1238 65.2748Z" fill="#0D6EFD"/>
<path d="M42.1238 65.2748C45.316 65.2748 47.9038 62.687 47.9038 59.4949C47.9038 56.3026 45.316 53.7148 42.1238 53.7148C38.9315 53.7148 36.3438 56.3026 36.3438 59.4949C36.3438 62.687 38.9315 65.2748 42.1238 65.2748Z" fill="url(#paint1_linear_996_261)"/>
<path d="M77.6824 65.2748C80.8746 65.2748 83.4624 62.687 83.4624 59.4949C83.4624 56.3026 80.8746 53.7148 77.6824 53.7148C74.4901 53.7148 71.9023 56.3026 71.9023 59.4949C71.9023 62.687 74.4901 65.2748 77.6824 65.2748Z" fill="#0D6EFD"/>
<path d="M77.6824 65.2748C80.8746 65.2748 83.4624 62.687 83.4624 59.4949C83.4624 56.3026 80.8746 53.7148 77.6824 53.7148C74.4901 53.7148 71.9023 56.3026 71.9023 59.4949C71.9023 62.687 74.4901 65.2748 77.6824 65.2748Z" fill="url(#paint2_linear_996_261)"/>
<path d="M101.702 31.9997C97.5657 36.5511 90.4283 36.921 86.0217 32.6334C79.2124 26.017 69.9264 21.9385 59.6851 21.9385C33.0525 21.9385 6.97314 35.3481 0.0351562 57.394C1.20274 26.2647 26.6034 1.02488 57.7391 0.0309864C74.6289 -0.506168 90.0037 5.97507 101.181 16.7761C105.431 20.8867 105.678 27.6253 101.702 31.9997Z" fill="url(#paint3_linear_996_261)"/>
<path d="M21.9408 59.6902C21.9408 63.7301 22.5712 67.6253 23.7485 71.276C25.5883 76.9724 25.3728 83.1256 22.8607 88.555L16.9392 101.341C5.96448 90.0828 -0.597167 74.5086 0.0429154 57.3968C6.97768 35.3478 33.0602 21.9414 59.6928 21.9414C38.8435 21.9414 21.9408 38.8377 21.9408 59.6934V59.6902Z" fill="url(#paint4_linear_996_261)"/>
<path d="M101.707 87.3776C105.698 91.7746 105.413 98.5195 101.14 102.64C90.407 113.004 75.7944 119.379 59.6895 119.379C43.5845 119.379 28.7918 112.923 18.0391 102.444L30.8085 96.5221C36.2412 94.0036 42.4008 93.7945 48.1004 95.6311C51.7511 96.8084 55.6463 97.442 59.6895 97.442C69.9308 97.442 79.22 93.3635 86.0229 86.744C90.4295 82.4564 97.5701 82.823 101.703 87.3776H101.707Z" fill="url(#paint5_linear_996_261)"/>
<path d="M5 38C5 38 30 20 42.5 20C55 20 45 23.5 45 23.5L0 57L5 38Z" fill="#0D6EFD"/>
<path d="M40 16L61.5 15L55 22L37.5 26L40 16Z" fill="#0D6EFD"/>
<defs>
<linearGradient id="paint0_linear_996_261" x1="36.3442" y1="59.4948" x2="95.0292" y2="59.4948" gradientUnits="userSpaceOnUse">
<stop stop-color="#0D6EFD"/>
<stop offset="1" stop-color="#0D6EFD"/>
</linearGradient>
<linearGradient id="paint1_linear_996_261" x1="36.3438" y1="59.4948" x2="95.0287" y2="59.4948" gradientUnits="userSpaceOnUse">
<stop stop-color="#0D6EFD"/>
<stop offset="1" stop-color="#0D6EFD" stop-opacity="0.49"/>
</linearGradient>
<linearGradient id="paint2_linear_996_261" x1="36.344" y1="59.4948" x2="95.029" y2="59.4948" gradientUnits="userSpaceOnUse">
<stop stop-color="#0D6EFD"/>
<stop offset="1" stop-color="#0D6EFD"/>
</linearGradient>
<linearGradient id="paint3_linear_996_261" x1="0.0351562" y1="28.6964" x2="130.184" y2="28.6964" gradientUnits="userSpaceOnUse">
<stop stop-color="#0D6EFD"/>
<stop offset="1" stop-color="#0D6EFD"/>
</linearGradient>
<linearGradient id="paint4_linear_996_261" x1="85.8815" y1="143.245" x2="21.0531" y2="34.2349" gradientUnits="userSpaceOnUse">
<stop stop-color="#0D6EFD"/>
<stop offset="1" stop-color="#0D6EFD"/>
</linearGradient>
<linearGradient id="paint5_linear_996_261" x1="87.9946" y1="141.984" x2="23.1694" y2="32.9738" gradientUnits="userSpaceOnUse">
<stop stop-color="#0D6EFD"/>
<stop offset="1" stop-color="#0D6EFD"/>
</linearGradient>
</defs>
</svg>
