<svg width="530" height="62" viewBox="0 0 530 62" fill="none" xmlns="http://www.w3.org/2000/svg">
<rect x="0.604309" y="0.81543" width="528.789" height="60.2939" rx="10" fill="#EEEEEE"/>
<mask id="mask0_22_241" style="mask-type:alpha" maskUnits="userSpaceOnUse" x="-1" y="0" width="184" height="62">
<rect x="-0.00128174" y="0.81543" width="182.514" height="60.2939" rx="10" fill="white"/>
</mask>
<g mask="url(#mask0_22_241)">
<rect width="584.136" height="158.409" transform="matrix(0.866025 0.5 -0.550697 0.834705 -84.3358 -156.958)" fill="white"/>
<line y1="-0.5" x2="158.409" y2="-0.5" transform="matrix(-0.550697 0.834705 -0.866025 -0.5 2.26685 -106.958)" stroke="black"/>
<line y1="-0.5" x2="158.409" y2="-0.5" transform="matrix(-0.550697 0.834705 -0.866025 -0.5 6.59698 -104.458)" stroke="black"/>
<line y1="-0.5" x2="158.409" y2="-0.5" transform="matrix(-0.550697 0.834705 -0.866025 -0.5 10.9271 -101.958)" stroke="black"/>
<line y1="-0.5" x2="158.409" y2="-0.5" transform="matrix(-0.550697 0.834705 -0.866025 -0.5 15.2572 -99.458)" stroke="black"/>
<line y1="-0.5" x2="158.409" y2="-0.5" transform="matrix(-0.550697 0.834705 -0.866025 -0.5 19.5873 -96.958)" stroke="black"/>
<line y1="-0.5" x2="158.409" y2="-0.5" transform="matrix(-0.550697 0.834705 -0.866025 -0.5 23.9175 -94.458)" stroke="black"/>
<line y1="-0.5" x2="158.409" y2="-0.5" transform="matrix(-0.550697 0.834705 -0.866025 -0.5 28.2476 -91.958)" stroke="black"/>
<line y1="-0.5" x2="158.409" y2="-0.5" transform="matrix(-0.550697 0.834705 -0.866025 -0.5 32.5778 -89.458)" stroke="black"/>
<line y1="-0.5" x2="158.409" y2="-0.5" transform="matrix(-0.550697 0.834705 -0.866025 -0.5 36.9079 -86.958)" stroke="black"/>
<line y1="-0.5" x2="158.409" y2="-0.5" transform="matrix(-0.550697 0.834705 -0.866025 -0.5 41.238 -84.458)" stroke="black"/>
<line y1="-0.5" x2="158.409" y2="-0.5" transform="matrix(-0.550697 0.834705 -0.866025 -0.5 45.5681 -81.958)" stroke="black"/>
<line y1="-0.5" x2="158.409" y2="-0.5" transform="matrix(-0.550697 0.834705 -0.866025 -0.5 49.8983 -79.458)" stroke="black"/>
<line y1="-0.5" x2="158.409" y2="-0.5" transform="matrix(-0.550697 0.834705 -0.866025 -0.5 54.2284 -76.958)" stroke="black"/>
<line y1="-0.5" x2="158.409" y2="-0.5" transform="matrix(-0.550697 0.834705 -0.866025 -0.5 58.5585 -74.458)" stroke="black"/>
<line y1="-0.5" x2="158.409" y2="-0.5" transform="matrix(-0.550697 0.834705 -0.866025 -0.5 62.8886 -71.958)" stroke="black"/>
<line y1="-0.5" x2="158.409" y2="-0.5" transform="matrix(-0.550697 0.834705 -0.866025 -0.5 67.2188 -69.458)" stroke="black"/>
<line y1="-0.5" x2="158.409" y2="-0.5" transform="matrix(-0.550697 0.834705 -0.866025 -0.5 71.5489 -66.958)" stroke="black"/>
<line y1="-0.5" x2="158.409" y2="-0.5" transform="matrix(-0.550697 0.834705 -0.866025 -0.5 75.879 -64.458)" stroke="black"/>
<line y1="-0.5" x2="158.409" y2="-0.5" transform="matrix(-0.550697 0.834705 -0.866025 -0.5 80.2092 -61.958)" stroke="black"/>
<line y1="-0.5" x2="158.409" y2="-0.5" transform="matrix(-0.550697 0.834705 -0.866025 -0.5 84.5392 -59.458)" stroke="black"/>
<line y1="-0.5" x2="158.409" y2="-0.5" transform="matrix(-0.550697 0.834705 -0.866025 -0.5 88.8694 -56.958)" stroke="black"/>
<line y1="-0.5" x2="158.409" y2="-0.5" transform="matrix(-0.550697 0.834705 -0.866025 -0.5 93.1995 -54.458)" stroke="black"/>
<line y1="-0.5" x2="158.409" y2="-0.5" transform="matrix(-0.550697 0.834705 -0.866025 -0.5 97.5297 -51.958)" stroke="black"/>
<line y1="-0.5" x2="158.409" y2="-0.5" transform="matrix(-0.550697 0.834705 -0.866025 -0.5 101.86 -49.458)" stroke="black"/>
<line y1="-0.5" x2="158.409" y2="-0.5" transform="matrix(-0.550697 0.834705 -0.866025 -0.5 106.19 -46.958)" stroke="black"/>
<line y1="-0.5" x2="158.409" y2="-0.5" transform="matrix(-0.550697 0.834705 -0.866025 -0.5 110.52 -44.458)" stroke="black"/>
<line y1="-0.5" x2="158.409" y2="-0.5" transform="matrix(-0.550697 0.834705 -0.866025 -0.5 114.85 -41.958)" stroke="black"/>
<line y1="-0.5" x2="158.409" y2="-0.5" transform="matrix(-0.550697 0.834705 -0.866025 -0.5 119.18 -39.458)" stroke="black"/>
<line y1="-0.5" x2="158.409" y2="-0.5" transform="matrix(-0.550697 0.834705 -0.866025 -0.5 123.51 -36.958)" stroke="black"/>
<line y1="-0.5" x2="158.409" y2="-0.5" transform="matrix(-0.550697 0.834705 -0.866025 -0.5 127.841 -34.458)" stroke="black"/>
<line y1="-0.5" x2="158.409" y2="-0.5" transform="matrix(-0.550697 0.834705 -0.866025 -0.5 132.171 -31.958)" stroke="black"/>
<line y1="-0.5" x2="158.409" y2="-0.5" transform="matrix(-0.550697 0.834705 -0.866025 -0.5 136.501 -29.458)" stroke="black"/>
<line y1="-0.5" x2="158.409" y2="-0.5" transform="matrix(-0.550697 0.834705 -0.866025 -0.5 140.831 -26.958)" stroke="black"/>
<line y1="-0.5" x2="158.409" y2="-0.5" transform="matrix(-0.550697 0.834705 -0.866025 -0.5 145.161 -24.458)" stroke="black"/>
<line y1="-0.5" x2="158.409" y2="-0.5" transform="matrix(-0.550697 0.834705 -0.866025 -0.5 149.491 -21.958)" stroke="black"/>
<line y1="-0.5" x2="158.409" y2="-0.5" transform="matrix(-0.550697 0.834705 -0.866025 -0.5 153.821 -19.458)" stroke="black"/>
<line y1="-0.5" x2="158.409" y2="-0.5" transform="matrix(-0.550697 0.834705 -0.866025 -0.5 158.151 -16.958)" stroke="black"/>
<line y1="-0.5" x2="158.409" y2="-0.5" transform="matrix(-0.550697 0.834705 -0.866025 -0.5 162.482 -14.458)" stroke="black"/>
<line y1="-0.5" x2="158.409" y2="-0.5" transform="matrix(-0.550697 0.834705 -0.866025 -0.5 166.812 -11.958)" stroke="black"/>
<line y1="-0.5" x2="158.409" y2="-0.5" transform="matrix(-0.550697 0.834705 -0.866025 -0.5 171.142 -9.45801)" stroke="black"/>
<line y1="-0.5" x2="158.409" y2="-0.5" transform="matrix(-0.550697 0.834705 -0.866025 -0.5 175.472 -6.95801)" stroke="black"/>
<line y1="-0.5" x2="158.409" y2="-0.5" transform="matrix(-0.550697 0.834705 -0.866025 -0.5 179.802 -4.45801)" stroke="black"/>
<line y1="-0.5" x2="158.409" y2="-0.5" transform="matrix(-0.550697 0.834705 -0.866025 -0.5 184.132 -1.95801)" stroke="black"/>
<line y1="-0.5" x2="158.409" y2="-0.5" transform="matrix(-0.550697 0.834705 -0.866025 -0.5 188.462 0.541992)" stroke="black"/>
<line y1="-0.5" x2="158.409" y2="-0.5" transform="matrix(-0.550697 0.834705 -0.866025 -0.5 192.792 3.04199)" stroke="black"/>
<line y1="-0.5" x2="158.409" y2="-0.5" transform="matrix(-0.550697 0.834705 -0.866025 -0.5 197.123 5.54199)" stroke="black"/>
<line y1="-0.5" x2="158.409" y2="-0.5" transform="matrix(-0.550697 0.834705 -0.866025 -0.5 201.453 8.04199)" stroke="black"/>
<line y1="-0.5" x2="158.409" y2="-0.5" transform="matrix(-0.550697 0.834705 -0.866025 -0.5 205.783 10.542)" stroke="black"/>
<line y1="-0.5" x2="158.409" y2="-0.5" transform="matrix(-0.550697 0.834705 -0.866025 -0.5 210.113 13.042)" stroke="black"/>
<line y1="-0.5" x2="158.409" y2="-0.5" transform="matrix(-0.550697 0.834705 -0.866025 -0.5 214.443 15.542)" stroke="black"/>
<line y1="-0.5" x2="158.409" y2="-0.5" transform="matrix(-0.550697 0.834705 -0.866025 -0.5 218.773 18.042)" stroke="black"/>
<line y1="-0.5" x2="158.409" y2="-0.5" transform="matrix(-0.550697 0.834705 -0.866025 -0.5 223.103 20.542)" stroke="black"/>
<line y1="-0.5" x2="158.409" y2="-0.5" transform="matrix(-0.550697 0.834705 -0.866025 -0.5 227.433 23.042)" stroke="black"/>
<line y1="-0.5" x2="158.409" y2="-0.5" transform="matrix(-0.550697 0.834705 -0.866025 -0.5 231.764 25.542)" stroke="black"/>
<line y1="-0.5" x2="158.409" y2="-0.5" transform="matrix(-0.550697 0.834705 -0.866025 -0.5 236.094 28.042)" stroke="black"/>
<line y1="-0.5" x2="158.409" y2="-0.5" transform="matrix(-0.550697 0.834705 -0.866025 -0.5 240.424 30.542)" stroke="black"/>
<line y1="-0.5" x2="158.409" y2="-0.5" transform="matrix(-0.550697 0.834705 -0.866025 -0.5 244.754 33.042)" stroke="black"/>
<line y1="-0.5" x2="158.409" y2="-0.5" transform="matrix(-0.550697 0.834705 -0.866025 -0.5 249.084 35.542)" stroke="black"/>
<line y1="-0.5" x2="158.409" y2="-0.5" transform="matrix(-0.550697 0.834705 -0.866025 -0.5 253.414 38.042)" stroke="black"/>
<line y1="-0.5" x2="158.409" y2="-0.5" transform="matrix(-0.550697 0.834705 -0.866025 -0.5 257.744 40.542)" stroke="black"/>
<line y1="-0.5" x2="158.409" y2="-0.5" transform="matrix(-0.550697 0.834705 -0.866025 -0.5 262.074 43.042)" stroke="black"/>
<line y1="-0.5" x2="158.409" y2="-0.5" transform="matrix(-0.550697 0.834705 -0.866025 -0.5 266.405 45.542)" stroke="black"/>
</g>
</svg>
