<svg width="331" height="191" viewBox="0 0 331 191" fill="none" xmlns="http://www.w3.org/2000/svg">
<path d="M40.4092 22.9319H11.2425C10.0919 22.9319 9.15915 23.8646 9.15915 25.0152V54.1819C9.15915 55.3325 10.0919 56.2652 11.2425 56.2652H40.4092C41.5597 56.2652 42.4925 55.3325 42.4925 54.1819V25.0152C42.4925 23.8646 41.5597 22.9319 40.4092 22.9319Z" fill="#77CA20" stroke="#77CA20" stroke-width="2" stroke-linecap="round" stroke-linejoin="round"/>
<path d="M17.4925 39.5986L23.7425 45.8486L34.1592 33.3486" stroke="white" stroke-width="2" stroke-linecap="round" stroke-linejoin="round"/>
<rect x="64.8258" y="24.5488" width="94.9805" height="11.5498" rx="5.7749" fill="#D3D3D3"/>
<rect x="64.8258" y="43.0986" width="169.862" height="11.5498" rx="5.7749" fill="#D3D3D3"/>
<path d="M17.4925 95.5986L23.7425 101.849L34.1591 89.3486" stroke="#D3D3D3" stroke-width="2" stroke-linecap="round" stroke-linejoin="round"/>
<path d="M40.4092 78.9319H11.2425C10.0919 78.9319 9.15915 79.8646 9.15915 81.0152V110.182C9.15915 111.332 10.0919 112.265 11.2425 112.265H40.4092C41.5597 112.265 42.4925 111.332 42.4925 110.182V81.0152C42.4925 79.8646 41.5597 78.9319 40.4092 78.9319Z" stroke="#D3D3D3" stroke-width="2" stroke-linecap="round" stroke-linejoin="round"/>
<rect x="64.8258" y="80.5488" width="94.9805" height="11.5498" rx="5.7749" fill="#D3D3D3"/>
<rect x="64.8258" y="99.0986" width="169.862" height="11.5498" rx="5.7749" fill="#D3D3D3"/>
<path d="M17.4925 151.599L23.7425 157.849L34.1591 145.349" stroke="#D3D3D3" stroke-width="2" stroke-linecap="round" stroke-linejoin="round"/>
<path d="M40.4092 134.932H11.2425C10.0919 134.932 9.15915 135.865 9.15915 137.015V166.182C9.15915 167.332 10.0919 168.265 11.2425 168.265H40.4092C41.5597 168.265 42.4925 167.332 42.4925 166.182V137.015C42.4925 135.865 41.5597 134.932 40.4092 134.932Z" stroke="#D3D3D3" stroke-width="2" stroke-linecap="round" stroke-linejoin="round"/>
<rect x="64.8258" y="136.549" width="94.9805" height="11.5498" rx="5.7749" fill="#D3D3D3"/>
<rect x="64.8258" y="155.099" width="169.862" height="11.5498" rx="5.7749" fill="#D3D3D3"/>
</svg>
