<svg width="236" height="132" viewBox="0 0 236 132" fill="none" xmlns="http://www.w3.org/2000/svg">
<g clip-path="url(#clip0_45_591)">
<path d="M24.8205 64.3103C24.8205 53.6457 33.5454 45 44.3077 45H169.513C180.275 45 189 53.6457 189 64.3103V67.6897C189 78.3543 180.275 87 169.513 87H18L21.1633 82.6341C23.5414 79.3517 24.8205 75.413 24.8205 71.3723V64.3103Z" fill="#DEF1FD"/>
<path d="M46.9633 60.525L43.5378 73.1356H42.1521L45.5775 60.525H46.9633ZM54.9862 65.5805L53.5797 65.8274C53.5208 65.649 53.4275 65.4793 53.2994 65.3182C53.1748 65.157 53.0053 65.025 52.7908 64.9222C52.5762 64.8193 52.3081 64.7679 51.9863 64.7679C51.5469 64.7679 51.1801 64.8656 50.886 65.061C50.5919 65.253 50.4448 65.5016 50.4448 65.8067C50.4448 66.0708 50.5434 66.2834 50.7407 66.4445C50.9379 66.6057 51.2562 66.7376 51.6957 66.8405L52.962 67.1285C53.6956 67.2965 54.2423 67.5554 54.6021 67.9051C54.962 68.2549 55.1419 68.7091 55.1419 69.268C55.1419 69.7412 55.0035 70.1629 54.7267 70.5332C54.4534 70.9001 54.071 71.1881 53.5797 71.3972C53.0918 71.6064 52.5261 71.711 51.8825 71.711C50.9898 71.711 50.2615 71.5224 49.6975 71.1452C49.1335 70.7646 48.7875 70.2246 48.6594 69.5252L50.1594 69.2989C50.2528 69.6863 50.4448 69.9795 50.7355 70.1783C51.0261 70.3738 51.405 70.4715 51.8721 70.4715C52.3807 70.4715 52.7873 70.3669 53.0918 70.1577C53.3963 69.9452 53.5485 69.6863 53.5485 69.3812C53.5485 69.1343 53.4551 68.9269 53.2683 68.7589C53.0849 68.5909 52.8029 68.464 52.4223 68.3783L51.0729 68.0851C50.3289 67.9171 49.7788 67.6497 49.4224 67.2828C49.0694 66.9159 48.893 66.4514 48.893 65.8891C48.893 65.4228 49.0245 65.0147 49.2874 64.665C49.5504 64.3153 49.9137 64.0427 50.3774 63.8473C50.841 63.6484 51.3721 63.549 51.9707 63.549C52.8323 63.549 53.5105 63.7341 54.0052 64.1044C54.5001 64.4713 54.827 64.9633 54.9862 65.5805ZM61.3 63.6519V64.8862H56.9455V63.6519H61.3ZM58.1133 61.7592H59.6651V69.2318C59.6651 69.5301 59.7101 69.7547 59.8001 69.9056C59.8901 70.053 60.006 70.1541 60.1478 70.209C60.2932 70.2604 60.4506 70.2862 60.6201 70.2862C60.7447 70.2862 60.8537 70.2776 60.9471 70.2604C61.0406 70.2433 61.1132 70.2296 61.1651 70.2193L61.4454 71.4896C61.3554 71.5239 61.2274 71.5582 61.0613 71.5925C60.8952 71.6302 60.6876 71.6508 60.4385 71.6542C60.0302 71.6611 59.6496 71.589 59.2966 71.4382C58.9437 71.2873 58.6583 71.0542 58.4403 70.7387C58.2223 70.4233 58.1133 70.0273 58.1133 69.5507V61.7592ZM66.0675 71.7262C65.5623 71.7262 65.1056 71.6337 64.6973 71.4485C64.289 71.2599 63.9655 70.9874 63.7267 70.6308C63.4915 70.2742 63.3738 69.8371 63.3738 69.3193C63.3738 68.8736 63.4603 68.5067 63.6333 68.2187C63.8063 67.9307 64.0399 67.7027 64.334 67.5347C64.6281 67.3667 64.9568 67.2398 65.3201 67.1541C65.6834 67.0684 66.0536 67.0032 66.4308 66.9587C66.9083 66.9038 67.2956 66.8592 67.5933 66.8249C67.8909 66.7872 68.1072 66.7272 68.2422 66.6449C68.3771 66.5626 68.4444 66.4289 68.4444 66.2438V66.2078C68.4444 65.7586 68.3167 65.4106 68.0605 65.1638C67.8081 64.9169 67.4305 64.7934 66.9292 64.7934C66.4066 64.7934 65.9948 64.9083 65.6938 65.138C65.3962 65.3643 65.1903 65.6163 65.0762 65.894L63.6177 65.5649C63.7907 65.0849 64.0433 64.6975 64.3755 64.4026C64.7111 64.1043 65.0969 63.8883 65.5329 63.7545C65.9689 63.6174 66.4273 63.5488 66.9083 63.5488C67.2264 63.5488 67.564 63.5865 67.9202 63.662C68.2802 63.734 68.6159 63.8677 68.9272 64.0631C69.2419 64.2586 69.5001 64.538 69.7008 64.9014C69.901 65.2615 70.0014 65.7295 70.0014 66.3055V71.5511H68.4863V70.4711H68.4239C68.3235 70.67 68.173 70.8654 67.9723 71.0574C67.7716 71.2494 67.5139 71.4089 67.1991 71.5357C66.8839 71.6626 66.5069 71.7262 66.0675 71.7262ZM66.4048 70.4919C66.8338 70.4919 67.2006 70.4079 67.5051 70.2399C67.813 70.0719 68.0468 69.8525 68.2057 69.5816C68.3684 69.3073 68.4497 69.0141 68.4497 68.7021V67.6838C68.3942 67.7387 68.287 67.7901 68.1282 67.8381C67.9723 67.8827 67.794 67.9221 67.5933 67.9564C67.3925 67.9873 67.1972 68.0164 67.0067 68.0438C66.8167 68.0678 66.6574 68.0884 66.5294 68.1055C66.2284 68.1432 65.9533 68.2067 65.7042 68.2958C65.4585 68.385 65.2613 68.5136 65.1125 68.6816C64.9672 68.8461 64.8945 69.0656 64.8945 69.3399C64.8945 69.7205 65.0364 70.0085 65.3201 70.2039C65.6038 70.3959 65.9654 70.4919 66.4048 70.4919ZM72.7991 71.5514V63.6515H74.2991V64.9064H74.3819C74.5276 64.4812 74.7834 64.1469 75.1502 63.9035C75.5205 63.6566 75.9389 63.5332 76.4061 63.5332C76.5031 63.5332 76.6171 63.5366 76.7486 63.5435C76.8836 63.5503 76.9893 63.5589 77.0653 63.5692V65.0401C77.0029 65.023 76.8923 65.0041 76.733 64.9835C76.5742 64.9595 76.4149 64.9475 76.2556 64.9475C75.8888 64.9475 75.5619 65.0247 75.2749 65.179C74.9909 65.3298 74.7663 65.5407 74.6002 65.8116C74.434 66.079 74.3512 66.3842 74.3512 66.727V71.5512L72.7991 71.5514ZM83.3314 63.6515V64.8858H78.977V63.6515H83.3314ZM80.1448 61.7589H81.6964V69.2315C81.6964 69.5298 81.7417 69.7544 81.8314 69.9052C81.9215 70.0527 82.0375 70.1538 82.1792 70.2087C82.3244 70.2601 82.4818 70.2858 82.6513 70.2858C82.776 70.2858 82.8851 70.2772 82.9787 70.2601C83.0717 70.243 83.1448 70.2292 83.1965 70.219L83.4766 71.4893C83.3869 71.5236 83.2588 71.5578 83.0927 71.5921C82.9266 71.6299 82.719 71.6504 82.4701 71.6539C82.0618 71.6607 81.6808 71.5887 81.3281 71.4378C80.9749 71.287 80.6899 71.0538 80.4717 70.7384C80.2539 70.423 80.1448 70.0269 80.1448 69.5503V61.7589Z" fill="black"/>
<path d="M105.39 67.2947V77.8276H103.782V68.8888H103.719L101.176 70.5346V69.0122L103.828 67.2944L105.39 67.2947ZM108.996 77.8276V76.6755L112.593 72.9828C112.978 72.5817 113.294 72.2302 113.543 71.9285C113.796 71.6233 113.984 71.3336 114.109 71.0593C114.234 70.785 114.296 70.4936 114.296 70.185C114.296 69.8353 114.213 69.5336 114.046 69.2798C113.88 69.0227 113.654 68.8256 113.367 68.6884C113.079 68.5478 112.756 68.4775 112.396 68.4775C112.015 68.4775 111.683 68.5547 111.4 68.709C111.116 68.8633 110.898 69.081 110.746 69.3622C110.593 69.6433 110.517 69.9725 110.517 70.3496H108.986C108.986 69.7084 109.135 69.1479 109.432 68.6678C109.73 68.1878 110.138 67.8158 110.658 67.5518C111.176 67.2844 111.766 67.1506 112.427 67.1506C113.095 67.1506 113.683 67.2827 114.192 67.5466C114.704 67.8072 115.104 68.1638 115.391 68.6164C115.678 69.0655 115.822 69.573 115.822 70.1388C115.822 70.5296 115.747 70.9119 115.599 71.2857C115.453 71.6594 115.199 72.0759 114.835 72.5354C114.472 72.9914 113.967 73.5452 113.32 74.1966L111.208 76.3875V76.4646H115.993V77.8276H108.996ZM119.734 76.5212C119.45 76.5212 119.206 76.4218 119.002 76.2229C118.798 76.0206 118.696 75.7772 118.696 75.4927C118.696 75.2115 118.798 74.9715 119.002 74.7726C119.206 74.5703 119.45 74.4692 119.734 74.4692C120.018 74.4692 120.261 74.5703 120.466 74.7726C120.67 74.9715 120.772 75.2115 120.772 75.4927C120.772 75.6812 120.723 75.8543 120.627 76.0121C120.533 76.1663 120.409 76.2898 120.253 76.3824C120.097 76.475 119.924 76.5212 119.734 76.5212ZM119.734 71.2447C119.45 71.2447 119.206 71.1453 119.002 70.9464C118.798 70.7441 118.696 70.5006 118.696 70.2161C118.696 69.9349 118.798 69.6949 119.002 69.4961C119.206 69.2937 119.45 69.1926 119.734 69.1926C120.018 69.1926 120.261 69.2937 120.466 69.4961C120.67 69.6949 120.772 69.9349 120.772 70.2161C120.772 70.4047 120.723 70.5778 120.627 70.7355C120.533 70.8898 120.409 71.0132 120.253 71.1058C120.097 71.1984 119.924 71.2447 119.734 71.2447ZM123.561 77.8276V76.6755L127.157 72.9828C127.541 72.5817 127.858 72.2302 128.107 71.9285C128.36 71.6233 128.548 71.3336 128.673 71.0593C128.797 70.785 128.86 70.4936 128.86 70.185C128.86 69.8353 128.777 69.5336 128.611 69.2798C128.445 69.0227 128.218 68.8256 127.931 68.6884C127.644 68.5478 127.32 68.4775 126.96 68.4775C126.58 68.4775 126.247 68.5547 125.963 68.709C125.68 68.8633 125.462 69.081 125.31 69.3622C125.158 69.6433 125.081 69.9725 125.081 70.3496H123.55C123.55 69.7084 123.699 69.1479 123.997 68.6678C124.294 68.1878 124.703 67.8158 125.221 67.5518C125.74 67.2844 126.33 67.1506 126.991 67.1506C127.659 67.1506 128.247 67.2827 128.756 67.5466C129.268 67.8072 129.667 68.1638 129.955 68.6164C130.242 69.0655 130.385 69.573 130.385 70.1388C130.385 70.5296 130.311 70.9119 130.162 71.2857C130.017 71.6594 129.763 72.0759 129.399 72.5354C129.036 72.9914 128.531 73.5452 127.884 74.1966L125.771 76.3875V76.4646H130.557V77.8276H123.561ZM132.803 75.7703V74.4846L137.396 67.2944H138.419V69.1871H137.77L134.485 74.3405V74.4228H140.78V75.7702L132.803 75.7703ZM137.843 77.8276V75.3795L137.853 74.7932V67.2945H139.374V77.8273L137.843 77.8276Z" fill="#ACACAC"/>
<path d="M167.905 67.623C168.188 67.382 168.554 67.2512 168.929 67.2546C169.306 67.256 169.668 67.3921 169.947 67.6369C170.22 67.8791 170.379 68.2081 170.388 68.5533C170.393 68.7271 170.361 68.8998 170.294 69.0608C170.227 69.2219 170.129 69.3679 170.002 69.4907L162.181 78.3667C162.044 78.4999 161.882 78.6055 161.703 78.6772C161.523 78.7502 161.328 78.7896 161.131 78.793C160.935 78.7965 160.739 78.7641 160.554 78.6957C160.368 78.6274 160.204 78.5289 160.064 78.4026L154.877 73.6953C154.734 73.576 154.618 73.4277 154.536 73.262C154.456 73.0963 154.414 72.9226 154.41 72.743C154.406 72.5634 154.442 72.385 154.516 72.2204C154.591 72.0559 154.701 71.9018 154.84 71.7767C154.978 71.6516 155.148 71.5485 155.329 71.4824C155.511 71.4164 155.708 71.3828 155.906 71.3863C156.102 71.389 156.296 71.4279 156.477 71.501C156.656 71.5726 156.818 71.6777 156.955 71.8103L161.06 75.5328L167.866 67.6624C167.878 67.6485 167.891 67.6346 167.905 67.623ZM166.102 76.7655L167.905 78.4026C168.047 78.53 168.213 78.6297 168.393 78.6957C168.574 78.7618 168.773 78.7954 168.97 78.7919C169.167 78.7884 169.361 78.749 169.543 78.676C169.724 78.603 169.886 78.4976 170.019 78.3667L177.845 69.4907C177.985 69.3644 178.096 69.2137 178.171 69.0481C178.246 68.8836 178.284 68.7054 178.282 68.5255C178.279 68.3456 178.237 68.1683 178.158 68.0054C178.078 67.8408 177.964 67.6925 177.82 67.5697C177.675 67.4469 177.505 67.3508 177.322 67.2894C177.138 67.228 176.938 67.2002 176.742 67.2083C176.545 67.2164 176.351 67.2616 176.174 67.3392C175.997 67.416 175.838 67.5258 175.705 67.6624L168.898 75.5328L167.948 74.6685L166.099 76.7655H166.102Z" fill="#6DC7FF"/>
</g>
<defs>
<clipPath id="clip0_45_591">
<rect width="171" height="42" fill="white" transform="translate(18 45)"/>
</clipPath>
</defs>
</svg>
