<svg width="221" height="61" viewBox="0 0 221 61" fill="none" xmlns="http://www.w3.org/2000/svg">
<rect x="0.5" y="0.5" width="219.671" height="59.2234" rx="9.5" fill="white" stroke="#F0F0F0"/>
<path d="M63.6472 15.9118H65.0072V27.1118H63.6472V15.9118ZM69.4072 15.9118H71.0872L66.2392 21.1598L71.3272 27.1118H69.6472L64.5912 21.1918L69.4072 15.9118ZM79.0621 19.7518V27.1118H77.7821V20.9518H74.0221V24.5518C74.0221 25.1278 73.9314 25.6078 73.7501 25.9918C73.5794 26.3651 73.3127 26.6478 72.9501 26.8398C72.5874 27.0211 72.1287 27.1118 71.5741 27.1118V25.9438C71.8941 25.9438 72.1661 25.8425 72.3901 25.6398C72.6247 25.4371 72.7421 25.0745 72.7421 24.5518V19.7518H79.0621ZM87.6959 21.0318L81.6159 27.6718L81.6959 25.8318L87.7759 19.1918L87.6959 21.0318ZM82.8959 19.7518V25.9118L81.6159 27.6718V19.7518H82.8959ZM87.7759 19.1918V27.1118H86.4959V20.9518L87.7759 19.1918ZM90.4307 23.7518V22.6638H95.3427C95.3 22.2798 95.1934 21.9438 95.0227 21.6558C94.8627 21.3571 94.6334 21.1278 94.3347 20.9678C94.0467 20.7971 93.6894 20.7118 93.2627 20.7118C92.836 20.7118 92.4467 20.8025 92.0947 20.9838C91.7427 21.1651 91.46 21.4265 91.2467 21.7678C91.044 22.0985 90.9427 22.4931 90.9427 22.9518L90.9107 23.4318C90.9107 23.9971 91.0067 24.4771 91.1987 24.8718C91.3907 25.2665 91.6627 25.5651 92.0147 25.7678C92.3667 25.9705 92.7827 26.0718 93.2627 26.0718C93.6254 26.0718 93.9454 26.0185 94.2227 25.9118C94.5107 25.7945 94.7667 25.6398 94.9907 25.4478C95.2147 25.2451 95.4067 25.0105 95.5667 24.7438L96.6067 25.3998C96.3614 25.7731 96.0894 26.1038 95.7907 26.3918C95.492 26.6691 95.1294 26.8878 94.7027 27.0478C94.276 27.1971 93.7427 27.2718 93.1027 27.2718C92.4414 27.2718 91.844 27.1065 91.3107 26.7758C90.788 26.4451 90.372 25.9918 90.0627 25.4158C89.764 24.8291 89.6147 24.1678 89.6147 23.4318C89.6147 23.2931 89.62 23.1598 89.6307 23.0318C89.6414 22.9038 89.6574 22.7758 89.6787 22.6478C89.7854 22.0398 89.9987 21.5065 90.3187 21.0478C90.6387 20.5891 91.0494 20.2318 91.5507 19.9758C92.0627 19.7198 92.6334 19.5918 93.2627 19.5918C93.956 19.5918 94.564 19.7465 95.0867 20.0558C95.6094 20.3651 96.0147 20.8025 96.3027 21.3678C96.5907 21.9225 96.7347 22.5891 96.7347 23.3678C96.7347 23.4318 96.7347 23.4958 96.7347 23.5598C96.7347 23.6238 96.7294 23.6878 96.7187 23.7518H90.4307ZM99.2411 23.8318V22.6318H104.681V23.8318H99.2411ZM103.849 19.7518H105.129V27.1118H103.849V19.7518ZM98.4891 19.7518H99.7691V27.1118H98.4891V19.7518ZM106.416 19.7518L110.736 19.7518V20.9518H106.416V19.7518ZM107.936 20.0718L109.216 20.0718V27.1118H107.936V20.0718ZM122.817 19.7518V27.1118H121.537V20.9518H118.097V27.1118L116.817 27.1118V19.7518H122.817ZM131.383 21.0318L125.303 27.6718L125.383 25.8318L131.463 19.1918L131.383 21.0318ZM126.583 19.7518V25.9118L125.303 27.6718V19.7518H126.583ZM131.463 19.1918V27.1118H130.183V20.9518L131.463 19.1918ZM139.622 25.9118H142.742V19.7518H144.022V27.1118H133.942V19.7518H135.222V25.9118H138.342V19.7518H139.622V25.9118ZM146.603 23.7518V22.6638H151.515C151.472 22.2798 151.365 21.9438 151.195 21.6558C151.035 21.3571 150.805 21.1278 150.507 20.9678C150.219 20.7971 149.861 20.7118 149.435 20.7118C149.008 20.7118 148.619 20.8025 148.267 20.9838C147.915 21.1651 147.632 21.4265 147.419 21.7678C147.216 22.0985 147.115 22.4931 147.115 22.9518L147.083 23.4318C147.083 23.9971 147.179 24.4771 147.371 24.8718C147.563 25.2665 147.835 25.5651 148.187 25.7678C148.539 25.9705 148.955 26.0718 149.435 26.0718C149.797 26.0718 150.117 26.0185 150.395 25.9118C150.683 25.7945 150.939 25.6398 151.163 25.4478C151.387 25.2451 151.579 25.0105 151.739 24.7438L152.779 25.3998C152.533 25.7731 152.261 26.1038 151.963 26.3918C151.664 26.6691 151.301 26.8878 150.875 27.0478C150.448 27.1971 149.915 27.2718 149.275 27.2718C148.613 27.2718 148.016 27.1065 147.483 26.7758C146.96 26.4451 146.544 25.9918 146.235 25.4158C145.936 24.8291 145.787 24.1678 145.787 23.4318C145.787 23.2931 145.792 23.1598 145.803 23.0318C145.813 22.9038 145.829 22.7758 145.851 22.6478C145.957 22.0398 146.171 21.5065 146.491 21.0478C146.811 20.5891 147.221 20.2318 147.723 19.9758C148.235 19.7198 148.805 19.5918 149.435 19.5918C150.128 19.5918 150.736 19.7465 151.259 20.0558C151.781 20.3651 152.187 20.8025 152.475 21.3678C152.763 21.9225 152.907 22.5891 152.907 23.3678C152.907 23.4318 152.907 23.4958 152.907 23.5598C152.907 23.6238 152.901 23.6878 152.891 23.7518H146.603ZM153.541 19.7518H157.861V20.9518L153.541 20.9518V19.7518ZM155.061 20.0718H156.341V27.1118H155.061V20.0718ZM166.422 24.8718V23.6718H168.934V24.8718H166.422ZM168.022 19.7518H169.302V27.1118H168.022V19.7518ZM164.822 19.7518V21.8638C164.822 22.2905 164.87 22.6371 164.966 22.9038C165.062 23.1705 165.228 23.3678 165.462 23.4958C165.697 23.6131 166.017 23.6718 166.422 23.6718V24.8718C165.686 24.8718 165.105 24.7705 164.678 24.5678C164.262 24.3651 163.969 24.0451 163.798 23.6078C163.628 23.1598 163.542 22.5785 163.542 21.8638V19.7518H164.822ZM171.884 23.7518V22.6638H176.796C176.753 22.2798 176.646 21.9438 176.476 21.6558C176.316 21.3571 176.086 21.1278 175.788 20.9678C175.5 20.7971 175.142 20.7118 174.716 20.7118C174.289 20.7118 173.9 20.8025 173.548 20.9838C173.196 21.1651 172.913 21.4265 172.7 21.7678C172.497 22.0985 172.396 22.4931 172.396 22.9518L172.364 23.4318C172.364 23.9971 172.46 24.4771 172.652 24.8718C172.844 25.2665 173.116 25.5651 173.468 25.7678C173.82 25.9705 174.236 26.0718 174.716 26.0718C175.078 26.0718 175.398 26.0185 175.676 25.9118C175.964 25.7945 176.22 25.6398 176.444 25.4478C176.668 25.2451 176.86 25.0105 177.02 24.7438L178.06 25.3998C177.814 25.7731 177.542 26.1038 177.244 26.3918C176.945 26.6691 176.582 26.8878 176.156 27.0478C175.729 27.1971 175.196 27.2718 174.556 27.2718C173.894 27.2718 173.297 27.1065 172.764 26.7758C172.241 26.4451 171.825 25.9918 171.516 25.4158C171.217 24.8291 171.068 24.1678 171.068 23.4318C171.068 23.2931 171.073 23.1598 171.084 23.0318C171.094 22.9038 171.11 22.7758 171.132 22.6478C171.238 22.0398 171.452 21.5065 171.772 21.0478C172.092 20.5891 172.502 20.2318 173.004 19.9758C173.516 19.7198 174.086 19.5918 174.716 19.5918C175.409 19.5918 176.017 19.7465 176.54 20.0558C177.062 20.3651 177.468 20.8025 177.756 21.3678C178.044 21.9225 178.188 22.5891 178.188 23.3678C178.188 23.4318 178.188 23.4958 178.188 23.5598C178.188 23.6238 178.182 23.6878 178.172 23.7518H171.884ZM181.142 30.6318H179.862V19.7518H181.142V30.6318ZM187.302 23.4318C187.302 24.2211 187.137 24.9038 186.806 25.4798C186.476 26.0558 186.033 26.4985 185.478 26.8078C184.934 27.1171 184.326 27.2718 183.654 27.2718C183.046 27.2718 182.508 27.1171 182.038 26.8078C181.58 26.4985 181.217 26.0558 180.95 25.4798C180.694 24.9038 180.566 24.2211 180.566 23.4318C180.566 22.6318 180.694 21.9491 180.95 21.3838C181.217 20.8078 181.58 20.3651 182.038 20.0558C182.508 19.7465 183.046 19.5918 183.654 19.5918C184.326 19.5918 184.934 19.7465 185.478 20.0558C186.033 20.3651 186.476 20.8078 186.806 21.3838C187.137 21.9491 187.302 22.6318 187.302 23.4318ZM186.006 23.4318C186.006 22.8665 185.889 22.3865 185.654 21.9918C185.43 21.5971 185.126 21.2985 184.742 21.0958C184.369 20.8931 183.953 20.7918 183.494 20.7918C183.121 20.7918 182.753 20.8931 182.39 21.0958C182.028 21.2985 181.729 21.5971 181.494 21.9918C181.26 22.3865 181.142 22.8665 181.142 23.4318C181.142 23.9971 181.26 24.4771 181.494 24.8718C181.729 25.2665 182.028 25.5651 182.39 25.7678C182.753 25.9705 183.121 26.0718 183.494 26.0718C183.953 26.0718 184.369 25.9705 184.742 25.7678C185.126 25.5651 185.43 25.2665 185.654 24.8718C185.889 24.4771 186.006 23.9971 186.006 23.4318ZM189.243 23.7518V22.6638H194.155C194.113 22.2798 194.006 21.9438 193.835 21.6558C193.675 21.3571 193.446 21.1278 193.147 20.9678C192.859 20.7971 192.502 20.7118 192.075 20.7118C191.649 20.7118 191.259 20.8025 190.907 20.9838C190.555 21.1651 190.273 21.4265 190.059 21.7678C189.857 22.0985 189.755 22.4931 189.755 22.9518L189.723 23.4318C189.723 23.9971 189.819 24.4771 190.011 24.8718C190.203 25.2665 190.475 25.5651 190.827 25.7678C191.179 25.9705 191.595 26.0718 192.075 26.0718C192.438 26.0718 192.758 26.0185 193.035 25.9118C193.323 25.7945 193.579 25.6398 193.803 25.4478C194.027 25.2451 194.219 25.0105 194.379 24.7438L195.419 25.3998C195.174 25.7731 194.902 26.1038 194.603 26.3918C194.305 26.6691 193.942 26.8878 193.515 27.0478C193.089 27.1971 192.555 27.2718 191.915 27.2718C191.254 27.2718 190.657 27.1065 190.123 26.7758C189.601 26.4451 189.185 25.9918 188.875 25.4158C188.577 24.8291 188.427 24.1678 188.427 23.4318C188.427 23.2931 188.433 23.1598 188.443 23.0318C188.454 22.9038 188.47 22.7758 188.491 22.6478C188.598 22.0398 188.811 21.5065 189.131 21.0478C189.451 20.5891 189.862 20.2318 190.363 19.9758C190.875 19.7198 191.446 19.5918 192.075 19.5918C192.769 19.5918 193.377 19.7465 193.899 20.0558C194.422 20.3651 194.827 20.8025 195.115 21.3678C195.403 21.9225 195.547 22.5891 195.547 23.3678C195.547 23.4318 195.547 23.4958 195.547 23.5598C195.547 23.6238 195.542 23.6878 195.531 23.7518H189.243ZM199.91 23.4318V22.6318C200.4 22.6318 200.752 22.5411 200.966 22.3598C201.179 22.1678 201.286 21.9385 201.286 21.6718C201.286 21.3838 201.179 21.1598 200.966 20.9998C200.752 20.8291 200.454 20.7438 200.07 20.7438C199.75 20.7438 199.483 20.8078 199.27 20.9358C199.067 21.0531 198.918 21.2025 198.822 21.3838C198.726 21.5545 198.678 21.7251 198.678 21.8958H197.382C197.382 21.4798 197.499 21.0958 197.734 20.7438C197.968 20.3918 198.288 20.1145 198.694 19.9118C199.099 19.6985 199.558 19.5918 200.07 19.5918C200.55 19.5918 200.982 19.6825 201.366 19.8638C201.75 20.0451 202.048 20.2851 202.262 20.5838C202.486 20.8825 202.598 21.2131 202.598 21.5758C202.598 22.1091 202.358 22.5518 201.878 22.9038C201.408 23.2558 200.752 23.4318 199.91 23.4318ZM200.038 27.2718C199.174 27.2718 198.48 27.0371 197.958 26.5678C197.446 26.0985 197.147 25.5065 197.062 24.7918H198.358C198.432 25.1438 198.592 25.4585 198.838 25.7358C199.083 26.0131 199.483 26.1518 200.038 26.1518C200.379 26.1518 200.667 26.1038 200.902 26.0078C201.147 25.9118 201.334 25.7731 201.462 25.5918C201.59 25.4105 201.654 25.2025 201.654 24.9678C201.654 24.7118 201.584 24.4931 201.446 24.3118C201.318 24.1305 201.12 23.9918 200.854 23.8958C200.598 23.7998 200.283 23.7518 199.91 23.7518V22.9518C200.827 22.9518 201.558 23.1118 202.102 23.4318C202.646 23.7518 202.918 24.2585 202.918 24.9518C202.918 25.4318 202.784 25.8478 202.518 26.1998C202.262 26.5411 201.915 26.8078 201.478 26.9998C201.04 27.1811 200.56 27.2718 200.038 27.2718ZM66.0472 43.8718V42.6718H68.5592V43.8718H66.0472ZM67.6472 38.7518H68.9272V46.1118H67.6472V38.7518ZM64.4472 38.7518V40.8638C64.4472 41.2905 64.4952 41.6371 64.5912 41.9038C64.6872 42.1705 64.8525 42.3678 65.0872 42.4958C65.3219 42.6131 65.6419 42.6718 66.0472 42.6718V43.8718C65.3112 43.8718 64.7299 43.7705 64.3032 43.5678C63.8872 43.3651 63.5939 43.0451 63.4232 42.6078C63.2525 42.1598 63.1672 41.5785 63.1672 40.8638V38.7518H64.4472ZM71.9088 43.9518C71.9088 44.2078 71.9781 44.4265 72.1168 44.6078C72.2555 44.7785 72.4421 44.9118 72.6768 45.0078C72.9115 45.0931 73.1728 45.1358 73.4608 45.1358C73.8875 45.1358 74.2661 45.0718 74.5968 44.9438C74.9275 44.8158 75.1835 44.6131 75.3648 44.3358C75.5568 44.0585 75.6528 43.6905 75.6528 43.2318L75.9088 44.0318C75.9088 44.5011 75.7808 44.9065 75.5248 45.2478C75.2795 45.5785 74.9488 45.8345 74.5328 46.0158C74.1168 46.1865 73.6528 46.2718 73.1408 46.2718C72.6821 46.2718 72.2608 46.1865 71.8768 46.0158C71.4928 45.8451 71.1835 45.5945 70.9488 45.2638C70.7248 44.9225 70.6128 44.5011 70.6128 43.9998C70.6128 43.4771 70.7408 43.0345 70.9968 42.6718C71.2528 42.3091 71.6155 42.0318 72.0848 41.8398C72.5541 41.6371 73.1088 41.5358 73.7488 41.5358C74.2181 41.5358 74.6181 41.5998 74.9488 41.7278C75.2901 41.8451 75.5621 41.9838 75.7648 42.1438C75.9675 42.2931 76.1061 42.4158 76.1808 42.5118V43.2638C75.8181 43.0078 75.4501 42.8211 75.0768 42.7038C74.7035 42.5758 74.2821 42.5118 73.8128 42.5118C73.3861 42.5118 73.0288 42.5705 72.7408 42.6878C72.4635 42.8051 72.2555 42.9705 72.1168 43.1838C71.9781 43.3971 71.9088 43.6531 71.9088 43.9518ZM71.9088 40.4798L71.2848 39.5038C71.5621 39.3011 71.9355 39.0985 72.4048 38.8958C72.8741 38.6931 73.4395 38.5918 74.1008 38.5918C74.6661 38.5918 75.1568 38.6825 75.5728 38.8638C75.9995 39.0345 76.3301 39.2851 76.5648 39.6158C76.8101 39.9465 76.9328 40.3518 76.9328 40.8318V46.1118H75.6528V40.8318C75.6528 40.4585 75.4928 40.1811 75.1728 39.9998C74.8635 39.8078 74.5061 39.7118 74.1008 39.7118C73.7488 39.7118 73.4288 39.7598 73.1408 39.8558C72.8528 39.9411 72.6021 40.0478 72.3888 40.1758C72.1861 40.2931 72.0261 40.3945 71.9088 40.4798ZM77.9784 38.7518H82.2984V39.9518H77.9784V38.7518ZM79.4984 39.0718H80.7784V46.1118H79.4984V39.0718ZM89.1317 42.8318V41.6318H94.5717V42.8318H89.1317ZM93.7397 38.7518H95.0197V46.1118H93.7397V38.7518ZM88.3797 38.7518H89.6597V46.1118H88.3797V38.7518ZM98.0026 43.9518C98.0026 44.2078 98.0719 44.4265 98.2106 44.6078C98.3492 44.7785 98.5359 44.9118 98.7706 45.0078C99.0052 45.0931 99.2666 45.1358 99.5546 45.1358C99.9812 45.1358 100.36 45.0718 100.691 44.9438C101.021 44.8158 101.277 44.6131 101.459 44.3358C101.651 44.0585 101.747 43.6905 101.747 43.2318L102.003 44.0318C102.003 44.5011 101.875 44.9065 101.619 45.2478C101.373 45.5785 101.043 45.8345 100.627 46.0158C100.211 46.1865 99.7466 46.2718 99.2346 46.2718C98.7759 46.2718 98.3546 46.1865 97.9706 46.0158C97.5866 45.8451 97.2772 45.5945 97.0426 45.2638C96.8186 44.9225 96.7066 44.5011 96.7066 43.9998C96.7066 43.4771 96.8346 43.0345 97.0906 42.6718C97.3466 42.3091 97.7092 42.0318 98.1786 41.8398C98.6479 41.6371 99.2026 41.5358 99.8426 41.5358C100.312 41.5358 100.712 41.5998 101.043 41.7278C101.384 41.8451 101.656 41.9838 101.859 42.1438C102.061 42.2931 102.2 42.4158 102.275 42.5118V43.2638C101.912 43.0078 101.544 42.8211 101.171 42.7038C100.797 42.5758 100.376 42.5118 99.9066 42.5118C99.4799 42.5118 99.1226 42.5705 98.8346 42.6878C98.5572 42.8051 98.3492 42.9705 98.2106 43.1838C98.0719 43.3971 98.0026 43.6531 98.0026 43.9518ZM98.0026 40.4798L97.3786 39.5038C97.6559 39.3011 98.0292 39.0985 98.4986 38.8958C98.9679 38.6931 99.5332 38.5918 100.195 38.5918C100.76 38.5918 101.251 38.6825 101.667 38.8638C102.093 39.0345 102.424 39.2851 102.659 39.6158C102.904 39.9465 103.027 40.3518 103.027 40.8318V46.1118H101.747V40.8318C101.747 40.4585 101.587 40.1811 101.267 39.9998C100.957 39.8078 100.6 39.7118 100.195 39.7118C99.8426 39.7118 99.5226 39.7598 99.2346 39.8558C98.9466 39.9411 98.6959 40.0478 98.4826 40.1758C98.2799 40.2931 98.1199 40.3945 98.0026 40.4798ZM110.741 42.2718H112.869C113.381 42.2718 113.84 42.3251 114.245 42.4318C114.65 42.5385 114.97 42.7251 115.205 42.9918C115.44 43.2585 115.557 43.6318 115.557 44.1118C115.557 44.6665 115.37 45.1411 114.997 45.5358C114.634 45.9198 114.032 46.1118 113.189 46.1118H110.741V44.9918H112.869C113.349 44.9918 113.701 44.8905 113.925 44.6878C114.16 44.4851 114.277 44.2398 114.277 43.9518C114.277 43.8025 114.245 43.6691 114.181 43.5518C114.128 43.4345 114.042 43.3278 113.925 43.2318C113.818 43.1358 113.674 43.0665 113.493 43.0238C113.322 42.9705 113.114 42.9438 112.869 42.9438H110.741V42.2718ZM110.741 42.5918V41.8398H112.709C112.901 41.8398 113.072 41.8185 113.221 41.7758C113.381 41.7225 113.514 41.6478 113.621 41.5518C113.728 41.4558 113.808 41.3491 113.861 41.2318C113.925 41.1038 113.957 40.9705 113.957 40.8318C113.957 40.5438 113.845 40.3145 113.621 40.1438C113.397 39.9625 113.093 39.8718 112.709 39.8718H110.741V38.7518H112.709C113.168 38.7518 113.584 38.8211 113.957 38.9598C114.341 39.0878 114.65 39.3011 114.885 39.5998C115.12 39.8878 115.237 40.2718 115.237 40.7518C115.237 41.1678 115.12 41.5145 114.885 41.7918C114.65 42.0585 114.341 42.2611 113.957 42.3998C113.584 42.5278 113.168 42.5918 112.709 42.5918H110.741ZM109.989 38.7518H111.269V46.1118H109.989V38.7518ZM117.815 43.9518C117.815 44.2078 117.884 44.4265 118.023 44.6078C118.162 44.7785 118.348 44.9118 118.583 45.0078C118.818 45.0931 119.079 45.1358 119.367 45.1358C119.794 45.1358 120.172 45.0718 120.503 44.9438C120.834 44.8158 121.09 44.6131 121.271 44.3358C121.463 44.0585 121.559 43.6905 121.559 43.2318L121.815 44.0318C121.815 44.5011 121.687 44.9065 121.431 45.2478C121.186 45.5785 120.855 45.8345 120.439 46.0158C120.023 46.1865 119.559 46.2718 119.047 46.2718C118.588 46.2718 118.167 46.1865 117.783 46.0158C117.399 45.8451 117.09 45.5945 116.855 45.2638C116.631 44.9225 116.519 44.5011 116.519 43.9998C116.519 43.4771 116.647 43.0345 116.903 42.6718C117.159 42.3091 117.522 42.0318 117.991 41.8398C118.46 41.6371 119.015 41.5358 119.655 41.5358C120.124 41.5358 120.524 41.5998 120.855 41.7278C121.196 41.8451 121.468 41.9838 121.671 42.1438C121.874 42.2931 122.012 42.4158 122.087 42.5118V43.2638C121.724 43.0078 121.356 42.8211 120.983 42.7038C120.61 42.5758 120.188 42.5118 119.719 42.5118C119.292 42.5118 118.935 42.5705 118.647 42.6878C118.37 42.8051 118.162 42.9705 118.023 43.1838C117.884 43.3971 117.815 43.6531 117.815 43.9518ZM117.815 40.4798L117.191 39.5038C117.468 39.3011 117.842 39.0985 118.311 38.8958C118.78 38.6931 119.346 38.5918 120.007 38.5918C120.572 38.5918 121.063 38.6825 121.479 38.8638C121.906 39.0345 122.236 39.2851 122.471 39.6158C122.716 39.9465 122.839 40.3518 122.839 40.8318V46.1118H121.559V40.8318C121.559 40.4585 121.399 40.1811 121.079 39.9998C120.77 39.8078 120.412 39.7118 120.007 39.7118C119.655 39.7118 119.335 39.7598 119.047 39.8558C118.759 39.9411 118.508 40.0478 118.295 40.1758C118.092 40.2931 117.932 40.3945 117.815 40.4798ZM130.685 44.9118H133.805V38.7518H135.085V46.1118H125.005V38.7518H126.285V44.9118H129.405V38.7518H130.685V44.9118ZM137.665 42.7518V41.6638H142.577C142.534 41.2798 142.428 40.9438 142.257 40.6558C142.097 40.3571 141.868 40.1278 141.569 39.9678C141.281 39.7971 140.924 39.7118 140.497 39.7118C140.07 39.7118 139.681 39.8025 139.329 39.9838C138.977 40.1651 138.694 40.4265 138.481 40.7678C138.278 41.0985 138.177 41.4931 138.177 41.9518L138.145 42.4318C138.145 42.9971 138.241 43.4771 138.433 43.8718C138.625 44.2665 138.897 44.5651 139.249 44.7678C139.601 44.9705 140.017 45.0718 140.497 45.0718C140.86 45.0718 141.18 45.0185 141.457 44.9118C141.745 44.7945 142.001 44.6398 142.225 44.4478C142.449 44.2451 142.641 44.0105 142.801 43.7438L143.841 44.3998C143.596 44.7731 143.324 45.1038 143.025 45.3918C142.726 45.6691 142.364 45.8878 141.937 46.0478C141.51 46.1971 140.977 46.2718 140.337 46.2718C139.676 46.2718 139.078 46.1065 138.545 45.7758C138.022 45.4451 137.606 44.9918 137.297 44.4158C136.998 43.8291 136.849 43.1678 136.849 42.4318C136.849 42.2931 136.854 42.1598 136.865 42.0318C136.876 41.9038 136.892 41.7758 136.913 41.6478C137.02 41.0398 137.233 40.5065 137.553 40.0478C137.873 39.5891 138.284 39.2318 138.785 38.9758C139.297 38.7198 139.868 38.5918 140.497 38.5918C141.19 38.5918 141.798 38.7465 142.321 39.0558C142.844 39.3651 143.249 39.8025 143.537 40.3678C143.825 40.9225 143.969 41.5891 143.969 42.3678C143.969 42.4318 143.969 42.4958 143.969 42.5598C143.969 42.6238 143.964 42.6878 143.953 42.7518H137.665ZM152.715 46.1118L151.515 40.2718L152.235 38.1918L154.155 46.1118H152.715ZM148.875 45.0078L152.235 38.1918L152.395 40.7518L149.355 46.6078L148.875 45.0078ZM149.355 46.6078L146.363 40.7518L146.523 38.1918L149.835 45.0078L149.355 46.6078ZM144.603 46.1118L146.523 38.1918L147.243 40.2718L146.043 46.1118H144.603ZM160.815 42.4318C160.815 42.9438 160.922 43.3971 161.135 43.7918C161.359 44.1865 161.658 44.5011 162.031 44.7358C162.415 44.9598 162.847 45.0718 163.327 45.0718C163.722 45.0718 164.09 45.0131 164.431 44.8958C164.783 44.7678 165.087 44.6025 165.343 44.3998C165.599 44.1865 165.78 43.9625 165.887 43.7278V45.3278C165.631 45.6265 165.263 45.8611 164.783 46.0318C164.314 46.1918 163.828 46.2718 163.327 46.2718C162.612 46.2718 161.967 46.1065 161.391 45.7758C160.815 45.4451 160.356 44.9918 160.015 44.4158C159.684 43.8291 159.519 43.1678 159.519 42.4318C159.519 41.6851 159.684 41.0238 160.015 40.4478C160.356 39.8718 160.815 39.4185 161.391 39.0878C161.967 38.7571 162.612 38.5918 163.327 38.5918C163.828 38.5918 164.314 38.6771 164.783 38.8478C165.263 39.0078 165.631 39.2371 165.887 39.5358V41.1358C165.78 40.8905 165.599 40.6665 165.343 40.4638C165.087 40.2611 164.783 40.1011 164.431 39.9838C164.09 39.8558 163.722 39.7918 163.327 39.7918C162.847 39.7918 162.415 39.9038 162.031 40.1278C161.658 40.3518 161.359 40.6665 161.135 41.0718C160.922 41.4665 160.815 41.9198 160.815 42.4318ZM168.456 43.9518C168.456 44.2078 168.525 44.4265 168.664 44.6078C168.802 44.7785 168.989 44.9118 169.224 45.0078C169.458 45.0931 169.72 45.1358 170.008 45.1358C170.434 45.1358 170.813 45.0718 171.144 44.9438C171.474 44.8158 171.73 44.6131 171.912 44.3358C172.104 44.0585 172.2 43.6905 172.2 43.2318L172.456 44.0318C172.456 44.5011 172.328 44.9065 172.072 45.2478C171.826 45.5785 171.496 45.8345 171.08 46.0158C170.664 46.1865 170.2 46.2718 169.688 46.2718C169.229 46.2718 168.808 46.1865 168.424 46.0158C168.04 45.8451 167.73 45.5945 167.496 45.2638C167.272 44.9225 167.16 44.5011 167.16 43.9998C167.16 43.4771 167.288 43.0345 167.544 42.6718C167.8 42.3091 168.162 42.0318 168.632 41.8398C169.101 41.6371 169.656 41.5358 170.296 41.5358C170.765 41.5358 171.165 41.5998 171.496 41.7278C171.837 41.8451 172.109 41.9838 172.312 42.1438C172.514 42.2931 172.653 42.4158 172.728 42.5118V43.2638C172.365 43.0078 171.997 42.8211 171.624 42.7038C171.25 42.5758 170.829 42.5118 170.36 42.5118C169.933 42.5118 169.576 42.5705 169.288 42.6878C169.01 42.8051 168.802 42.9705 168.664 43.1838C168.525 43.3971 168.456 43.6531 168.456 43.9518ZM168.456 40.4798L167.832 39.5038C168.109 39.3011 168.482 39.0985 168.952 38.8958C169.421 38.6931 169.986 38.5918 170.648 38.5918C171.213 38.5918 171.704 38.6825 172.12 38.8638C172.546 39.0345 172.877 39.2851 173.112 39.6158C173.357 39.9465 173.48 40.3518 173.48 40.8318V46.1118H172.2V40.8318C172.2 40.4585 172.04 40.1811 171.72 39.9998C171.41 39.8078 171.053 39.7118 170.648 39.7118C170.296 39.7118 169.976 39.7598 169.688 39.8558C169.4 39.9411 169.149 40.0478 168.936 40.1758C168.733 40.2931 168.573 40.3945 168.456 40.4798ZM181.805 40.0318L175.725 46.6718L175.805 44.8318L181.885 38.1918L181.805 40.0318ZM177.005 38.7518V44.9118L175.725 46.6718V38.7518H177.005ZM181.885 38.1918V46.1118H180.605V39.9518L181.885 38.1918ZM176.317 34.9918H177.453C177.453 35.1305 177.491 35.2958 177.565 35.4878C177.64 35.6691 177.779 35.8345 177.981 35.9838C178.184 36.1225 178.472 36.1918 178.845 36.1918C179.219 36.1918 179.507 36.1225 179.709 35.9838C179.912 35.8345 180.051 35.6691 180.125 35.4878C180.2 35.2958 180.237 35.1305 180.237 34.9918H181.373C181.373 35.3545 181.277 35.7118 181.085 36.0638C180.904 36.4051 180.627 36.6878 180.253 36.9118C179.88 37.1251 179.411 37.2318 178.845 37.2318C178.291 37.2318 177.821 37.1251 177.437 36.9118C177.064 36.6878 176.781 36.4051 176.589 36.0638C176.408 35.7118 176.317 35.3545 176.317 34.9918ZM183.244 38.7518H187.564V39.9518H183.244V38.7518ZM184.764 39.0718H186.044V46.1118H184.764V39.0718ZM188.79 42.7518V41.6638H193.702C193.659 41.2798 193.553 40.9438 193.382 40.6558C193.222 40.3571 192.993 40.1278 192.694 39.9678C192.406 39.7971 192.049 39.7118 191.622 39.7118C191.195 39.7118 190.806 39.8025 190.454 39.9838C190.102 40.1651 189.819 40.4265 189.606 40.7678C189.403 41.0985 189.302 41.4931 189.302 41.9518L189.27 42.4318C189.27 42.9971 189.366 43.4771 189.558 43.8718C189.75 44.2665 190.022 44.5651 190.374 44.7678C190.726 44.9705 191.142 45.0718 191.622 45.0718C191.985 45.0718 192.305 45.0185 192.582 44.9118C192.87 44.7945 193.126 44.6398 193.35 44.4478C193.574 44.2451 193.766 44.0105 193.926 43.7438L194.966 44.3998C194.721 44.7731 194.449 45.1038 194.15 45.3918C193.851 45.6691 193.489 45.8878 193.062 46.0478C192.635 46.1971 192.102 46.2718 191.462 46.2718C190.801 46.2718 190.203 46.1065 189.67 45.7758C189.147 45.4451 188.731 44.9918 188.422 44.4158C188.123 43.8291 187.974 43.1678 187.974 42.4318C187.974 42.2931 187.979 42.1598 187.99 42.0318C188.001 41.9038 188.017 41.7758 188.038 41.6478C188.145 41.0398 188.358 40.5065 188.678 40.0478C188.998 39.5891 189.409 39.2318 189.91 38.9758C190.422 38.7198 190.993 38.5918 191.622 38.5918C192.315 38.5918 192.923 38.7465 193.446 39.0558C193.969 39.3651 194.374 39.8025 194.662 40.3678C194.95 40.9225 195.094 41.5891 195.094 42.3678C195.094 42.4318 195.094 42.4958 195.094 42.5598C195.094 42.6238 195.089 42.6878 195.078 42.7518H188.79Z" fill="#212121"/>
<path d="M33.0201 31.9472C34.0953 31.9472 34.9669 31.0756 34.9669 30.0005C34.9669 28.9253 34.0953 28.0537 33.0201 28.0537C31.9449 28.0537 31.0734 28.9253 31.0734 30.0005C31.0734 31.0756 31.9449 31.9472 33.0201 31.9472Z" fill="#0D6EFD"/>
<path d="M33.0201 31.9472C34.0953 31.9472 34.9669 31.0756 34.9669 30.0005C34.9669 28.9253 34.0953 28.0537 33.0201 28.0537C31.9449 28.0537 31.0734 28.9253 31.0734 30.0005C31.0734 31.0756 31.9449 31.9472 33.0201 31.9472Z" fill="url(#paint0_linear_33_933)"/>
<path d="M27.0322 31.9472C28.1074 31.9472 28.9789 31.0756 28.9789 30.0005C28.9789 28.9253 28.1074 28.0537 27.0322 28.0537C25.957 28.0537 25.0854 28.9253 25.0854 30.0005C25.0854 31.0756 25.957 31.9472 27.0322 31.9472Z" fill="#0D6EFD"/>
<path d="M27.0322 31.9472C28.1074 31.9472 28.9789 31.0756 28.9789 30.0005C28.9789 28.9253 28.1074 28.0537 27.0322 28.0537C25.957 28.0537 25.0854 28.9253 25.0854 30.0005C25.0854 31.0756 25.957 31.9472 27.0322 31.9472Z" fill="url(#paint1_linear_33_933)"/>
<path d="M39.0081 31.9472C40.0833 31.9472 40.9549 31.0756 40.9549 30.0005C40.9549 28.9253 40.0833 28.0537 39.0081 28.0537C37.933 28.0537 37.0614 28.9253 37.0614 30.0005C37.0614 31.0756 37.933 31.9472 39.0081 31.9472Z" fill="#0D6EFD"/>
<path d="M39.0081 31.9472C40.0833 31.9472 40.9549 31.0756 40.9549 30.0005C40.9549 28.9253 40.0833 28.0537 39.0081 28.0537C37.933 28.0537 37.0614 28.9253 37.0614 30.0005C37.0614 31.0756 37.933 31.9472 39.0081 31.9472Z" fill="url(#paint2_linear_33_933)"/>
<path d="M47.0976 20.7396C45.7044 22.2725 43.3005 22.3971 41.8163 20.953C39.5229 18.7246 36.3953 17.3509 32.946 17.3509C23.976 17.3509 15.1923 21.8674 12.8556 29.2925C13.2488 18.808 21.8039 10.3071 32.2906 9.97235C37.9792 9.79143 43.1575 11.9744 46.9221 15.6122C48.3533 16.9967 48.4367 19.2663 47.0976 20.7396Z" fill="url(#paint3_linear_33_933)"/>
<path d="M20.234 30.0661C20.234 31.4267 20.4464 32.7386 20.8429 33.9682C21.4625 35.8868 21.3899 37.9592 20.5439 39.7879L18.5494 44.0941C14.8531 40.3025 12.6431 35.057 12.8587 29.2936C15.1944 21.8674 23.9791 17.3521 32.9491 17.3521C25.9269 17.3521 20.234 23.0428 20.234 30.0671V30.0661Z" fill="url(#paint4_linear_33_933)"/>
<path d="M47.0997 39.3916C48.4442 40.8725 48.3479 43.1443 46.909 44.532C43.294 48.0228 38.3724 50.1699 32.9481 50.1699C27.5239 50.1699 22.5416 47.9957 18.92 44.4659L23.2209 42.4715C25.0506 41.6233 27.1252 41.5529 29.0449 42.1714C30.2745 42.5679 31.5864 42.7814 32.9481 42.7814C36.3975 42.7814 39.5261 41.4077 41.8174 39.1782C43.3015 37.7341 45.7065 37.8576 47.0986 39.3916H47.0997Z" fill="url(#paint5_linear_33_933)"/>
<path d="M15.5 21.5L28 15V18L13 29L15.5 21.5Z" fill="#0D6EFD"/>
<path d="M16 19.5L28 15L31 17.5L26 18.5L16 19.5Z" fill="#0D6EFD"/>
<defs>
<linearGradient id="paint0_linear_33_933" x1="25.0847" y1="30.0004" x2="44.8501" y2="30.0004" gradientUnits="userSpaceOnUse">
<stop stop-color="#0D6EFD"/>
<stop offset="1" stop-color="#0D6EFD"/>
</linearGradient>
<linearGradient id="paint1_linear_33_933" x1="25.0854" y1="30.0004" x2="44.8509" y2="30.0004" gradientUnits="userSpaceOnUse">
<stop stop-color="#0D6EFD"/>
<stop offset="1" stop-color="#0D6EFD" stop-opacity="0.49"/>
</linearGradient>
<linearGradient id="paint2_linear_33_933" x1="25.0852" y1="30.0004" x2="44.8506" y2="30.0004" gradientUnits="userSpaceOnUse">
<stop stop-color="#0D6EFD"/>
<stop offset="1" stop-color="#0D6EFD"/>
</linearGradient>
<linearGradient id="paint3_linear_33_933" x1="12.8556" y1="19.627" x2="56.6904" y2="19.627" gradientUnits="userSpaceOnUse">
<stop stop-color="#0D6EFD"/>
<stop offset="1" stop-color="#0D6EFD"/>
</linearGradient>
<linearGradient id="paint4_linear_33_933" x1="41.7696" y1="58.2079" x2="19.935" y2="21.4926" gradientUnits="userSpaceOnUse">
<stop stop-color="#0D6EFD"/>
<stop offset="1" stop-color="#0D6EFD"/>
</linearGradient>
<linearGradient id="paint5_linear_33_933" x1="42.4815" y1="57.7836" x2="20.648" y2="21.0681" gradientUnits="userSpaceOnUse">
<stop stop-color="#0D6EFD"/>
<stop offset="1" stop-color="#0D6EFD"/>
</linearGradient>
</defs>
</svg>
