<svg width="70" height="70" viewBox="0 0 70 70" fill="none" xmlns="http://www.w3.org/2000/svg">
<rect x="1.16911" y="0.825608" width="68.3376" height="68.3376" rx="34.1688" fill="#0D6EFD" stroke="#0D6EFD" stroke-width="0.690279"/>
<path d="M46.8439 20.4985H23.9458C21.3461 20.4985 19.2314 22.5806 19.2314 25.14V38.4015C19.2314 40.9609 21.3461 43.043 23.9458 43.043H26.9926L24.6678 48.764C24.556 49.0372 24.6422 49.3501 24.8779 49.5318C24.9991 49.626 25.1459 49.6737 25.2941 49.6737C25.4315 49.6737 25.5689 49.6327 25.6861 49.5504L34.9396 43.043H46.8467C49.4463 43.043 51.5611 40.961 51.5611 38.4015V25.14C51.5583 22.5806 49.4436 20.4985 46.8439 20.4985Z" fill="white"/>
</svg>
