<svg width="300" height="300" viewBox="0 0 300 300" fill="none" xmlns="http://www.w3.org/2000/svg">
<rect x="1.5" y="1.5" width="297" height="297" rx="148.5" fill="#0D6EFD" stroke="#0D6EFD" stroke-width="3"/>
<path d="M200.006 87H100.489C89.1906 87 80 96.0486 80 107.172V164.807C80 175.931 89.1906 184.98 100.489 184.98H113.731L103.627 209.844C103.141 211.031 103.516 212.391 104.54 213.181C105.067 213.59 105.705 213.797 106.349 213.797C106.946 213.797 107.543 213.619 108.052 213.261L148.269 184.98H200.018C211.316 184.98 220.507 175.931 220.507 164.807V107.172C220.495 96.0486 211.304 87 200.006 87Z" fill="white"/>
</svg>
