<svg width="236" height="113" viewBox="0 0 236 113" fill="none" xmlns="http://www.w3.org/2000/svg">
<rect y="0.268555" width="236" height="70" rx="10" fill="#0D6EFD"/>
<path d="M44.3 30.8486H38.14V40.7686H36.78V29.5686H45.66V40.7686H44.3V30.8486ZM47.4975 37.0886C47.4975 36.3419 47.6628 35.6806 47.9935 35.1046C48.3348 34.5286 48.7935 34.0752 49.3695 33.7446C49.9455 33.4139 50.5908 33.2486 51.3055 33.2486C52.0308 33.2486 52.6762 33.4139 53.2415 33.7446C53.8175 34.0752 54.2708 34.5286 54.6015 35.1046C54.9428 35.6806 55.1135 36.3419 55.1135 37.0886C55.1135 37.8246 54.9428 38.4859 54.6015 39.0726C54.2708 39.6486 53.8175 40.1019 53.2415 40.4326C52.6762 40.7632 52.0308 40.9286 51.3055 40.9286C50.5908 40.9286 49.9455 40.7632 49.3695 40.4326C48.7935 40.1019 48.3348 39.6486 47.9935 39.0726C47.6628 38.4859 47.4975 37.8246 47.4975 37.0886ZM48.7935 37.0886C48.7935 37.6006 48.9002 38.0539 49.1135 38.4486C49.3375 38.8432 49.6362 39.1579 50.0095 39.3926C50.3935 39.6166 50.8255 39.7286 51.3055 39.7286C51.7855 39.7286 52.2122 39.6166 52.5855 39.3926C52.9695 39.1579 53.2682 38.8432 53.4815 38.4486C53.7055 38.0539 53.8175 37.6006 53.8175 37.0886C53.8175 36.5766 53.7055 36.1232 53.4815 35.7286C53.2682 35.3232 52.9695 35.0086 52.5855 34.7846C52.2122 34.5606 51.7855 34.4486 51.3055 34.4486C50.8255 34.4486 50.3935 34.5606 50.0095 34.7846C49.6362 35.0086 49.3375 35.3232 49.1135 35.7286C48.9002 36.1232 48.7935 36.5766 48.7935 37.0886ZM60.075 35.6166L57.915 40.2886H56.475L60.075 32.8486L63.675 40.2886H62.235L60.075 35.6166ZM63.355 40.7686H56.875V42.2086H55.515V39.5686H64.635V42.2086H63.355V40.7686ZM66.4794 33.4086H67.7594V40.7686H66.4794V33.4086ZM70.4794 33.4086H72.0794L68.8794 36.4486L72.3994 40.7686H70.7994L67.2794 36.4486L70.4794 33.4086ZM80.0543 33.4086V40.7686H78.7743V34.6086H75.0143V38.2086C75.0143 38.7846 74.9236 39.2646 74.7423 39.6486C74.5716 40.0219 74.3049 40.3046 73.9423 40.4966C73.5796 40.6779 73.1209 40.7686 72.5663 40.7686V39.6006C72.8863 39.6006 73.1583 39.4992 73.3823 39.2966C73.6169 39.0939 73.7343 38.7312 73.7343 38.2086V33.4086H80.0543ZM83.2801 37.4886V36.2886H86.0001V37.4886H83.2801ZM82.5281 33.4086H83.8081V40.7686H82.5281V33.4086ZM85.0881 37.0886C85.0881 36.3419 85.2535 35.6806 85.5841 35.1046C85.9255 34.5286 86.3841 34.0752 86.9601 33.7446C87.5361 33.4139 88.1815 33.2486 88.8961 33.2486C89.6215 33.2486 90.2668 33.4139 90.8321 33.7446C91.4081 34.0752 91.8615 34.5286 92.1921 35.1046C92.5335 35.6806 92.7041 36.3419 92.7041 37.0886C92.7041 37.8246 92.5335 38.4859 92.1921 39.0726C91.8615 39.6486 91.4081 40.1019 90.8321 40.4326C90.2668 40.7632 89.6215 40.9286 88.8961 40.9286C88.1815 40.9286 87.5361 40.7632 86.9601 40.4326C86.3841 40.1019 85.9255 39.6486 85.5841 39.0726C85.2535 38.4859 85.0881 37.8246 85.0881 37.0886ZM86.3841 37.0886C86.3841 37.6006 86.4908 38.0539 86.7041 38.4486C86.9281 38.8432 87.2268 39.1579 87.6001 39.3926C87.9841 39.6166 88.4161 39.7286 88.8961 39.7286C89.3761 39.7286 89.8028 39.6166 90.1761 39.3926C90.5601 39.1579 90.8588 38.8432 91.0721 38.4486C91.2961 38.0539 91.4081 37.6006 91.4081 37.0886C91.4081 36.5766 91.2961 36.1232 91.0721 35.7286C90.8588 35.3232 90.5601 35.0086 90.1761 34.7846C89.8028 34.5606 89.3761 34.4486 88.8961 34.4486C88.4161 34.4486 87.9841 34.5606 87.6001 34.7846C87.2268 35.0086 86.9281 35.3232 86.7041 35.7286C86.4908 36.1232 86.3841 36.5766 86.3841 37.0886ZM96.9456 38.5286V37.3286H99.4576V38.5286H96.9456ZM98.5456 33.4086H99.8256V40.7686H98.5456V33.4086ZM95.3456 33.4086V35.5206C95.3456 35.9472 95.3936 36.2939 95.4896 36.5606C95.5856 36.8272 95.751 37.0246 95.9856 37.1526C96.2203 37.2699 96.5403 37.3286 96.9456 37.3286V38.5286C96.2096 38.5286 95.6283 38.4272 95.2016 38.2246C94.7856 38.0219 94.4923 37.7019 94.3216 37.2646C94.151 36.8166 94.0656 36.2352 94.0656 35.5206V33.4086H95.3456ZM108.391 34.6886L102.311 41.3286L102.391 39.4886L108.471 32.8486L108.391 34.6886ZM103.591 33.4086V39.5686L102.311 41.3286V33.4086H103.591ZM108.471 32.8486V40.7686H107.191V34.6086L108.471 32.8486ZM109.83 33.4086H114.15V34.6086H109.83V33.4086ZM111.35 33.7286H112.63V40.7686H111.35V33.7286ZM115.434 33.4086H116.714V40.7686H115.434V33.4086ZM116.186 37.3126V36.1926H118.474C119.232 36.1926 119.866 36.3792 120.378 36.7526C120.901 37.1152 121.162 37.6912 121.162 38.4806C121.162 39.0032 121.045 39.4352 120.81 39.7766C120.576 40.1179 120.256 40.3686 119.85 40.5286C119.445 40.6886 118.986 40.7686 118.474 40.7686H116.186V39.6486H118.474C118.784 39.6486 119.04 39.6059 119.242 39.5206C119.456 39.4246 119.616 39.2912 119.722 39.1206C119.829 38.9392 119.882 38.7259 119.882 38.4806C119.882 38.1072 119.765 37.8192 119.53 37.6166C119.296 37.4139 118.944 37.3126 118.474 37.3126H116.186ZM130.574 37.0886V36.2886C131.064 36.2886 131.416 36.1979 131.63 36.0166C131.843 35.8246 131.95 35.5952 131.95 35.3286C131.95 35.0406 131.843 34.8166 131.63 34.6566C131.416 34.4859 131.118 34.4006 130.734 34.4006C130.414 34.4006 130.147 34.4646 129.934 34.5926C129.731 34.7099 129.582 34.8592 129.486 35.0406C129.39 35.2112 129.342 35.3819 129.342 35.5526H128.046C128.046 35.1366 128.163 34.7526 128.398 34.4006C128.632 34.0486 128.952 33.7712 129.358 33.5686C129.763 33.3552 130.222 33.2486 130.734 33.2486C131.214 33.2486 131.646 33.3392 132.03 33.5206C132.414 33.7019 132.712 33.9419 132.926 34.2406C133.15 34.5392 133.262 34.8699 133.262 35.2326C133.262 35.7659 133.022 36.2086 132.542 36.5606C132.072 36.9126 131.416 37.0886 130.574 37.0886ZM130.702 40.9286C129.838 40.9286 129.144 40.6939 128.622 40.2246C128.11 39.7552 127.811 39.1632 127.726 38.4486H129.022C129.096 38.8006 129.256 39.1152 129.502 39.3926C129.747 39.6699 130.147 39.8086 130.702 39.8086C131.043 39.8086 131.331 39.7606 131.566 39.6646C131.811 39.5686 131.998 39.4299 132.126 39.2486C132.254 39.0672 132.318 38.8592 132.318 38.6246C132.318 38.3686 132.248 38.1499 132.11 37.9686C131.982 37.7872 131.784 37.6486 131.518 37.5526C131.262 37.4566 130.947 37.4086 130.574 37.4086V36.6086C131.491 36.6086 132.222 36.7686 132.766 37.0886C133.31 37.4086 133.582 37.9152 133.582 38.6086C133.582 39.0886 133.448 39.5046 133.182 39.8566C132.926 40.1979 132.579 40.4646 132.142 40.6566C131.704 40.8379 131.224 40.9286 130.702 40.9286ZM136.073 38.6086C136.073 38.8646 136.142 39.0832 136.281 39.2646C136.42 39.4352 136.606 39.5686 136.841 39.6646C137.076 39.7499 137.337 39.7926 137.625 39.7926C138.052 39.7926 138.43 39.7286 138.761 39.6006C139.092 39.4726 139.348 39.2699 139.529 38.9926C139.721 38.7152 139.817 38.3472 139.817 37.8886L140.073 38.6886C140.073 39.1579 139.945 39.5632 139.689 39.9046C139.444 40.2352 139.113 40.4912 138.697 40.6726C138.281 40.8432 137.817 40.9286 137.305 40.9286C136.846 40.9286 136.425 40.8432 136.041 40.6726C135.657 40.5019 135.348 40.2512 135.113 39.9206C134.889 39.5792 134.777 39.1579 134.777 38.6566C134.777 38.1339 134.905 37.6912 135.161 37.3286C135.417 36.9659 135.78 36.6886 136.249 36.4966C136.718 36.2939 137.273 36.1926 137.913 36.1926C138.382 36.1926 138.782 36.2566 139.113 36.3846C139.454 36.5019 139.726 36.6406 139.929 36.8006C140.132 36.9499 140.27 37.0726 140.345 37.1686V37.9206C139.982 37.6646 139.614 37.4779 139.241 37.3606C138.868 37.2326 138.446 37.1686 137.977 37.1686C137.55 37.1686 137.193 37.2272 136.905 37.3446C136.628 37.4619 136.42 37.6272 136.281 37.8406C136.142 38.0539 136.073 38.3099 136.073 38.6086ZM136.073 35.1366L135.449 34.1606C135.726 33.9579 136.1 33.7552 136.569 33.5526C137.038 33.3499 137.604 33.2486 138.265 33.2486C138.83 33.2486 139.321 33.3392 139.737 33.5206C140.164 33.6912 140.494 33.9419 140.729 34.2726C140.974 34.6032 141.097 35.0086 141.097 35.4886V40.7686H139.817V35.4886C139.817 35.1152 139.657 34.8379 139.337 34.6566C139.028 34.4646 138.67 34.3686 138.265 34.3686C137.913 34.3686 137.593 34.4166 137.305 34.5126C137.017 34.5979 136.766 34.7046 136.553 34.8326C136.35 34.9499 136.19 35.0512 136.073 35.1366ZM155.243 37.0886C155.243 37.7286 155.142 38.2886 154.939 38.7686C154.737 39.2486 154.454 39.6486 154.091 39.9686C153.729 40.2886 153.313 40.5286 152.843 40.6886C152.374 40.8486 151.867 40.9286 151.323 40.9286C150.641 40.9286 150.043 40.8219 149.531 40.6086C149.03 40.3952 148.598 40.1126 148.235 39.7606C147.883 39.3979 147.585 39.0032 147.339 38.5766L148.491 37.7926C148.662 38.1126 148.886 38.4166 149.163 38.7046C149.451 38.9819 149.782 39.2112 150.155 39.3926C150.529 39.5632 150.918 39.6486 151.323 39.6486C151.857 39.6486 152.31 39.5419 152.683 39.3286C153.057 39.1152 153.339 38.8166 153.531 38.4326C153.734 38.0486 153.835 37.6006 153.835 37.0886C153.835 36.5766 153.723 36.1286 153.499 35.7446C153.286 35.3606 152.987 35.0619 152.603 34.8486C152.23 34.6352 151.803 34.5286 151.323 34.5286C150.971 34.5286 150.646 34.5606 150.347 34.6246C150.059 34.6779 149.766 34.7792 149.467 34.9286C149.179 35.0672 148.843 35.2699 148.459 35.5366L149.931 29.5686H155.211V30.7686H150.987L150.235 33.7286C150.502 33.5899 150.774 33.4886 151.051 33.4246C151.339 33.3499 151.622 33.3126 151.899 33.3126C152.539 33.3126 153.11 33.4726 153.611 33.7926C154.123 34.1126 154.523 34.5552 154.811 35.1206C155.099 35.6859 155.243 36.3419 155.243 37.0886ZM168.88 40.7686L167.68 34.9286L168.4 32.8486L170.32 40.7686H168.88ZM165.04 39.6646L168.4 32.8486L168.56 35.4086L165.52 41.2646L165.04 39.6646ZM165.52 41.2646L162.528 35.4086L162.688 32.8486L166 39.6646L165.52 41.2646ZM160.768 40.7686L162.688 32.8486L163.408 34.9286L162.208 40.7686H160.768ZM177.766 34.6886L171.686 41.3286L171.766 39.4886L177.846 32.8486L177.766 34.6886ZM172.966 33.4086V39.5686L171.686 41.3286V33.4086H172.966ZM177.846 32.8486V40.7686H176.566V34.6086L177.846 32.8486ZM181.077 37.4886V36.2886H186.517V37.4886H181.077ZM185.685 33.4086H186.965V40.7686H185.685V33.4086ZM180.325 33.4086H181.605V40.7686H180.325V33.4086ZM195.212 33.4086L190.412 44.2886H188.972L190.988 39.7286L188.172 33.4086H189.692L192.028 39.1686L191.5 39.1046L193.772 33.4086H195.212ZM195.299 33.4086H199.619V34.6086H195.299V33.4086ZM196.819 33.7286H198.099V40.7686H196.819V33.7286Z" fill="white"/>
<path d="M206.959 87.106C207.968 86.6017 207.846 85.1249 206.768 84.7933L187.006 78.7128C186.047 78.4177 185.149 79.3161 185.444 80.2752L191.525 100.037C191.856 101.114 193.333 101.237 193.837 100.228L198.025 91.8527C198.146 91.6108 198.342 91.4146 198.584 91.2937L206.959 87.106Z" stroke="#212121" stroke-width="2" stroke-linecap="round" stroke-linejoin="round"/>
</svg>
