<svg width="138" height="45" viewBox="0 0 138 45" fill="none" xmlns="http://www.w3.org/2000/svg">
<rect x="93" width="45" height="45" rx="22.5" fill="#0D6EFD"/>
<path d="M115.749 21.7193C115.749 21.9954 115.973 22.2193 116.249 22.2193H121.297C121.42 22.2193 121.52 22.3193 121.52 22.4428C121.52 22.5662 121.42 22.6662 121.297 22.6662H116.249C115.973 22.6662 115.749 22.8901 115.749 23.1662V28.6433C115.749 28.8121 115.613 28.949 115.444 28.949C115.275 28.949 115.138 28.8121 115.138 28.6433V23.1662C115.138 22.8901 114.914 22.6662 114.638 22.6662H109.703C109.58 22.6662 109.48 22.5662 109.48 22.4428C109.48 22.3193 109.58 22.2193 109.703 22.2193H114.638C114.914 22.2193 115.138 21.9954 115.138 21.7193V16.3565C115.138 16.1876 115.275 16.0508 115.444 16.0508C115.613 16.0508 115.749 16.1876 115.749 16.3565V21.7193Z" fill="white" stroke="white" stroke-linejoin="round"/>
<rect x="62" width="45" height="45" rx="22.5" fill="black"/>
<path d="M86.734 17.6458C86.1135 17.9779 85.8921 18.5254 85.8921 20.0421C85.8921 20.0421 86.2023 19.7368 86.6634 19.5665C87.0002 19.4498 87.2839 19.2612 87.4521 19.1357C87.9751 18.7496 88.046 18.2557 88.046 17.4213C88.046 17.4213 87.1951 17.3941 86.734 17.6458Z" fill="white"/>
<path d="M83.0997 18.0044C82.6031 18.4532 82.4523 19.1621 82.4523 19.1621L80.7859 25.6423L79.4117 20.3291C79.2787 19.7727 79.0306 19.0638 78.6493 18.5967C78.1708 18.0044 77.1868 17.9684 77.0803 17.9684C76.9737 17.9684 75.9812 18.0044 75.4935 18.6058C75.1122 19.0814 74.8642 19.7815 74.7312 20.3379L73.3571 25.6511L71.7081 19.1621C71.7081 19.1621 71.5663 18.444 71.0614 18.0044C70.2456 17.2774 69.031 17.4301 69.031 17.4301L72.1959 29.5819C72.1959 29.5819 73.242 29.6627 73.7649 29.3845C74.4474 29.0344 74.784 28.7563 75.2009 27.0958C75.5731 25.6239 76.6105 21.2979 76.7079 20.9838C76.7521 20.8311 76.8141 20.4634 77.0803 20.4634C77.3549 20.4634 77.4085 20.8223 77.4524 20.9838C77.5499 21.289 78.5781 25.6243 78.9594 27.0958C79.3763 28.7475 79.7043 29.0165 80.3958 29.3845C80.9186 29.6627 81.9649 29.5819 81.9649 29.5819L85.1294 17.4389C85.1294 17.4389 83.9152 17.2863 83.0997 18.0044ZM88.0459 19.4135C88.0459 19.4135 87.8509 19.7188 87.399 19.9878C87.1064 20.1496 86.8315 20.266 86.5303 20.4098C86.0336 20.652 85.892 20.9301 85.892 21.343V29.5827C85.892 29.5827 86.6984 29.681 87.2126 29.4208C87.8862 29.0707 88.037 28.739 88.0459 27.222V19.4135ZM95.9534 23.533L99.9694 17.4657C99.9694 17.4657 98.276 17.1696 97.4339 17.9508C96.8932 18.444 96.2902 19.3328 96.2902 19.3328L94.8186 21.5048C94.739 21.6123 94.6592 21.7382 94.5084 21.7382C94.3576 21.7382 94.2604 21.6215 94.1981 21.5048L92.7089 19.3416C92.7089 19.3416 92.1151 18.4528 91.5652 17.9596C90.7321 17.1787 89.03 17.4745 89.03 17.4745L93.0546 23.5242L89.03 29.5643C89.03 29.5643 90.8031 29.7976 91.6364 29.0168C92.1771 28.5232 92.7 27.7064 92.7 27.7064L94.1716 25.5435C94.2514 25.4357 94.331 25.3102 94.482 25.3102C94.6327 25.3102 94.7298 25.4268 94.7921 25.5435L96.2637 27.7064C96.2637 27.7064 96.8131 28.5053 97.3452 29.0168C98.1785 29.7976 99.9251 29.5643 99.9251 29.5643L95.9534 23.533Z" fill="white"/>
<rect x="31" width="45" height="45" rx="22.5" fill="#1A749D"/>
<path d="M42.8193 22.4995C42.8193 26.7959 45.2762 30.5089 48.8388 32.2686L43.7441 18.082C43.1514 19.4321 42.8193 20.926 42.8193 22.4995Z" fill="white"/>
<path d="M60.71 21.9518C60.71 20.6104 60.2358 19.6813 59.8292 18.9583C59.2878 18.0642 58.7804 17.307 58.7804 16.4129C58.7804 15.4151 59.5249 14.4862 60.5739 14.4862C60.6211 14.4862 60.666 14.4923 60.7122 14.495C58.812 12.7256 56.2804 11.6455 53.5 11.6455C49.7687 11.6455 46.4859 13.5912 44.5762 16.538C44.8268 16.5456 45.0629 16.551 45.2636 16.551C46.3806 16.551 48.1098 16.4133 48.1098 16.4133C48.6856 16.3788 48.7535 17.2381 48.1784 17.3075C48.1784 17.3075 47.5998 17.3766 46.9559 17.4109L50.8453 29.1681L53.1827 22.044L51.5187 17.4105C50.9435 17.3762 50.3986 17.307 50.3986 17.307C49.8232 17.2727 49.8906 16.3783 50.466 16.4129C50.466 16.4129 52.2298 16.5505 53.2795 16.5505C54.3963 16.5505 56.1259 16.4129 56.1259 16.4129C56.7019 16.3783 56.7696 17.2377 56.1943 17.307C56.1943 17.307 55.6144 17.3762 54.9718 17.4105L58.8316 29.0788L59.8968 25.4607C60.3587 23.9594 60.71 22.8812 60.71 21.9518Z" fill="white"/>
<path d="M53.6871 23.4492L50.4827 32.9128C51.4394 33.1986 52.4514 33.355 53.4998 33.355C54.7436 33.355 55.9362 33.1365 57.0466 32.7398C57.0178 32.6933 56.9919 32.6439 56.9704 32.5902L53.6871 23.4492Z" fill="white"/>
<path d="M62.8715 17.2915C62.9174 17.6374 62.9434 18.0085 62.9434 18.4076C62.9434 19.5092 62.7409 20.7473 62.1312 22.2957L58.8689 31.8817C62.0441 30 64.1799 26.5039 64.1799 22.4994C64.1801 20.6123 63.7057 18.8376 62.8715 17.2915Z" fill="white"/>
<path d="M53.4998 9.84717C46.635 9.84717 41.0497 15.5231 41.0497 22.4997C41.0497 29.4774 46.635 35.1531 53.4998 35.1531C60.3644 35.1531 65.9506 29.4774 65.9506 22.4997C65.9504 15.5231 60.3644 9.84717 53.4998 9.84717ZM53.4998 34.5732C46.9499 34.5732 41.6205 29.1571 41.6205 22.4997C41.6205 15.843 46.9497 10.4274 53.4998 10.4274C60.0496 10.4274 65.3784 15.843 65.3784 22.4997C65.3784 29.1571 60.0496 34.5732 53.4998 34.5732Z" fill="white"/>
<rect width="45" height="45" rx="22.5" fill="#FA8669"/>
<mask id="mask0_22_426" style="mask-type:luminance" maskUnits="userSpaceOnUse" x="9" y="9" width="27" height="27">
<path d="M35.1745 9.89844H9.82568V35.1015H35.1745V9.89844Z" fill="white"/>
</mask>
<g mask="url(#mask0_22_426)">
<path d="M22.8308 21.0809V29.8186H21.2272V20.4678L22.8308 21.0809Z" fill="white"/>
<path d="M16.4243 20.2658C16.4243 18.0315 17.623 16.8135 19.0282 16.8135C20.4334 16.8135 20.6318 17.0192 22.2273 17.8298C23.8228 18.6404 24.2278 18.8462 25.0296 18.8462C25.8314 18.8462 26.2283 18.229 26.2283 17.0151H27.6254C27.8279 19.4511 26.4267 20.4674 25.0215 20.4674C23.6163 20.4674 23.2195 20.2617 21.8224 19.4511C20.4253 18.6404 20.0203 18.4347 19.2185 18.4347C18.4167 18.4347 18.0198 19.0519 17.8214 20.4674L16.4243 20.2658Z" fill="white"/>
<path d="M22.2274 35.1015C19.7746 35.1015 17.3769 34.3625 15.3374 32.9779C13.2979 31.5931 11.7084 29.625 10.7697 27.3224C9.83106 25.0198 9.58546 22.486 10.064 20.0415C10.5425 17.5971 11.7237 15.3517 13.4581 13.5893C15.1925 11.827 17.4023 10.6268 19.808 10.1406C22.2137 9.65434 24.7073 9.9039 26.9734 10.8577C29.2395 11.8115 31.1763 13.4266 32.5392 15.4989C33.9019 17.5713 34.6292 20.0076 34.6292 22.5C34.6255 25.8409 33.3175 29.044 30.9927 31.4065C28.6677 33.7688 25.5154 35.0978 22.2274 35.1015ZM22.2274 10.7214C19.9332 10.7214 17.6905 11.4127 15.7829 12.7078C13.8753 14.003 12.3885 15.8438 11.5105 17.9976C10.6325 20.1514 10.4028 22.5213 10.8504 24.8077C11.298 27.0941 12.4028 29.1943 14.025 30.8427C15.6473 32.4911 17.7142 33.6138 19.9644 34.0685C22.2146 34.5234 24.5469 34.2899 26.6666 33.3978C28.7861 32.5057 30.5979 30.995 31.8724 29.0566C33.147 27.1183 33.8274 24.8394 33.8274 22.5082C33.8251 19.3828 32.6024 16.3861 30.4274 14.1761C28.2525 11.9661 25.3033 10.7236 22.2274 10.7214Z" fill="white"/>
</g>
</svg>
