<svg width="24" height="24" viewBox="0 0 24 24" fill="none" xmlns="http://www.w3.org/2000/svg">
<path d="M20.0169 4.05114C19.659 3.69316 19.0785 3.69316 18.7206 4.05114L12.034 10.7377L5.34756 4.05114C4.98959 3.69316 4.40918 3.69316 4.0512 4.05114C3.69322 4.40912 3.69322 4.98953 4.0512 5.3475L10.7377 12.034L4.05122 18.7205C3.69324 19.0785 3.69324 19.6589 4.05122 20.0169C4.4092 20.3749 4.9896 20.3749 5.34758 20.0169L12.034 13.3304L18.7206 20.0169C19.0785 20.3749 19.659 20.3749 20.0169 20.0169C20.3749 19.6589 20.3749 19.0785 20.0169 18.7205L13.3304 12.034L20.0169 5.3475C20.3749 4.98953 20.3749 4.40912 20.0169 4.05114Z" fill="#FF0000"/>
</svg>
