<svg width="331" height="191" viewBox="0 0 331 191" fill="none" xmlns="http://www.w3.org/2000/svg">
<path d="M258.941 153.487L252.884 147.43" stroke="#FDBE58" stroke-width="2" stroke-linecap="round" stroke-linejoin="round"/>
<path d="M267.785 149.21C268.794 148.705 268.671 147.228 267.594 146.897L247.832 140.816C246.873 140.521 245.975 141.42 246.27 142.379L252.35 162.14C252.682 163.218 254.159 163.34 254.663 162.331L258.851 153.956C258.972 153.714 259.168 153.518 259.41 153.397L267.785 149.21Z" fill="#FDBE58" stroke="#FDBE58" stroke-width="2" stroke-linecap="round" stroke-linejoin="round"/>
<rect x="0.825806" y="43.5986" width="88.3633" height="88.3633" rx="44.1816" fill="#77CA20"/>
<rect x="61.2074" y="43.5986" width="88.3633" height="88.3633" rx="44.1816" fill="#212121"/>
<rect x="121.589" y="43.5986" width="88.3633" height="88.3633" rx="44.1816" fill="#0D6EFD"/>
<rect x="181.971" y="43.5986" width="88.3633" height="88.3633" rx="44.1816" fill="#4B0882"/>
<rect x="242.852" y="44.0986" width="87.3633" height="87.3633" rx="43.6816" fill="white" stroke="#D5D5D5"/>
<path d="M287.239 86.3032C287.239 86.7098 287.569 87.0395 287.975 87.0395H297.707C298.057 87.0395 298.341 87.3231 298.341 87.6728C298.341 88.0226 298.057 88.3061 297.707 88.3061H287.975C287.569 88.3061 287.239 88.6358 287.239 89.0425V99.387C287.239 99.8363 286.875 100.201 286.426 100.201C285.976 100.201 285.612 99.8363 285.612 99.387V89.0425C285.612 88.6358 285.282 88.3061 284.876 88.3061H275.36C275.01 88.3061 274.727 88.0226 274.727 87.6728C274.727 87.3231 275.01 87.0395 275.36 87.0395H284.876C285.282 87.0395 285.612 86.7098 285.612 86.3032V76.1749C285.612 75.7256 285.976 75.3614 286.426 75.3614C286.875 75.3614 287.239 75.7256 287.239 76.1749V86.3032Z" fill="#212121" stroke="#212121" stroke-width="1.47272" stroke-linejoin="round"/>
</svg>
