<svg width="236" height="113" viewBox="0 0 236 113" fill="none" xmlns="http://www.w3.org/2000/svg">
<rect x="74.2547" y="12.5234" width="87.4906" height="87.4906" rx="43.7453" fill="#36CF3F" stroke="#36CF3F" stroke-width="0.883743"/>
<path d="M132.731 37.7095H103.415C100.087 37.7095 97.3792 40.375 97.3792 43.6518V60.63C97.3792 63.9068 100.087 66.5724 103.415 66.5724H107.316L104.339 73.8969C104.196 74.2466 104.306 74.6473 104.608 74.8799C104.763 75.0005 104.951 75.0616 105.141 75.0616C105.317 75.0616 105.493 75.009 105.643 74.9037L117.49 66.5724H132.734C136.062 66.5724 138.77 63.9069 138.77 60.63V43.6518C138.766 40.375 136.059 37.7095 132.731 37.7095Z" fill="white"/>
</svg>
