<svg width="101" height="101" viewBox="0 0 101 101" fill="none" xmlns="http://www.w3.org/2000/svg">
<rect x="0.51524" y="1.30381" width="98.992" height="98.992" rx="49.496" fill="#0D6EFD" stroke="#0D6EFD" stroke-width="1.00802"/>
<path d="M66.6798 29.7998H33.5075C29.7414 29.7998 26.6779 32.816 26.6779 36.5239V55.7356C26.6779 59.4434 29.7414 62.4597 33.5075 62.4597H37.9214L34.5534 70.7477C34.3914 71.1434 34.5164 71.5968 34.8578 71.86C35.0334 71.9964 35.2461 72.0656 35.4608 72.0656C35.6598 72.0656 35.8589 72.0061 36.0286 71.8869L49.4341 62.4597H66.6838C70.4498 62.4597 73.5134 59.4435 73.5134 55.7356V36.5239C73.5094 32.816 70.4459 29.7998 66.6798 29.7998Z" fill="white"/>
</svg>
