<svg width="640" height="501" viewBox="0 0 640 501" fill="none" xmlns="http://www.w3.org/2000/svg">
<rect width="640" height="500" fill="white"/>
<path d="M0 207.773C0 198.542 0 193.926 1.68572 190.084C2.93759 187.231 4.83861 184.71 7.23724 182.722C10.4671 180.045 14.9051 178.776 23.7809 176.238L598.181 11.9602C612.969 7.73093 620.362 5.61631 626.163 7.49499C630.425 8.87541 634.1 11.6468 636.599 15.3648C640 20.4249 640 28.1152 640 43.4958V467.665C640 479.622 640 485.6 637.526 490.1C635.698 493.426 632.961 496.163 629.635 497.991C625.135 500.465 619.157 500.465 607.2 500.465H32.8C20.8432 500.465 14.8649 500.465 10.3649 497.991C7.03914 496.163 4.30223 493.426 2.47387 490.1C0 485.6 0 479.622 0 467.665V207.773Z" fill="url(#paint0_linear_25_1914)"/>
<defs>
<linearGradient id="paint0_linear_25_1914" x1="1056.77" y1="1125.1" x2="-98.6449" y2="-32.0887" gradientUnits="userSpaceOnUse">
<stop stop-color="#0D6EFD"/>
<stop offset="1" stop-color="#0D6EFD" stop-opacity="0"/>
</linearGradient>
</defs>
</svg>
