<svg width="38" height="53" viewBox="0 0 38 53" fill="none" xmlns="http://www.w3.org/2000/svg">
<path d="M22.5696 51.4365C22.3354 51.5828 22.2642 51.8913 22.4106 52.1255C22.5569 52.3596 22.8654 52.4309 23.0995 52.2845L22.5696 51.4365ZM0.534395 4.15502C0.38463 4.38702 0.451298 4.6965 0.6833 4.84627L4.464 7.28682C4.696 7.43658 5.00549 7.36991 5.15525 7.13791C5.30502 6.90591 5.23835 6.59643 5.00635 6.44666L1.64572 4.27728L3.8151 0.916658C3.96487 0.684656 3.8982 0.375175 3.6662 0.225408C3.4342 0.0756454 3.12471 0.142311 2.97495 0.374313L0.534395 4.15502ZM23.0995 52.2845C37.373 43.3657 40.0605 29.5005 34.9928 18.7323C29.9332 7.98133 17.1912 0.417097 0.849181 3.9374L1.05976 4.91498C16.971 1.48747 29.2368 8.85008 34.0879 19.1581C38.9309 29.4488 36.4318 42.7746 22.5696 51.4365L23.0995 52.2845Z" fill="#0D6EFD"/>
</svg>
