<svg width="191" height="61" viewBox="0 0 191 61" fill="none" xmlns="http://www.w3.org/2000/svg">
<rect x="1.04272" y="1.11963" width="189.457" height="59" rx="9.5" fill="white" stroke="#F0F0F0"/>
<path d="M66.4633 19.9804V19.2284H68.2713C68.6447 19.2284 68.9807 19.1644 69.2793 19.0364C69.578 18.9084 69.8127 18.7217 69.9833 18.4764C70.154 18.2311 70.2393 17.9324 70.2393 17.5804C70.2393 17.0471 70.0527 16.6364 69.6793 16.3484C69.306 16.0497 68.8367 15.9004 68.2713 15.9004H66.7513V24.7004H68.4313C68.9113 24.7004 69.3327 24.6151 69.6953 24.4444C70.0687 24.2737 70.3567 24.0284 70.5593 23.7084C70.7727 23.3884 70.8793 22.9991 70.8793 22.5404C70.8793 22.1991 70.8207 21.8951 70.7033 21.6284C70.586 21.3617 70.4153 21.1377 70.1913 20.9564C69.978 20.7751 69.722 20.6417 69.4233 20.5564C69.1247 20.4604 68.794 20.4124 68.4313 20.4124H66.4633V19.6604H68.4313C68.9753 19.6604 69.4767 19.7191 69.9353 19.8364C70.394 19.9537 70.794 20.1351 71.1353 20.3804C71.4873 20.6151 71.7593 20.9191 71.9513 21.2924C72.1433 21.6657 72.2393 22.1084 72.2393 22.6204C72.2393 23.3564 72.0687 23.9697 71.7273 24.4604C71.3967 24.9404 70.9433 25.3031 70.3673 25.5484C69.802 25.7831 69.1567 25.9004 68.4313 25.9004H65.3913V14.7004H68.2713C68.9433 14.7004 69.5247 14.8017 70.0153 15.0044C70.5167 15.2071 70.906 15.5164 71.1833 15.9324C71.4607 16.3377 71.5993 16.8604 71.5993 17.5004C71.5993 18.0231 71.4607 18.4711 71.1833 18.8444C70.906 19.2177 70.5167 19.5004 70.0153 19.6924C69.5247 19.8844 68.9433 19.9804 68.2713 19.9804H66.4633ZM80.8732 18.5404H82.1532V25.9004H80.8732V18.5404ZM74.2332 18.5404H75.5132V25.9004H74.2332V18.5404ZM74.9852 22.4444V21.3244H77.2732C78.0305 21.3244 78.6652 21.5111 79.1772 21.8844C79.6999 22.2471 79.9612 22.8231 79.9612 23.6124C79.9612 24.1351 79.8439 24.5671 79.6092 24.9084C79.3745 25.2497 79.0545 25.5004 78.6492 25.6604C78.2439 25.8204 77.7852 25.9004 77.2732 25.9004H74.9852V24.7804H77.2732C77.5825 24.7804 77.8385 24.7377 78.0412 24.6524C78.2545 24.5564 78.4145 24.4231 78.5212 24.2524C78.6279 24.0711 78.6812 23.8577 78.6812 23.6124C78.6812 23.2391 78.5639 22.9511 78.3292 22.7484C78.0945 22.5457 77.7425 22.4444 77.2732 22.4444H74.9852ZM88.7026 22.2204C88.7026 21.4737 88.8679 20.8124 89.1986 20.2364C89.5399 19.6604 89.9986 19.2071 90.5746 18.8764C91.1506 18.5457 91.7959 18.3804 92.5106 18.3804C93.2359 18.3804 93.8812 18.5457 94.4466 18.8764C95.0226 19.2071 95.4759 19.6604 95.8066 20.2364C96.1479 20.8124 96.3186 21.4737 96.3186 22.2204C96.3186 22.9564 96.1479 23.6177 95.8066 24.2044C95.4759 24.7804 95.0226 25.2337 94.4466 25.5644C93.8812 25.8951 93.2359 26.0604 92.5106 26.0604C91.7959 26.0604 91.1506 25.8951 90.5746 25.5644C89.9986 25.2337 89.5399 24.7804 89.1986 24.2044C88.8679 23.6177 88.7026 22.9564 88.7026 22.2204ZM89.9986 22.2204C89.9986 22.7324 90.1052 23.1857 90.3186 23.5804C90.5426 23.9751 90.8412 24.2897 91.2146 24.5244C91.5986 24.7484 92.0306 24.8604 92.5106 24.8604C92.9906 24.8604 93.4172 24.7484 93.7906 24.5244C94.1746 24.2897 94.4732 23.9751 94.6866 23.5804C94.9106 23.1857 95.0226 22.7324 95.0226 22.2204C95.0226 21.7084 94.9106 21.2551 94.6866 20.8604C94.4732 20.4551 94.1746 20.1404 93.7906 19.9164C93.4172 19.6924 92.9906 19.5804 92.5106 19.5804C92.0306 19.5804 91.5986 19.6924 91.2146 19.9164C90.8412 20.1404 90.5426 20.4551 90.3186 20.8604C90.1052 21.2551 89.9986 21.7084 89.9986 22.2204ZM96.957 18.5404H101.277V19.7404H96.957V18.5404ZM98.477 18.8604H99.757V25.9004H98.477V18.8604ZM103.313 22.0604H105.441C105.953 22.0604 106.412 22.1137 106.817 22.2204C107.223 22.3271 107.543 22.5137 107.777 22.7804C108.012 23.0471 108.129 23.4204 108.129 23.9004C108.129 24.4551 107.943 24.9297 107.569 25.3244C107.207 25.7084 106.604 25.9004 105.761 25.9004H103.313V24.7804H105.441C105.921 24.7804 106.273 24.6791 106.497 24.4764C106.732 24.2737 106.849 24.0284 106.849 23.7404C106.849 23.5911 106.817 23.4577 106.753 23.3404C106.7 23.2231 106.615 23.1164 106.497 23.0204C106.391 22.9244 106.247 22.8551 106.065 22.8124C105.895 22.7591 105.687 22.7324 105.441 22.7324H103.313V22.0604ZM103.313 22.3804V21.6284H105.281C105.473 21.6284 105.644 21.6071 105.793 21.5644C105.953 21.5111 106.087 21.4364 106.193 21.3404C106.3 21.2444 106.38 21.1377 106.433 21.0204C106.497 20.8924 106.529 20.7591 106.529 20.6204C106.529 20.3324 106.417 20.1031 106.193 19.9324C105.969 19.7511 105.665 19.6604 105.281 19.6604H103.313V18.5404H105.281C105.74 18.5404 106.156 18.6097 106.529 18.7484C106.913 18.8764 107.223 19.0897 107.457 19.3884C107.692 19.6764 107.809 20.0604 107.809 20.5404C107.809 20.9564 107.692 21.3031 107.457 21.5804C107.223 21.8471 106.913 22.0497 106.529 22.1884C106.156 22.3164 105.74 22.3804 105.281 22.3804H103.313ZM102.561 18.5404H103.841V25.9004H102.561V18.5404ZM109.987 22.5404V21.4524H114.899C114.857 21.0684 114.75 20.7324 114.579 20.4444C114.419 20.1457 114.19 19.9164 113.891 19.7564C113.603 19.5857 113.246 19.5004 112.819 19.5004C112.393 19.5004 112.003 19.5911 111.651 19.7724C111.299 19.9537 111.017 20.2151 110.803 20.5564C110.601 20.8871 110.499 21.2817 110.499 21.7404L110.467 22.2204C110.467 22.7857 110.563 23.2657 110.755 23.6604C110.947 24.0551 111.219 24.3537 111.571 24.5564C111.923 24.7591 112.339 24.8604 112.819 24.8604C113.182 24.8604 113.502 24.8071 113.779 24.7004C114.067 24.5831 114.323 24.4284 114.547 24.2364C114.771 24.0337 114.963 23.7991 115.123 23.5324L116.163 24.1884C115.918 24.5617 115.646 24.8924 115.347 25.1804C115.049 25.4577 114.686 25.6764 114.259 25.8364C113.833 25.9857 113.299 26.0604 112.659 26.0604C111.998 26.0604 111.401 25.8951 110.867 25.5644C110.345 25.2337 109.929 24.7804 109.619 24.2044C109.321 23.6177 109.171 22.9564 109.171 22.2204C109.171 22.0817 109.177 21.9484 109.187 21.8204C109.198 21.6924 109.214 21.5644 109.235 21.4364C109.342 20.8284 109.555 20.2951 109.875 19.8364C110.195 19.3777 110.606 19.0204 111.107 18.7644C111.619 18.5084 112.19 18.3804 112.819 18.3804C113.513 18.3804 114.121 18.5351 114.643 18.8444C115.166 19.1537 115.571 19.5911 115.859 20.1564C116.147 20.7111 116.291 21.3777 116.291 22.1564C116.291 22.2204 116.291 22.2844 116.291 22.3484C116.291 22.4124 116.286 22.4764 116.275 22.5404H109.987ZM120.526 23.6604V22.4604H123.038V23.6604H120.526ZM122.126 18.5404H123.406V25.9004H122.126V18.5404ZM118.926 18.5404V20.6524C118.926 21.0791 118.974 21.4257 119.07 21.6924C119.166 21.9591 119.331 22.1564 119.566 22.2844C119.8 22.4017 120.12 22.4604 120.526 22.4604V23.6604C119.79 23.6604 119.208 23.5591 118.782 23.3564C118.366 23.1537 118.072 22.8337 117.902 22.3964C117.731 21.9484 117.646 21.3671 117.646 20.6524V18.5404H118.926ZM126.387 23.7404C126.387 23.9964 126.457 24.2151 126.595 24.3964C126.734 24.5671 126.921 24.7004 127.155 24.7964C127.39 24.8817 127.651 24.9244 127.939 24.9244C128.366 24.9244 128.745 24.8604 129.075 24.7324C129.406 24.6044 129.662 24.4017 129.843 24.1244C130.035 23.8471 130.131 23.4791 130.131 23.0204L130.387 23.8204C130.387 24.2897 130.259 24.6951 130.003 25.0364C129.758 25.3671 129.427 25.6231 129.011 25.8044C128.595 25.9751 128.131 26.0604 127.619 26.0604C127.161 26.0604 126.739 25.9751 126.355 25.8044C125.971 25.6337 125.662 25.3831 125.427 25.0524C125.203 24.7111 125.091 24.2897 125.091 23.7884C125.091 23.2657 125.219 22.8231 125.475 22.4604C125.731 22.0977 126.094 21.8204 126.563 21.6284C127.033 21.4257 127.587 21.3244 128.227 21.3244C128.697 21.3244 129.097 21.3884 129.427 21.5164C129.769 21.6337 130.041 21.7724 130.243 21.9324C130.446 22.0817 130.585 22.2044 130.659 22.3004V23.0524C130.297 22.7964 129.929 22.6097 129.555 22.4924C129.182 22.3644 128.761 22.3004 128.291 22.3004C127.865 22.3004 127.507 22.3591 127.219 22.4764C126.942 22.5937 126.734 22.7591 126.595 22.9724C126.457 23.1857 126.387 23.4417 126.387 23.7404ZM126.387 20.2684L125.763 19.2924C126.041 19.0897 126.414 18.8871 126.883 18.6844C127.353 18.4817 127.918 18.3804 128.579 18.3804C129.145 18.3804 129.635 18.4711 130.051 18.6524C130.478 18.8231 130.809 19.0737 131.043 19.4044C131.289 19.7351 131.411 20.1404 131.411 20.6204V25.9004H130.131V20.6204C130.131 20.2471 129.971 19.9697 129.651 19.7884C129.342 19.5964 128.985 19.5004 128.579 19.5004C128.227 19.5004 127.907 19.5484 127.619 19.6444C127.331 19.7297 127.081 19.8364 126.867 19.9644C126.665 20.0817 126.505 20.1831 126.387 20.2684ZM133.753 22.5404V21.4524H138.665C138.622 21.0684 138.516 20.7324 138.345 20.4444C138.185 20.1457 137.956 19.9164 137.657 19.7564C137.369 19.5857 137.012 19.5004 136.585 19.5004C136.158 19.5004 135.769 19.5911 135.417 19.7724C135.065 19.9537 134.782 20.2151 134.569 20.5564C134.366 20.8871 134.265 21.2817 134.265 21.7404L134.233 22.2204C134.233 22.7857 134.329 23.2657 134.521 23.6604C134.713 24.0551 134.985 24.3537 135.337 24.5564C135.689 24.7591 136.105 24.8604 136.585 24.8604C136.948 24.8604 137.268 24.8071 137.545 24.7004C137.833 24.5831 138.089 24.4284 138.313 24.2364C138.537 24.0337 138.729 23.7991 138.889 23.5324L139.929 24.1884C139.684 24.5617 139.412 24.8924 139.113 25.1804C138.814 25.4577 138.452 25.6764 138.025 25.8364C137.598 25.9857 137.065 26.0604 136.425 26.0604C135.764 26.0604 135.166 25.8951 134.633 25.5644C134.11 25.2337 133.694 24.7804 133.385 24.2044C133.086 23.6177 132.937 22.9564 132.937 22.2204C132.937 22.0817 132.942 21.9484 132.953 21.8204C132.964 21.6924 132.98 21.5644 133.001 21.4364C133.108 20.8284 133.321 20.2951 133.641 19.8364C133.961 19.3777 134.372 19.0204 134.873 18.7644C135.385 18.5084 135.956 18.3804 136.585 18.3804C137.278 18.3804 137.886 18.5351 138.409 18.8444C138.932 19.1537 139.337 19.5911 139.625 20.1564C139.913 20.7111 140.057 21.3777 140.057 22.1564C140.057 22.2204 140.057 22.2844 140.057 22.3484C140.057 22.4124 140.052 22.4764 140.041 22.5404H133.753ZM140.691 18.5404H145.011V19.7404H140.691V18.5404ZM142.211 18.8604H143.491V25.9004H142.211V18.8604ZM146.237 22.5404V21.4524H151.149C151.107 21.0684 151 20.7324 150.829 20.4444C150.669 20.1457 150.44 19.9164 150.141 19.7564C149.853 19.5857 149.496 19.5004 149.069 19.5004C148.643 19.5004 148.253 19.5911 147.901 19.7724C147.549 19.9537 147.267 20.2151 147.053 20.5564C146.851 20.8871 146.749 21.2817 146.749 21.7404L146.717 22.2204C146.717 22.7857 146.813 23.2657 147.005 23.6604C147.197 24.0551 147.469 24.3537 147.821 24.5564C148.173 24.7591 148.589 24.8604 149.069 24.8604C149.432 24.8604 149.752 24.8071 150.029 24.7004C150.317 24.5831 150.573 24.4284 150.797 24.2364C151.021 24.0337 151.213 23.7991 151.373 23.5324L152.413 24.1884C152.168 24.5617 151.896 24.8924 151.597 25.1804C151.299 25.4577 150.936 25.6764 150.509 25.8364C150.083 25.9857 149.549 26.0604 148.909 26.0604C148.248 26.0604 147.651 25.8951 147.117 25.5644C146.595 25.2337 146.179 24.7804 145.869 24.2044C145.571 23.6177 145.421 22.9564 145.421 22.2204C145.421 22.0817 145.427 21.9484 145.437 21.8204C145.448 21.6924 145.464 21.5644 145.485 21.4364C145.592 20.8284 145.805 20.2951 146.125 19.8364C146.445 19.3777 146.856 19.0204 147.357 18.7644C147.869 18.5084 148.44 18.3804 149.069 18.3804C149.763 18.3804 150.371 18.5351 150.893 18.8444C151.416 19.1537 151.821 19.5911 152.109 20.1564C152.397 20.7111 152.541 21.3777 152.541 22.1564C152.541 22.2204 152.541 22.2844 152.541 22.3484C152.541 22.4124 152.536 22.4764 152.525 22.5404H146.237ZM164.933 18.5404L160.133 29.4204H158.693L160.709 24.8604L157.893 18.5404H159.413L161.749 24.3004L161.221 24.2364L163.493 18.5404L164.933 18.5404ZM65.8873 41.2204C65.8873 41.7324 65.994 42.1857 66.2073 42.5804C66.4313 42.9751 66.73 43.2897 67.1033 43.5244C67.4873 43.7484 67.9193 43.8604 68.3993 43.8604C68.794 43.8604 69.162 43.8017 69.5033 43.6844C69.8553 43.5564 70.1593 43.3911 70.4153 43.1884C70.6713 42.9751 70.8527 42.7511 70.9593 42.5164V44.1164C70.7033 44.4151 70.3353 44.6497 69.8553 44.8204C69.386 44.9804 68.9007 45.0604 68.3993 45.0604C67.6847 45.0604 67.0393 44.8951 66.4633 44.5644C65.8873 44.2337 65.4287 43.7804 65.0873 43.2044C64.7567 42.6177 64.5913 41.9564 64.5913 41.2204C64.5913 40.4737 64.7567 39.8124 65.0873 39.2364C65.4287 38.6604 65.8873 38.2071 66.4633 37.8764C67.0393 37.5457 67.6847 37.3804 68.3993 37.3804C68.9007 37.3804 69.386 37.4657 69.8553 37.6364C70.3353 37.7964 70.7033 38.0257 70.9593 38.3244V39.9244C70.8527 39.6791 70.6713 39.4551 70.4153 39.2524C70.1593 39.0497 69.8553 38.8897 69.5033 38.7724C69.162 38.6444 68.794 38.5804 68.3993 38.5804C67.9193 38.5804 67.4873 38.6924 67.1033 38.9164C66.73 39.1404 66.4313 39.4551 66.2073 39.8604C65.994 40.2551 65.8873 40.7084 65.8873 41.2204ZM73.128 41.5404V40.4524H78.04C77.9973 40.0684 77.8906 39.7324 77.72 39.4444C77.56 39.1457 77.3306 38.9164 77.032 38.7564C76.744 38.5857 76.3866 38.5004 75.96 38.5004C75.5333 38.5004 75.144 38.5911 74.792 38.7724C74.44 38.9537 74.1573 39.2151 73.944 39.5564C73.7413 39.8871 73.64 40.2817 73.64 40.7404L73.608 41.2204C73.608 41.7857 73.704 42.2657 73.896 42.6604C74.088 43.0551 74.36 43.3537 74.712 43.5564C75.064 43.7591 75.48 43.8604 75.96 43.8604C76.3226 43.8604 76.6426 43.8071 76.92 43.7004C77.208 43.5831 77.464 43.4284 77.688 43.2364C77.912 43.0337 78.104 42.7991 78.264 42.5324L79.304 43.1884C79.0586 43.5617 78.7866 43.8924 78.488 44.1804C78.1893 44.4577 77.8266 44.6764 77.4 44.8364C76.9733 44.9857 76.44 45.0604 75.8 45.0604C75.1386 45.0604 74.5413 44.8951 74.008 44.5644C73.4853 44.2337 73.0693 43.7804 72.76 43.2044C72.4613 42.6177 72.312 41.9564 72.312 41.2204C72.312 41.0817 72.3173 40.9484 72.328 40.8204C72.3386 40.6924 72.3546 40.5644 72.376 40.4364C72.4826 39.8284 72.696 39.2951 73.016 38.8364C73.336 38.3777 73.7466 38.0204 74.248 37.7644C74.76 37.5084 75.3306 37.3804 75.96 37.3804C76.6533 37.3804 77.2613 37.5351 77.784 37.8444C78.3066 38.1537 78.712 38.5911 79 39.1564C79.288 39.7111 79.432 40.3777 79.432 41.1564C79.432 41.2204 79.432 41.2844 79.432 41.3484C79.432 41.4124 79.4266 41.4764 79.416 41.5404H73.128ZM84.3543 38.5804V37.3804C85.0797 37.3804 85.725 37.5457 86.2903 37.8764C86.8663 38.2071 87.3197 38.6604 87.6503 39.2364C87.9917 39.8124 88.1623 40.4737 88.1623 41.2204C88.1623 41.9564 87.9917 42.6177 87.6503 43.2044C87.3197 43.7804 86.8663 44.2337 86.2903 44.5644C85.725 44.8951 85.0797 45.0604 84.3543 45.0604C83.6397 45.0604 82.9943 44.8844 82.4183 44.5324C81.8423 44.1697 81.3837 43.6311 81.0423 42.9164C80.7117 42.2017 80.5463 41.3164 80.5463 40.2604L81.8263 41.2204C81.8263 41.7324 81.9383 42.1857 82.1623 42.5804C82.3863 42.9751 82.685 43.2897 83.0583 43.5244C83.4423 43.7484 83.8743 43.8604 84.3543 43.8604C84.8343 43.8604 85.261 43.7484 85.6343 43.5244C86.0183 43.2897 86.317 42.9751 86.5303 42.5804C86.7543 42.1857 86.8663 41.7324 86.8663 41.2204C86.8663 40.7084 86.7543 40.2551 86.5303 39.8604C86.317 39.4551 86.0183 39.1404 85.6343 38.9164C85.261 38.6924 84.8343 38.5804 84.3543 38.5804ZM81.2503 41.2204C81.2503 40.6231 81.325 40.0897 81.4743 39.6204C81.6237 39.1404 81.837 38.7351 82.1143 38.4044C82.3917 38.0737 82.717 37.8231 83.0903 37.6524C83.4743 37.4711 83.8957 37.3804 84.3543 37.3804V38.5804C84.077 38.5804 83.789 38.6391 83.4903 38.7564C83.1917 38.8737 82.9143 39.0444 82.6583 39.2684C82.413 39.4924 82.2103 39.7697 82.0503 40.1004C81.901 40.4204 81.8263 40.7937 81.8263 41.2204H81.2503ZM80.5463 40.2604C80.5463 39.2577 80.6423 38.3724 80.8343 37.6044C81.0263 36.8364 81.3623 36.1857 81.8423 35.6524C82.333 35.1084 83.005 34.6924 83.8583 34.4044C84.5837 34.1591 85.1223 33.8657 85.4743 33.5244C85.837 33.1724 86.0557 32.8044 86.1303 32.4204H87.3943C87.341 32.8897 87.1703 33.3217 86.8823 33.7164C86.5943 34.1004 86.2157 34.4364 85.7463 34.7244C85.2877 35.0124 84.765 35.2524 84.1783 35.4444C83.517 35.6577 82.9997 35.9777 82.6263 36.4044C82.2637 36.8311 82.013 37.3164 81.8743 37.8604C81.7357 38.3937 81.6663 38.9271 81.6663 39.4604V41.1084L80.5463 40.2604ZM90.9767 44.9004H89.5687L92.2887 41.0604H93.6967L90.9767 44.9004ZM95.6487 44.9004H94.3687V37.5404H95.6487V44.9004ZM94.8967 40.8364V41.9564H92.6087C92.1074 41.9564 91.6487 41.8817 91.2327 41.7324C90.8274 41.5831 90.5074 41.3484 90.2727 41.0284C90.038 40.6977 89.9207 40.2711 89.9207 39.7484C89.9207 39.2151 90.038 38.7884 90.2727 38.4684C90.5074 38.1484 90.8274 37.9137 91.2327 37.7644C91.6487 37.6151 92.1074 37.5404 92.6087 37.5404H94.8967V38.6604H92.6087C92.2994 38.6604 92.038 38.7031 91.8247 38.7884C91.622 38.8631 91.4674 38.9804 91.3607 39.1404C91.254 39.3004 91.2007 39.5031 91.2007 39.7484C91.2007 39.9937 91.254 40.1964 91.3607 40.3564C91.4674 40.5164 91.622 40.6391 91.8247 40.7244C92.038 40.7991 92.2994 40.8364 92.6087 40.8364H94.8967ZM103.204 41.0604H105.332C105.844 41.0604 106.303 41.1137 106.708 41.2204C107.113 41.3271 107.433 41.5137 107.668 41.7804C107.903 42.0471 108.02 42.4204 108.02 42.9004C108.02 43.4551 107.833 43.9297 107.46 44.3244C107.097 44.7084 106.495 44.9004 105.652 44.9004H103.204V43.7804H105.332C105.812 43.7804 106.164 43.6791 106.388 43.4764C106.623 43.2737 106.74 43.0284 106.74 42.7404C106.74 42.5911 106.708 42.4577 106.644 42.3404C106.591 42.2231 106.505 42.1164 106.388 42.0204C106.281 41.9244 106.137 41.8551 105.956 41.8124C105.785 41.7591 105.577 41.7324 105.332 41.7324H103.204V41.0604ZM103.204 41.3804V40.6284H105.172C105.364 40.6284 105.535 40.6071 105.684 40.5644C105.844 40.5111 105.977 40.4364 106.084 40.3404C106.191 40.2444 106.271 40.1377 106.324 40.0204C106.388 39.8924 106.42 39.7591 106.42 39.6204C106.42 39.3324 106.308 39.1031 106.084 38.9324C105.86 38.7511 105.556 38.6604 105.172 38.6604H103.204V37.5404H105.172C105.631 37.5404 106.047 37.6097 106.42 37.7484C106.804 37.8764 107.113 38.0897 107.348 38.3884C107.583 38.6764 107.7 39.0604 107.7 39.5404C107.7 39.9564 107.583 40.3031 107.348 40.5804C107.113 40.8471 106.804 41.0497 106.42 41.1884C106.047 41.3164 105.631 41.3804 105.172 41.3804H103.204ZM102.452 37.5404H103.732V44.9004H102.452V37.5404ZM113.459 34.9804V33.7004H120.579V34.9804H117.699V44.9004H116.339V34.9804H113.459ZM123.191 45.0604C122.508 45.0604 121.9 44.9004 121.367 44.5804C120.844 44.2497 120.433 43.7964 120.135 43.2204C119.847 42.6444 119.703 41.9777 119.703 41.2204C119.703 40.4524 119.852 39.7804 120.151 39.2044C120.46 38.6284 120.887 38.1804 121.431 37.8604C121.985 37.5404 122.625 37.3804 123.351 37.3804C124.076 37.3804 124.695 37.5351 125.207 37.8444C125.729 38.1431 126.129 38.5751 126.407 39.1404C126.684 39.7057 126.823 40.3777 126.823 41.1564C126.823 41.2311 126.817 41.3111 126.807 41.3964C126.807 41.4711 126.807 41.5191 126.807 41.5404H120.519V40.4524H125.799L125.287 41.1884C125.319 41.1351 125.351 41.0551 125.383 40.9484C125.415 40.8311 125.431 40.7351 125.431 40.6604C125.431 40.2231 125.34 39.8444 125.159 39.5244C124.988 39.2044 124.748 38.9537 124.439 38.7724C124.129 38.5911 123.767 38.5004 123.351 38.5004C122.86 38.5004 122.439 38.6071 122.087 38.8204C121.745 39.0231 121.479 39.3217 121.287 39.7164C121.105 40.1004 121.009 40.5751 120.999 41.1404C120.999 41.7164 121.089 42.2071 121.271 42.6124C121.452 43.0177 121.719 43.3271 122.071 43.5404C122.423 43.7537 122.849 43.8604 123.351 43.8604C123.852 43.8604 124.295 43.7537 124.679 43.5404C125.063 43.3164 125.388 42.9804 125.655 42.5324L126.695 43.1884C126.311 43.8071 125.825 44.2764 125.239 44.5964C124.663 44.9057 123.98 45.0604 123.191 45.0604ZM128.577 32.4204H129.857V44.9004H128.577V32.4204ZM135.112 45.0604C134.43 45.0604 133.822 44.9004 133.288 44.5804C132.766 44.2497 132.355 43.7964 132.056 43.2204C131.768 42.6444 131.624 41.9777 131.624 41.2204C131.624 40.4524 131.774 39.7804 132.072 39.2044C132.382 38.6284 132.808 38.1804 133.352 37.8604C133.907 37.5404 134.547 37.3804 135.272 37.3804C135.998 37.3804 136.616 37.5351 137.128 37.8444C137.651 38.1431 138.051 38.5751 138.328 39.1404C138.606 39.7057 138.744 40.3777 138.744 41.1564C138.744 41.2311 138.739 41.3111 138.728 41.3964C138.728 41.4711 138.728 41.5191 138.728 41.5404H132.44V40.4524H137.72L137.208 41.1884C137.24 41.1351 137.272 41.0551 137.304 40.9484C137.336 40.8311 137.352 40.7351 137.352 40.6604C137.352 40.2231 137.262 39.8444 137.08 39.5244C136.91 39.2044 136.67 38.9537 136.36 38.7724C136.051 38.5911 135.688 38.5004 135.272 38.5004C134.782 38.5004 134.36 38.6071 134.008 38.8204C133.667 39.0231 133.4 39.3217 133.208 39.7164C133.027 40.1004 132.931 40.5751 132.92 41.1404C132.92 41.7164 133.011 42.2071 133.192 42.6124C133.374 43.0177 133.64 43.3271 133.992 43.5404C134.344 43.7537 134.771 43.8604 135.272 43.8604C135.774 43.8604 136.216 43.7537 136.6 43.5404C136.984 43.3164 137.31 42.9804 137.576 42.5324L138.616 43.1884C138.232 43.8071 137.747 44.2764 137.16 44.5964C136.584 44.9057 135.902 45.0604 135.112 45.0604ZM140.003 45.3804H141.299C141.299 45.7324 141.395 46.0577 141.587 46.3564C141.779 46.6657 142.051 46.9111 142.403 47.0924C142.755 47.2844 143.171 47.3804 143.651 47.3804C144.024 47.3804 144.392 47.2897 144.755 47.1084C145.117 46.9271 145.416 46.6391 145.651 46.2444C145.896 45.8604 146.019 45.3591 146.019 44.7404V37.5404H147.299V44.7404C147.299 45.5831 147.123 46.2871 146.771 46.8524C146.419 47.4284 145.965 47.8604 145.411 48.1484C144.856 48.4364 144.269 48.5804 143.651 48.5804C142.936 48.5804 142.301 48.4471 141.747 48.1804C141.203 47.9137 140.776 47.5351 140.467 47.0444C140.157 46.5644 140.003 46.0097 140.003 45.3804ZM139.859 41.2204C139.859 40.4204 140.024 39.7377 140.355 39.1724C140.685 38.5964 141.128 38.1537 141.683 37.8444C142.237 37.5351 142.845 37.3804 143.507 37.3804C144.125 37.3804 144.664 37.5351 145.123 37.8444C145.581 38.1537 145.939 38.5964 146.195 39.1724C146.461 39.7377 146.595 40.4204 146.595 41.2204C146.595 42.0097 146.461 42.6924 146.195 43.2684C145.939 43.8444 145.581 44.2871 145.123 44.5964C144.664 44.9057 144.125 45.0604 143.507 45.0604C142.845 45.0604 142.237 44.9057 141.683 44.5964C141.128 44.2871 140.685 43.8444 140.355 43.2684C140.024 42.6924 139.859 42.0097 139.859 41.2204ZM141.155 41.2204C141.155 41.7857 141.267 42.2657 141.491 42.6604C141.725 43.0551 142.035 43.3537 142.419 43.5564C142.803 43.7591 143.219 43.8604 143.667 43.8604C144.04 43.8604 144.408 43.7591 144.771 43.5564C145.133 43.3537 145.432 43.0551 145.667 42.6604C145.901 42.2657 146.019 41.7857 146.019 41.2204C146.019 40.7937 145.949 40.4204 145.811 40.1004C145.672 39.7697 145.485 39.4924 145.251 39.2684C145.027 39.0444 144.776 38.8737 144.499 38.7564C144.221 38.6391 143.944 38.5804 143.667 38.5804C143.219 38.5804 142.803 38.6817 142.419 38.8844C142.035 39.0871 141.725 39.3857 141.491 39.7804C141.267 40.1751 141.155 40.6551 141.155 41.2204ZM150.904 37.5404V44.9004H149.624V37.5404H150.904ZM153.128 38.9484C152.957 38.8204 152.802 38.7297 152.664 38.6764C152.525 38.6124 152.349 38.5804 152.136 38.5804C151.816 38.5804 151.565 38.6604 151.384 38.8204C151.202 38.9804 151.074 39.1991 151 39.4764C150.936 39.7537 150.904 40.0684 150.904 40.4204H150.328C150.328 39.8337 150.429 39.3164 150.632 38.8684C150.845 38.4097 151.117 38.0471 151.448 37.7804C151.778 37.5137 152.114 37.3804 152.456 37.3804C152.722 37.3804 152.968 37.4177 153.192 37.4924C153.426 37.5564 153.64 37.6897 153.832 37.8924L153.128 38.9484ZM155.684 42.6284C155.684 42.9057 155.748 43.1457 155.876 43.3484C156.015 43.5511 156.202 43.7057 156.436 43.8124C156.682 43.9084 156.959 43.9564 157.268 43.9564C157.663 43.9564 158.015 43.8764 158.324 43.7164C158.644 43.5564 158.895 43.3324 159.076 43.0444C159.268 42.7457 159.364 42.4044 159.364 42.0204L159.62 42.9804C159.62 43.4497 159.476 43.8391 159.188 44.1484C158.911 44.4577 158.564 44.6871 158.148 44.8364C157.743 44.9857 157.338 45.0604 156.932 45.0604C156.484 45.0604 156.063 44.9697 155.668 44.7884C155.284 44.5964 154.975 44.3244 154.74 43.9724C154.506 43.6204 154.388 43.1937 154.388 42.6924C154.388 41.9777 154.639 41.4071 155.14 40.9804C155.652 40.5431 156.362 40.3244 157.268 40.3244C157.802 40.3244 158.244 40.3884 158.596 40.5164C158.959 40.6337 159.247 40.7724 159.46 40.9324C159.674 41.0817 159.818 41.2044 159.892 41.3004V42.0524C159.519 41.7964 159.135 41.6151 158.74 41.5084C158.346 41.3911 157.924 41.3324 157.476 41.3324C157.06 41.3324 156.719 41.3857 156.452 41.4924C156.196 41.5991 156.004 41.7484 155.876 41.9404C155.748 42.1324 155.684 42.3617 155.684 42.6284ZM155.492 39.2364L154.868 38.2924C155.146 38.0897 155.524 37.8871 156.004 37.6844C156.495 37.4817 157.082 37.3804 157.764 37.3804C158.34 37.3804 158.842 37.4711 159.268 37.6524C159.706 37.8231 160.042 38.0737 160.276 38.4044C160.522 38.7351 160.644 39.1404 160.644 39.6204V44.9004H159.364V39.7964C159.364 39.5404 159.322 39.3324 159.236 39.1724C159.151 39.0017 159.028 38.8684 158.868 38.7724C158.719 38.6764 158.543 38.6071 158.34 38.5644C158.138 38.5217 157.924 38.5004 157.7 38.5004C157.338 38.5004 157.007 38.5431 156.708 38.6284C156.42 38.7137 156.175 38.8151 155.972 38.9324C155.77 39.0497 155.61 39.1511 155.492 39.2364ZM172.891 40.2604V44.9004H171.611V40.4204C171.611 39.7911 171.494 39.3271 171.259 39.0284C171.035 38.7297 170.683 38.5804 170.203 38.5804C169.851 38.5804 169.547 38.6551 169.291 38.8044C169.035 38.9431 168.838 39.1511 168.699 39.4284C168.561 39.7057 168.491 40.0364 168.491 40.4204V44.9004H167.211V40.4204C167.211 39.7911 167.094 39.3271 166.859 39.0284C166.635 38.7297 166.283 38.5804 165.803 38.5804C165.451 38.5804 165.147 38.6551 164.891 38.8044C164.635 38.9431 164.438 39.1511 164.299 39.4284C164.161 39.7057 164.091 40.0364 164.091 40.4204V44.9004H162.811V37.5404H164.091V38.6124C164.315 38.1964 164.593 37.8871 164.923 37.6844C165.265 37.4817 165.665 37.3804 166.123 37.3804C166.635 37.3804 167.073 37.5031 167.435 37.7484C167.809 37.9831 168.081 38.3191 168.251 38.7564C168.507 38.2977 168.827 37.9564 169.211 37.7324C169.595 37.4977 170.033 37.3804 170.523 37.3804C171.025 37.3804 171.451 37.4924 171.803 37.7164C172.155 37.9404 172.422 38.2711 172.603 38.7084C172.795 39.1351 172.891 39.6524 172.891 40.2604Z" fill="#212121"/>
<rect x="10.4417" y="9.95264" width="42" height="41.3342" rx="5" fill="url(#paint0_linear_22_386)"/>
<path d="M24.6726 32.3383L27.1578 39.1071L38.2127 23.7407L24.6726 32.3383Z" fill="#C2DAEC"/>
<path d="M27.4438 33.8521L27.1866 39.165L33.0128 34.2236L27.4438 33.8521Z" fill="#9FCDE2"/>
<path d="M40.8972 21.1708L19.1311 29.4533C18.9965 29.505 18.881 29.5964 18.8005 29.7155C18.72 29.835 18.6786 29.9765 18.6818 30.1205C18.685 30.2645 18.7328 30.404 18.8185 30.5198C18.904 30.6356 19.0233 30.7221 19.16 30.7675L24.7578 32.6526L37.5549 24.3978L27.4437 33.8525L35.327 39.823C36.1554 40.4506 37.3264 40.0226 37.5837 39.0223L41.8398 21.9703C41.9817 21.4269 41.4394 20.97 40.8972 21.1708Z" fill="#ECF8FD"/>
<defs>
<linearGradient id="paint0_linear_22_386" x1="16.5883" y1="16.0018" x2="45.7952" y2="45.6803" gradientUnits="userSpaceOnUse">
<stop stop-color="#00AFE5"/>
<stop offset="1" stop-color="#0094D4"/>
</linearGradient>
</defs>
</svg>
