<svg width="331" height="190" viewBox="0 0 331 190" fill="none" xmlns="http://www.w3.org/2000/svg">
<path d="M0.825806 137.009C0.825806 125.963 9.78011 117.009 20.8258 117.009H280.826C291.871 117.009 300.826 125.963 300.826 137.009V164.009H0.825806V137.009Z" fill="#212121"/>
<path d="M21.7107 146.009V135.827H23.8634V140.028H28.2335V135.827H30.3812V146.009H28.2335V141.803H23.8634V146.009H21.7107ZM34.2938 146.153C33.8066 146.153 33.3724 146.068 32.9913 145.899C32.6101 145.727 32.3085 145.474 32.0865 145.139C31.8677 144.801 31.7583 144.38 31.7583 143.876C31.7583 143.452 31.8362 143.095 31.992 142.807C32.1478 142.519 32.3599 142.287 32.6284 142.111C32.8968 141.935 33.2018 141.803 33.5431 141.713C33.8878 141.624 34.2491 141.561 34.6269 141.524C35.0711 141.478 35.429 141.435 35.7008 141.395C35.9726 141.352 36.1698 141.289 36.2924 141.206C36.4151 141.123 36.4764 141.001 36.4764 140.838V140.809C36.4764 140.494 36.3769 140.25 36.1781 140.078C35.9825 139.905 35.7041 139.819 35.3429 139.819C34.9617 139.819 34.6584 139.904 34.4331 140.073C34.2077 140.238 34.0585 140.447 33.9856 140.699L32.0268 140.54C32.1262 140.076 32.3218 139.675 32.6134 139.337C32.9051 138.996 33.2813 138.734 33.742 138.551C34.206 138.366 34.7429 138.273 35.3528 138.273C35.777 138.273 36.1831 138.323 36.5708 138.422C36.9619 138.522 37.3083 138.676 37.6099 138.884C37.9148 139.093 38.1551 139.362 38.3308 139.69C38.5064 140.015 38.5943 140.404 38.5943 140.858V146.009H36.5857V144.95H36.5261C36.4035 145.188 36.2394 145.399 36.0339 145.581C35.8284 145.76 35.5815 145.901 35.2931 146.004C35.0048 146.103 34.6717 146.153 34.2938 146.153ZM34.9004 144.691C35.2119 144.691 35.487 144.63 35.7257 144.507C35.9643 144.381 36.1516 144.212 36.2875 144C36.4233 143.788 36.4913 143.548 36.4913 143.279V142.469C36.425 142.512 36.3339 142.552 36.2179 142.588C36.1052 142.621 35.9776 142.653 35.835 142.683C35.6925 142.709 35.55 142.734 35.4075 142.757C35.265 142.777 35.1357 142.795 35.0197 142.812C34.7711 142.849 34.554 142.907 34.3684 142.986C34.1828 143.066 34.0386 143.173 33.9359 143.309C33.8331 143.442 33.7818 143.608 33.7818 143.806C33.7818 144.095 33.8862 144.315 34.095 144.468C34.3071 144.617 34.5756 144.691 34.9004 144.691ZM40.2374 146.009V138.372H46.9142V146.009H44.8908V140.038H42.236V146.009H40.2374ZM50.628 143.215L53.3773 138.372H55.4654V146.009H53.4469V141.152L50.7076 146.009H48.6046V138.372H50.628V143.215ZM57.1632 138.372H59.1866V144.328H61.3393V138.372H63.3627V144.328H65.5154V138.372H67.5389V146.009H57.1632V138.372ZM71.2042 143.215L73.9535 138.372H76.0415V146.009H74.0231V141.152L71.2837 146.009H69.1807V138.372H71.2042V143.215ZM76.9725 140.038V138.372H83.8929V140.038H81.432V146.009H79.4135V140.038H76.9725ZM88.3835 146.158C87.598 146.158 86.9219 145.999 86.3551 145.681C85.7917 145.359 85.3575 144.905 85.0525 144.318C84.7476 143.728 84.5952 143.031 84.5952 142.225C84.5952 141.44 84.7476 140.751 85.0525 140.157C85.3575 139.564 85.7867 139.102 86.3402 138.77C86.897 138.439 87.5499 138.273 88.299 138.273C88.8028 138.273 89.2718 138.354 89.706 138.517C90.1435 138.676 90.5246 138.916 90.8494 139.237C91.1775 139.559 91.4328 139.963 91.615 140.451C91.7973 140.934 91.8885 141.501 91.8885 142.151V142.733H85.4403V141.42H89.8949C89.8949 141.115 89.8286 140.845 89.696 140.61C89.5634 140.374 89.3795 140.19 89.1442 140.058C88.9122 139.922 88.642 139.854 88.3338 139.854C88.0123 139.854 87.7273 139.929 87.4787 140.078C87.2334 140.224 87.0412 140.421 86.902 140.669C86.7628 140.915 86.6915 141.188 86.6882 141.49V142.737C86.6882 143.115 86.7578 143.442 86.897 143.717C87.0395 143.992 87.24 144.204 87.4986 144.353C87.7571 144.502 88.0637 144.577 88.4183 144.577C88.6536 144.577 88.8691 144.544 89.0646 144.478C89.2602 144.411 89.4275 144.312 89.5668 144.179C89.706 144.047 89.812 143.884 89.8849 143.692L91.8437 143.821C91.7443 144.292 91.5405 144.703 91.2322 145.054C90.9273 145.402 90.5329 145.674 90.049 145.87C89.5684 146.062 89.0132 146.158 88.3835 146.158ZM101.825 141.345V143.011H97.8382V141.345H101.825ZM98.5343 138.372V146.009H96.5108V138.372H98.5343ZM103.153 138.372V146.009H101.144V138.372H103.153ZM106.974 146.153C106.486 146.153 106.052 146.068 105.671 145.899C105.29 145.727 104.988 145.474 104.766 145.139C104.547 144.801 104.438 144.38 104.438 143.876C104.438 143.452 104.516 143.095 104.672 142.807C104.827 142.519 105.04 142.287 105.308 142.111C105.577 141.935 105.881 141.803 106.223 141.713C106.568 141.624 106.929 141.561 107.307 141.524C107.751 141.478 108.109 141.435 108.38 141.395C108.652 141.352 108.849 141.289 108.972 141.206C109.095 141.123 109.156 141.001 109.156 140.838V140.809C109.156 140.494 109.057 140.25 108.858 140.078C108.662 139.905 108.384 139.819 108.023 139.819C107.641 139.819 107.338 139.904 107.113 140.073C106.887 140.238 106.738 140.447 106.665 140.699L104.706 140.54C104.806 140.076 105.001 139.675 105.293 139.337C105.585 138.996 105.961 138.734 106.422 138.551C106.886 138.366 107.423 138.273 108.032 138.273C108.457 138.273 108.863 138.323 109.251 138.422C109.642 138.522 109.988 138.676 110.29 138.884C110.595 139.093 110.835 139.362 111.01 139.69C111.186 140.015 111.274 140.404 111.274 140.858V146.009H109.265V144.95H109.206C109.083 145.188 108.919 145.399 108.714 145.581C108.508 145.76 108.261 145.901 107.973 146.004C107.684 146.103 107.351 146.153 106.974 146.153ZM107.58 144.691C107.892 144.691 108.167 144.63 108.405 144.507C108.644 144.381 108.831 144.212 108.967 144C109.103 143.788 109.171 143.548 109.171 143.279V142.469C109.105 142.512 109.014 142.552 108.898 142.588C108.785 142.621 108.657 142.653 108.515 142.683C108.372 142.709 108.23 142.734 108.087 142.757C107.945 142.777 107.815 142.795 107.699 142.812C107.451 142.849 107.234 142.907 107.048 142.986C106.863 143.066 106.718 143.173 106.616 143.309C106.513 143.442 106.461 143.608 106.461 143.806C106.461 144.095 106.566 144.315 106.775 144.468C106.987 144.617 107.255 144.691 107.58 144.691ZM117.431 143.667L119.499 138.372H121.11L118.132 146.009H116.725L113.817 138.372H115.423L117.431 143.667ZM114.941 138.372V146.009H112.917V138.372H114.941ZM120.026 146.009V138.372H122.025V146.009H120.026ZM125.965 144.617L125.91 145.164C125.867 145.601 125.784 146.037 125.662 146.471C125.542 146.909 125.416 147.305 125.284 147.659C125.155 148.014 125.05 148.292 124.971 148.495H123.599C123.648 148.299 123.716 148.026 123.802 147.674C123.889 147.326 123.97 146.935 124.046 146.501C124.122 146.067 124.17 145.624 124.19 145.174L124.215 144.617H125.965ZM135.177 143.667L137.246 138.372H138.856L135.878 146.009H134.471L131.563 138.372H133.169L135.177 143.667ZM132.687 138.372V146.009H130.663V138.372H132.687ZM137.773 146.009V138.372H139.771V146.009H137.773ZM142.737 140.719H145.019C146.03 140.719 146.818 140.961 147.385 141.445C147.952 141.925 148.235 142.568 148.235 143.374C148.235 143.898 148.108 144.358 147.852 144.756C147.597 145.15 147.229 145.459 146.749 145.681C146.268 145.899 145.691 146.009 145.019 146.009H141.409V138.372H143.433V144.343H145.019C145.373 144.343 145.665 144.254 145.894 144.075C146.122 143.896 146.238 143.667 146.242 143.389C146.238 143.094 146.122 142.853 145.894 142.668C145.665 142.479 145.373 142.384 145.019 142.384H142.737V140.719ZM149.056 146.009V138.372H151.173V146.009H149.056ZM159.557 146.158C158.785 146.158 158.117 145.994 157.553 145.666C156.993 145.334 156.561 144.874 156.256 144.284C155.951 143.69 155.798 143.003 155.798 142.22C155.798 141.432 155.951 140.742 156.256 140.152C156.561 139.559 156.993 139.098 157.553 138.77C158.117 138.439 158.785 138.273 159.557 138.273C160.329 138.273 160.995 138.439 161.555 138.77C162.119 139.098 162.553 139.559 162.858 140.152C163.163 140.742 163.315 141.432 163.315 142.22C163.315 143.003 163.163 143.69 162.858 144.284C162.553 144.874 162.119 145.334 161.555 145.666C160.995 145.994 160.329 146.158 159.557 146.158ZM159.567 144.517C159.918 144.517 160.211 144.418 160.447 144.219C160.682 144.017 160.859 143.742 160.979 143.394C161.101 143.046 161.163 142.65 161.163 142.206C161.163 141.761 161.101 141.365 160.979 141.017C160.859 140.669 160.682 140.394 160.447 140.192C160.211 139.99 159.918 139.889 159.567 139.889C159.212 139.889 158.914 139.99 158.672 140.192C158.433 140.394 158.253 140.669 158.13 141.017C158.011 141.365 157.951 141.761 157.951 142.206C157.951 142.65 158.011 143.046 158.13 143.394C158.253 143.742 158.433 144.017 158.672 144.219C158.914 144.418 159.212 144.517 159.567 144.517ZM170.007 141.345V143.011H166.02V141.345H170.007ZM166.716 138.372V146.009H164.692V138.372H166.716ZM171.335 138.372V146.009H169.326V138.372H171.335ZM172.53 146.009L172.52 144.328H172.774C172.953 144.328 173.107 144.285 173.236 144.199C173.369 144.11 173.478 143.965 173.564 143.767C173.65 143.568 173.718 143.304 173.768 142.976C173.818 142.645 173.851 142.237 173.868 141.753L173.992 138.372H179.799V146.009H177.78V140.038H175.896L175.777 142.37C175.747 143.009 175.669 143.559 175.543 144.02C175.42 144.481 175.25 144.859 175.031 145.154C174.812 145.445 174.549 145.661 174.24 145.8C173.932 145.939 173.574 146.009 173.167 146.009H172.53ZM183.618 146.153C183.131 146.153 182.697 146.068 182.316 145.899C181.934 145.727 181.633 145.474 181.411 145.139C181.192 144.801 181.083 144.38 181.083 143.876C181.083 143.452 181.16 143.095 181.316 142.807C181.472 142.519 181.684 142.287 181.953 142.111C182.221 141.935 182.526 141.803 182.867 141.713C183.212 141.624 183.573 141.561 183.951 141.524C184.395 141.478 184.753 141.435 185.025 141.395C185.297 141.352 185.494 141.289 185.617 141.206C185.739 141.123 185.801 141.001 185.801 140.838V140.809C185.801 140.494 185.701 140.25 185.502 140.078C185.307 139.905 185.028 139.819 184.667 139.819C184.286 139.819 183.983 139.904 183.757 140.073C183.532 140.238 183.383 140.447 183.31 140.699L181.351 140.54C181.45 140.076 181.646 139.675 181.938 139.337C182.229 138.996 182.606 138.734 183.066 138.551C183.53 138.366 184.067 138.273 184.677 138.273C185.101 138.273 185.507 138.323 185.895 138.422C186.286 138.522 186.633 138.676 186.934 138.884C187.239 139.093 187.479 139.362 187.655 139.69C187.831 140.015 187.918 140.404 187.918 140.858V146.009H185.91V144.95H185.85C185.728 145.188 185.564 145.399 185.358 145.581C185.153 145.76 184.906 145.901 184.617 146.004C184.329 146.103 183.996 146.153 183.618 146.153ZM184.225 144.691C184.536 144.691 184.811 144.63 185.05 144.507C185.289 144.381 185.476 144.212 185.612 144C185.748 143.788 185.816 143.548 185.816 143.279V142.469C185.749 142.512 185.658 142.552 185.542 142.588C185.429 142.621 185.302 142.653 185.159 142.683C185.017 142.709 184.874 142.734 184.732 142.757C184.589 142.777 184.46 142.795 184.344 142.812C184.095 142.849 183.878 142.907 183.693 142.986C183.507 143.066 183.363 143.173 183.26 143.309C183.157 143.442 183.106 143.608 183.106 143.806C183.106 144.095 183.21 144.315 183.419 144.468C183.631 144.617 183.9 144.691 184.225 144.691ZM191.585 143.215L194.334 138.372H196.422V146.009H194.404V141.152L191.665 146.009H189.562V138.372H191.585V143.215ZM193.971 135.708H195.448C195.445 136.311 195.221 136.796 194.777 137.164C194.336 137.532 193.739 137.716 192.987 137.716C192.231 137.716 191.633 137.532 191.192 137.164C190.751 136.796 190.531 136.311 190.531 135.708H191.998C191.994 135.936 192.067 136.142 192.216 136.324C192.369 136.506 192.626 136.598 192.987 136.598C193.338 136.598 193.59 136.508 193.743 136.329C193.895 136.15 193.971 135.943 193.971 135.708ZM203.435 141.345V143.011H199.448V141.345H203.435ZM200.144 138.372V146.009H198.12V138.372H200.144ZM204.762 138.372V146.009H202.754V138.372H204.762ZM208.936 135.827L208.742 142.956H206.922L206.724 135.827H208.936ZM207.832 146.138C207.504 146.138 207.222 146.022 206.987 145.79C206.752 145.555 206.636 145.273 206.639 144.945C206.636 144.62 206.752 144.342 206.987 144.11C207.222 143.878 207.504 143.762 207.832 143.762C208.147 143.762 208.424 143.878 208.662 144.11C208.901 144.342 209.022 144.62 209.025 144.945C209.022 145.164 208.964 145.364 208.851 145.546C208.742 145.725 208.598 145.87 208.419 145.979C208.24 146.085 208.044 146.138 207.832 146.138Z" fill="white"/>
<rect x="1.21601" y="26.399" width="77.2602" height="77.2602" rx="38.6301" fill="#212121" stroke="#212121" stroke-width="0.780406"/>
<path d="M52.7885 49.5371H26.9006C23.9615 49.5371 21.5707 51.891 21.5707 54.7846V69.7775C21.5707 72.6712 23.9615 75.0251 26.9006 75.0251H30.3452L27.7169 81.4931C27.5905 81.8019 27.688 82.1557 27.9544 82.3612C28.0915 82.4676 28.2575 82.5216 28.425 82.5216C28.5803 82.5216 28.7356 82.4752 28.8681 82.3822L39.3299 75.0251H52.7916C55.7306 75.0251 58.1215 72.6712 58.1215 69.7775V54.7846C58.1184 51.891 55.7276 49.5371 52.7885 49.5371Z" fill="white"/>
</svg>
