<svg width="49" height="55" viewBox="0 0 49 55" fill="none" xmlns="http://www.w3.org/2000/svg">
<path d="M2.6063 0.948395C2.67479 0.680882 2.51346 0.408495 2.24594 0.34C1.97843 0.271505 1.70604 0.432841 1.63755 0.700353L2.6063 0.948395ZM48.1247 51.7362C48.3363 51.5587 48.3639 51.2434 48.1864 51.0318L45.2943 47.5843C45.1168 47.3727 44.8015 47.3451 44.5899 47.5226C44.3783 47.7 44.3507 48.0154 44.5282 48.227L47.099 51.2915L44.0345 53.8622C43.8229 54.0397 43.7953 54.3551 43.9728 54.5666C44.1502 54.7782 44.4656 54.8058 44.6772 54.6284L48.1247 51.7362ZM1.63755 0.700353C-0.541484 9.21076 0.621444 21.0903 7.52181 31.3009C14.4353 41.5308 27.0748 50.0391 47.7597 51.8513L47.847 50.8551C27.4176 49.0653 15.0715 40.6863 8.35035 30.741C1.6161 20.7762 0.495473 9.19241 2.6063 0.948395L1.63755 0.700353Z" fill="#0D6EFD"/>
</svg>
